<?xml version="1.0" standalone="no"?>
<!DOCTYPE svg PUBLIC "-//W3C//DTD SVG 1.1//EN" "http://www.w3.org/Graphics/SVG/1.1/DTD/svg11.dtd" >
<svg xmlns="http://www.w3.org/2000/svg" xmlns:xlink="http://www.w3.org/1999/xlink" version="1.1">
<metadata></metadata>
<defs>
<font id="hellena_scriptregular" horiz-adv-x="708" >
<font-face units-per-em="2048" ascent="1638" descent="-410" />
<missing-glyph horiz-adv-x="409" />
<glyph horiz-adv-x="0" />
<glyph horiz-adv-x="682" />
<glyph horiz-adv-x="0" />
<glyph horiz-adv-x="0" />
<glyph unicode="&#xd;" horiz-adv-x="409" />
<glyph unicode=" "  horiz-adv-x="409" />
<glyph unicode="&#x09;" horiz-adv-x="409" />
<glyph unicode="&#xa0;" horiz-adv-x="409" />
<glyph unicode="!" horiz-adv-x="823" d="M162 215q1 9 2 27t2 26q1 15 13.5 23.5t27.5 5.5q25 -3 45 -26t20 -48q0 -38 -8 -108q-3 -22 -20.5 -28.5t-36.5 5.5q-30 19 -41 70q-2 10 -2.5 29t-1.5 24zM213 563q8 53 14 76q49 184 99 352q19 64 77 232q33 87 91 225q17 39 50 110t46 101q32 66 37 78q26 18 57 4 q51 -22 70 -68.5t-2 -97.5q-11 -24 -29 -57q-130 -220 -197 -424q-6 -19 -19.5 -52.5t-17.5 -44.5q-26 -69 -48 -146.5t-47 -179.5t-38 -149q-4 -20 -8 -30q-7 -29 -27.5 -37.5t-46.5 6.5q-68 42 -61 102z" />
<glyph unicode="&#x22;" horiz-adv-x="630" d="M0 1251q0 13 2 15q14 28 42 98.5t46 103.5q31 56 39 95q3 15 10.5 18t14.5 -8q3 -3 14 -25q19 -42 31 -133q6 -53 -21 -69q-27 -17 -65 -76q-3 -5 -10 -17t-11 -18q-19 -34 -37 -18q-8 5 -23.5 11t-21.5 9q-2 1 -5 6.5t-5 7.5zM233 1251q0 12 3 15q14 28 42 98.5 t46 103.5q29 53 38 95q3 15 10.5 18t14.5 -8q3 -3 14 -25q19 -42 31 -133q6 -54 -20 -69q-29 -18 -66 -76q-4 -5 -10 -17.5t-10 -17.5q-19 -34 -37 -18q-8 5 -23.5 11t-21.5 9q-2 1 -5.5 6.5t-5.5 7.5z" />
<glyph unicode="#" horiz-adv-x="905" d="M0 666q0 4 6 10q5 1 15.5 3t15.5 3q40 8 63 14q10 37 47 172q-14 2 -47.5 -2t-42.5 4q-5 17 15 25q47 19 61 23q36 9 47 45q66 197 94 274q9 33 43 18q41 -16 62 -43q54 -64 20 -131q-29 -59 -41 -112q25 0 35 2q4 1 22.5 4.5t28.5 3.5q47 -3 64 49q31 99 61 170 q27 75 80 19q28 -36 49 -76q11 -22 -2 -64l-22 -55q27 -3 80.5 3.5t79.5 2.5q19 -16 -3 -31q-61 -36 -141 -39q-51 -5 -67 -57q-25 -71 -25 -72q4 0 16.5 -1.5t18.5 -0.5q8 1 24 5t25 6q-14 -25 -28.5 -37t-35.5 -13q-22 -3 -34.5 -15t-24.5 -36q-50 -97 -96 -264 q-8 -35 -27 -49q-18 -12 -37 0q-39 31 -39 78q3 50 9 96q2 18 11 53.5t11 44.5q-5 0 -12.5 1t-12 1t-8.5 -2q-8 -2 -39 -10t-49 -10q-44 -7 -61 -58q-11 -40 -12 -45q-1 -8 -5 -16t-7 -12.5t-10 -13t-9 -11.5q-22 -22 -47 -14q-28 11 -31 37q-3 27 0 57q0 21 2 35 q-38 4 -57 8q-16 0 -25 6q-8 4 -8 17zM266 743q5 1 15.5 2.5t15.5 2.5q67 17 117 28q40 94 47 137q-3 0 -10.5 1.5t-10.5 0.5q-14 -1 -41 -5t-41 -5q-39 -6 -51 -43q-6 -21 -20.5 -60.5t-20.5 -58.5z" />
<glyph unicode="$" horiz-adv-x="868" d="M-88 442q0 59 39 101q86 96 188 114q19 6 27 -16l-12 -11q-13 -12 -21 -16q-32 -13 -55 -51q-16 -22 -45 -64t-39 -57q-26 -40 -4 -92q34 -83 106 -88h6q88 -20 126.5 -16t115.5 41q81 37 162 125q47 53 22 127q-33 100 -118 202q-119 149 -148 291q-25 136 43 246 q13 21 39 43q5 4 20.5 13.5t25 19t13.5 22.5q6 14 39 19q46 6 68 51q4 8 21 36t24 41t15.5 37t11.5 46q5 -1 16.5 -4t17.5 -5q40 -22 62 -71q23 -54 -2 -99q-20 -40 -41 -88q-6 -15 -12 -36q57 -68 75 -117q15 -38 19 -103q0 -54 -55 -77q-2 -1 -56 -19q-6 3 -21.5 7.5 t-24.5 12t-11 23.5q4 9 11.5 14.5t18.5 10.5t15 8q25 15 27 27q9 33 6.5 74.5t-25.5 74.5q-38 -5 -43 -8q-48 -21 -108 -55q-91 -51 -72 -156q9 -65 59 -109q96 -88 178 -225q50 -81 62 -168q17 -148 -115 -260q-76 -69 -217 -104q-40 -9 -53 -39q-3 -6 -8.5 -17.5 t-8.5 -17.5q-4 -7 -15 -29.5t-19 -32.5q-19 -30 -32 -34.5t-54 6.5q-5 19 -6.5 38.5t1.5 44t5 36.5t8 41q-6 3 -45 17.5t-56 25.5q-154 95 -151 249z" />
<glyph unicode="%" horiz-adv-x="815" d="M-14 954q-23 188 69 318q50 70 146 135q28 19 55 8q32 -11 35 -49q0 -2 6 -14q95 -35 80 -162q-23 -179 -160 -272q-20 -15 -56.5 -46t-51.5 -43q-53 11 -85 43t-38 82zM47 59q-4 27 21 78q19 44 56 125t48 105q164 356 248 536q42 92 126 277.5t126 277.5q2 3 14 19 q3 -1 9 -3.5t10.5 -4.5t7.5 -5q15 -19 8 -34q-40 -100 -41 -103q-18 -43 -41.5 -93.5t-40.5 -85t-46.5 -93t-43.5 -86.5q-37 -74 -217 -459q-25 -52 -74 -157.5t-74 -157.5q-30 -68 -57 -121q-16 -29 -39 -15zM96 932q4 0 11.5 -1t12.5 -1t9 2q81 35 111 74q68 94 82 165 q6 35 6 103q0 18 -9 23t-36 3q-12 -43 -21.5 -56t-52.5 -48q-63 -55 -80 -92q-36 -76 -33 -172zM336 205q3 118 33 203q26 75 61 139q52 100 174 147q52 -21 70 -92q12 -41 28 -53q35 -35 29 -88q-7 -52 -16 -82q-34 -114 -45 -139q-40 -80 -131 -158q-30 -26 -74 -23.5 t-74 27.5q-58 51 -55 119zM449 160q6 0 14.5 -0.5t15 -0.5t10.5 1q49 16 82 49q92 92 123 258q11 48 -28 74q-70 -17 -105 -60q-73 -93 -92 -188q-12 -49 -18 -100q-2 -10 -2 -33z" />
<glyph unicode="&#x26;" horiz-adv-x="1177" d="M10 487q16 71 53 119q98 138 230 191q6 2 18 8q-4 8 -4 12q-108 140 -88 373q8 110 33 168q36 84 100 158q32 38 117 63q6 2 11.5 2.5t11.5 -1l10 -2.5t10.5 -4t10 -4.5t11 -5.5t9.5 -5q4 -3 51 -39q11 18 32.5 58.5t40 69t40.5 50.5q34 -16 61 -76q10 -20 10 -74 q0 -19 -16 -39q-106 -138 -160 -354q0 -1 -2.5 -2.5t-3.5 -3.5q-51 3 -66 63q-16 71 11 158q18 58 18 64l-6 4q-153 -60 -201 -250q-22 -83 -8 -187q9 -133 115 -176q46 -17 71 -84q10 -30 -3.5 -50.5t-41.5 -22.5q-168 -6 -274 -138q-57 -77 -78 -131q-46 -106 8 -227 q18 -37 76 -45q131 -18 242 59q98 67 166 176q77 123 118 252q26 69 19 121l-72 25q-56 11 -65 76q-10 60 -7 114q2 53 62 84q36 20 80 -24q13 -13 22 -49q35 -180 37 -189q13 -13 17 -16q70 -63 106 -211q5 -14 2 -19q-5 -18 -10 -20q-3 -3 -9.5 -1.5t-9.5 5.5 q-23 18 -34 72q-18 69 -45 108q-2 1 -5.5 4.5t-5.5 5t-6.5 3t-7.5 -0.5q-17 -89 -18 -92q-8 -40 -25 -90q-24 -61 -43 -90q-61 -95 -170 -217q-44 -44 -88 -68q-70 -47 -135 -79q-92 -39 -148 -21q-94 27 -151 150q-53 123 -23 292zM649.5 932q-8.5 -43 20.5 -109 q10 -1 30 -6t32 -6.5t34 4.5q-4 46 -8 66q-2 13 -17 92q-10 34 -32 39q-51 -37 -59.5 -80z" />
<glyph unicode="'" horiz-adv-x="262" d="M0 1251q0 13 2 15q14 28 42 98.5t46 103.5q31 56 39 95q3 15 10.5 18t14.5 -8q3 -3 14 -25q19 -42 31 -133q6 -53 -21 -69q-27 -17 -65 -76q-3 -5 -10 -17t-11 -18q-19 -34 -37 -18q-8 5 -23.5 11t-21.5 9q-2 1 -5 6.5t-5 7.5z" />
<glyph unicode="(" horiz-adv-x="772" d="M2 586q-6 215 72 424q94 260 248 477q15 22 45 59.5t41 52.5q57 82 151 156q14 11 38 33.5t36 32.5q22 -17 24 -19q21 -27 37 -59q42 -79 -32 -141q-79 -66 -132 -132q-120 -152 -157 -217q-8 -13 -35.5 -61t-39 -68.5t-32.5 -59t-36.5 -70.5t-28.5 -64 q-97 -237 -84 -438q6 -94 57 -168q5 -8 16.5 -24t16.5 -24q33 -49 76 -49q4 -9 14.5 -29t13.5 -30q8 -17 -4 -29q-8 -12 -26 -8q-57 16 -88 53q-90 112 -121 158q-67 101 -70 244z" />
<glyph unicode=")" horiz-adv-x="772" d="M168 1765q28 32 51 52q3 3 7 5t9.5 4t8.5 3q13 -14 59 -78q79 -89 117 -184q8 -17 30.5 -60t32.5 -67q105 -249 146 -516q34 -215 -13 -430q-40 -146 -120 -226q-31 -32 -148 -131q-41 -30 -96 -33q-6 -1 -14.5 3.5t-10.5 9.5q-2 6 -1.5 15t3.5 13q8 13 41 54 q39 -9 84 32q7 8 21.5 21t19.5 18q67 67 88 154q54 193 4 446q-8 42 -22 94t-22 78.5t-31 97t-27 81.5q-10 30 -24.5 66t-24 55.5t-32.5 66.5t-28 57q-55 98 -104 154q-56 77 -4 145z" />
<glyph unicode="*" horiz-adv-x="534" d="M0 1298q15 10 30 14t40 5t32 2q9 2 105 12q-5 29 -8 37q-2 3 -35 53q-25 36 -8 45q23 8 45 -18q5 -6 15 -19.5t15 -19.5q12 -21 27 -45q7 5 12 12t6.5 11.5t4.5 14.5t4 13q7 18 18 53.5t16 49.5q2 6 8.5 14.5t8.5 11.5q19 -12 26 -29.5t7 -28t-6 -37.5t-7 -34 q10 4 39 16.5t43 18.5q12 6 20.5 3.5t10.5 -11.5q9 -21 -12 -35q-66 -36 -109 -61q8 -1 30 -3t32 -2v-12q-10 -7 -43 -26q-17 -9 -62 -25q1 -27 25 -67.5t26 -61.5q-12 -22 -28 -6q-28 28 -52 55q-35 -32 -55 -108q-25 -9 -28 8q0 27 6 51q9 41 28 108q-13 13 -30 0 q-16 -8 -88 -53l-52 -26q-21 -12 -32 10q-13 20 16 35q2 1 6 1t6 1t24 13t34 19q-14 12 -55.5 14t-55.5 27z" />
<glyph unicode="+" horiz-adv-x="751" d="M92 637q-8 24 2.5 45.5t34.5 28.5q20 5 60.5 12t60.5 12q10 2 31 2q44 85 61 174q7 29 33 15q41 -19 60.5 -59.5t8.5 -84.5q0 -4 -4 -20q11 -5 22 -5.5t29 2.5t21 3q10 0 36 2.5t40 1.5q31 0 57 -21t33 -53q6 -15 -1 -28.5t-24 -16.5q-31 -7 -102 -20q-61 -5 -133 -15 q-24 -2 -32.5 -8t-12.5 -29q-14 -62 -21 -102q-10 -83 -12 -100q-5 -20 -12 -27q-16 -23 -39 -10q-47 24 -47 76q0 62 6 123q0 5 1.5 16t1.5 20.5t-3 18.5h-27q-7 -1 -23.5 -4.5t-25.5 -3.5q-59 -6 -80 55z" />
<glyph unicode="," horiz-adv-x="337" d="M55 -18q0 16 2 18q14 37 41 130t45 136q31 86 37 125q4 26 14 25q6 0 11 -10q2 -2 14 -33q18 -56 29 -176q6 -72 -21 -93q-23 -20 -63 -98q-4 -7 -9.5 -23.5t-9.5 -23.5q-18 -45 -36 -25q-8 8 -23.5 16t-19.5 11q-2 2 -5.5 10t-5.5 11z" />
<glyph unicode="-" horiz-adv-x="595" d="M31 625q-4 15 4 49q6 29 37 26q18 -5 55 -2.5t54 4.5t54 8.5t54 8.5q30 4 96.5 5.5t101.5 6.5q10 -40 19 -57q5 -8 18.5 -23t14.5 -16q2 -2 12 -17q31 -51 -29 -63q-24 -4 -37 -4q-84 0 -262 -29q-10 -1 -32 -2t-33 -2q-40 -2 -78.5 27.5t-48.5 79.5z" />
<glyph unicode="." horiz-adv-x="374" d="M138 308q11 40 44 48q65 -6 93 -43.5t38 -107.5q-19 -50 -26 -62q-3 -6 -14 -10t-19 -4q-53 3 -78 41q-13 -11 -28 28q-23 58 -10 110z" />
<glyph unicode="/" horiz-adv-x="882" d="M121 -104q-28 110 10 235q38 143 139 420q211 602 250 711q23 67 67 184t58 156q9 25 30 86t34 98q2 -1 10.5 -1.5t11.5 -2.5q35 -43 47 -127q13 -91 -28 -178q-17 -40 -72 -166q-93 -221 -201 -529q-94 -258 -139 -385q-63 -188 -119 -346q-7 -24 -17.5 -71t-15.5 -66 q-8 -30 -19.5 -43t-23.5 -4q-19 10 -22 29z" />
<glyph unicode="0" horiz-adv-x="618" d="M2 530q-8 107 23 224q22 79 57 196q45 142 166 213q12 7 43.5 28.5t50.5 31.5q6 -7 19 -20t18 -19q45 -59 14 -115q-19 -36 8 -70q47 -66 66 -131q3 -10 31 -65q19 -33 45 -125q16 -68 12 -199q-5 -144 -115 -280q-8 -11 -24 -19q-126 -53 -228 10q-166 102 -186 340z M125 586q-30 -183 80 -291q80 -74 178 -51q98 24 111 127q24 153 4 262q-7 50 -33 131q-10 24 -76 176q-2 4 -6 13.5t-6 13.5l-6 12t-7.5 12.5t-9 9.5t-12.5 9q-93 -47 -129 -129q-41 -98 -51 -146q-4 -24 -18.5 -73.5t-18.5 -75.5z" />
<glyph unicode="1" horiz-adv-x="591" d="M2 883q-4 8 8 20q22 22 68 62q185 185 223 221q19 19 27 71q42 10 73 -18q66 -66 86 -94q43 -58 43 -133q0 -262 -16 -391q-7 -50 -16.5 -151t-16.5 -151q-4 -28 -4 -45q-12 -146 -16 -217q-3 -35 -33 -45q-82 14 -139 119q-38 68 -27 135q3 27 4.5 77.5t3.5 70.5 q7 106 17 180q6 57 21.5 169.5t21.5 168.5q3 33 6 94t4 80q0 2 -1.5 4.5t-4 7t-4.5 8.5q-3 -3 -15.5 -14t-17.5 -18q-8 -13 -17.5 -25.5t-22.5 -27t-20 -21.5l-24.5 -24.5l-22.5 -22.5q-16 -17 -50.5 -48t-51.5 -48q-29 -29 -65 -17q-13 6 -21 23z" />
<glyph unicode="2" horiz-adv-x="722" d="M0 117q20 15 27 22q6 6 16.5 16t17 16.5t15 15.5t14.5 18q183 250 262 411q107 233 109 408q3 54 -35 98q-19 26 -57 70q-23 26 -45 10q-76 -43 -103 -67q-115 -92 -115 -240q0 -2 -1 -6t-1 -6q-1 -1 -2.5 -4t-3.5 -5q-13 0 -20 7q-19 14 -23 51q-3 106 51 176 q61 74 175 141q77 44 151 -6q28 -18 88 -74q63 -66 105 -151q37 -75 20 -170q-2 -14 -7 -41.5t-7 -42.5q-6 -54 -27 -114.5t-38 -96t-54 -104.5q-11 -21 -53 -89q-66 -106 -115 -147q-5 -4 -25 -29q93 -52 132 -69t88 6q13 7 49 29q18 15 37 34q5 -2 8.5 -4.5t6.5 -4.5 t5.5 -6.5t4 -6t4 -7.5t3 -8t3 -9.5t2.5 -8.5q-24 -30 -27 -33q-42 -35 -113 -45q-48 -11 -96 25q-13 10 -29.5 18t-27 11.5t-33 9.5t-29.5 8q-40 11 -78 -19q-9 -7 -27.5 -22.5t-27.5 -22.5q-42 -30 -84 -22q-79 10 -90 80z" />
<glyph unicode="3" horiz-adv-x="671" d="M4 1094q7 12 27.5 45.5t31.5 50t30 42t38.5 44t42.5 33.5q109 75 211 67q81 -3 123 -69q38 -51 49 -105q5 -18 21 -51q32 -58 -11 -113q-63 -77 -168 -211l-4 -16q14 -2 66 -16q68 -18 94 -80q6 -18 21 -49t20 -45q26 -73 0 -119q-3 -6 -15 -29t-20 -33 q-78 -100 -168 -176q-24 -19 -66.5 -53t-77.5 -62.5t-65 -54.5q-37 -31 -72 -22.5t-57 53.5q-15 26 -11 51t32 51q84 77 151 131q113 93 197 195q32 40 49 74q13 25 16 55q6 57 -55 63q-34 3 -76 -10q-37 -14 -75.5 -38t-61.5 -43.5t-63 -55.5q-12 -10 -39 -37 q-59 22 -66 92q-3 21 13 41q70 97 96 123q38 40 81 91t68.5 83t77 100.5t68.5 90.5q14 17 20 39q16 35 -7 68t-56 36q-82 6 -160 -37q-104 -54 -145 -131q-7 -13 -52 -76q-7 -15 -30 -18q-14 0 -21.5 10.5t-1.5 20.5z" />
<glyph unicode="4" horiz-adv-x="663" d="M0 748q0 65 2 96q4 45 12.5 135t12.5 135q1 3 1 9.5t1 9.5q20 86 -2 188q25 5 30 4q21 -3 29 -31q19 -96 12 -159q-4 -39 -11 -113.5t-11 -110.5q-2 -25 -10 -75q-3 -24 -3 -52q35 6 113 46t154 90q62 240 141 426q27 11 61 -23q41 -47 56 -78q24 -50 4 -104 q-55 -172 -86 -289q-19 -70 -64 -277q-19 -80 -51 -198q-13 -49 -24 -139q-2 -24 -10 -70.5t-9 -50.5q-7 -27 -35 -21q-52 8 -88 70q-41 69 -28 160q26 193 92 434q4 11 8 37l-4 16q-1 0 -9 -2t-12 -4q-32 -16 -200 -102q-26 -14 -48.5 -1t-23.5 44z" />
<glyph unicode="5" horiz-adv-x="675" d="M0 262h31q48 -18 133 -6q78 8 143 80q85 98 123 223q18 61 4 148q-4 22 -10 45.5t-15.5 56.5t-13.5 47q-8 24 -18 39q-12 15 -27 33q-120 -18 -184 -66q-21 -14 -35 -28q-23 -19 -35 -7q-13 8 -18 31q-3 18 4 39q31 162 111 408q1 3 4 9t4 9q6 12 17 13t20 -9 q3 -4 8.5 -14.5t9.5 -16.5q36 4 61 4q28 1 83.5 3.5t82.5 3.5q59 0 62 -54q-2 -3 -5 -5.5t-5 -4.5t-6 -3l-6 -1.5t-7.5 -1t-7 -0.5h-7.5h-7q-160 4 -238 6q-1 0 -25 -4q-6 -22 -47 -135.5t-45 -181.5q40 12 131 43q3 1 9.5 4t9.5 4q7 1 29.5 6.5t33.5 7.5t29 0t33 -10 q93 -46 129 -121q32 -70 59 -209q1 -8 4 -25.5t4 -25.5q15 -129 -53 -234q-60 -81 -68 -94q-56 -84 -170 -131l-24 -6q-121 -16 -225 29q-62 26 -70 102z" />
<glyph unicode="6" horiz-adv-x="487" d="M6 686q18 195 107 375q20 40 60 117t46 88q29 58 33 67q103 -29 127 -129q19 -80 -23 -135q-15 -19 -41 -78q-14 -27 -39.5 -81.5t-39.5 -82.5q-5 -13 -15.5 -38t-15.5 -37q6 -8 14 -12.5t22.5 -8t16.5 -4.5q86 -30 131 -88q32 -40 35 -94q5 -66 -21 -160 q-4 -14 -12 -40.5t-12 -39.5l-6 -18q-79 -101 -170 -103q-77 -4 -123 45q-62 65 -72 160q-14 175 -2 297zM154.5 498q-7.5 -115 11.5 -203q3 -1 12.5 -3.5t14.5 -2.5q66 -9 98.5 11t56.5 77q38 84 23 176q-9 72 -57.5 107t-123.5 24q-28 -71 -35.5 -186z" />
<glyph unicode="7" horiz-adv-x="651" d="M0 780q16 15 35.5 20.5t44.5 7.5t37 5q31 9 116 25q14 26 65 120t83.5 156.5t62.5 124.5q0 1 -0.5 2.5t-1.5 5t-2 6.5q-10 -1 -27.5 -3t-32 -4t-28.5 -5q-23 -5 -97.5 -20t-115.5 -23q-50 -8 -73 12q-3 2 -5.5 7.5t-1.5 9.5q0 3 4.5 7.5t8.5 4.5q18 3 53.5 9t52.5 9 q47 8 133.5 22t114.5 19q10 2 30.5 8.5t30.5 8.5q6 1 18.5 2t18.5 2q3 -6 23 -42.5t28 -55.5q28 -61 -4 -115q-82 -143 -127 -232q-20 -37 -86 -186q-39 -84 -84 -215q-15 -45 -71 -172q-9 -24 -26.5 -66t-24.5 -59q-13 -33 -46 -26q-41 8 -75.5 57t-18.5 90q14 30 34 88 t30 82q14 37 92 217q3 8 7.5 24t6.5 23q-14 2 -50.5 2.5t-61 5.5t-45.5 19q-12 9 -25 22z" />
<glyph unicode="8" horiz-adv-x="831" d="M2 266q-3 44 0 90q3 72 49 121q43 49 64 64q22 16 47 32t57 35t47 29h15q-6 -19 -7.5 -23t-6 -12.5t-9 -12t-14.5 -9.5q-22 -19 -49 -31q-17 -8 -35.5 -20.5t-30.5 -22.5t-32.5 -27t-30.5 -26q-14 -11 -25 -37q-25 -78 -18 -137q6 -74 73 -105q133 -62 271 16 q49 26 90 84q41 53 20 121q-17 57 -78 154q-79 123 -98 158q-133 244 -25 501q7 18 23.5 50.5t22.5 46.5q37 -4 45.5 -2.5t48.5 12.5q47 11 84 8q126 -9 196 -104q2 -3 6.5 -8.5t6.5 -8.5q81 -78 53 -227q-32 -164 -197 -246q-12 -8 -18 -6q-18 1 -33 -7.5t-22 -17 t-21 -28.5q4 -6 11.5 -19.5t11.5 -19.5q66 -91 116 -221q38 -95 -26 -174q-6 -7 -18 -29t-21 -31q-94 -94 -191 -92q-16 0 -24 -2q-80 -21 -189 27q-23 10 -55 28q-78 45 -84 129zM389 930q7 -78 17 -139q4 -19 22 -50q18 9 47.5 23t42.5 20q4 2 8 5t9 7.5t8 6.5 q8 7 24.5 21.5t24.5 21.5q81 68 108 198q13 63 -31 128.5t-108 84.5q-34 9 -45 -24q-1 -3 -6.5 -21.5t-11.5 -25.5q-20 -23 -36 -54t-23 -52t-19 -62q-4 -22 -14 -35q-21 -21 -17 -53z" />
<glyph unicode="9" horiz-adv-x="632" d="M10 242q-20 55 10 96q23 -67 37 -98q29 -56 101 -76q50 -15 100 39q18 18 25 45q3 11 12 38t14 47t8 38q7 46 43 319v37q-9 -6 -24.5 -15.5t-22.5 -13.5q-76 -46 -100 -57q-27 -11 -53 -4t-45 29q-42 50 -54 116q-5 27 -14 95q-11 75 16 153q35 91 68 137q52 69 143 88 q50 11 99 -20q8 -5 23.5 -16.5t23.5 -16.5q17 13 21 46t12 44q45 17 71 -24q57 -91 43 -191q-3 -26 -12 -83t-14.5 -101t-8.5 -84q-1 -35 -4.5 -75.5t-6.5 -68.5t-10.5 -78t-10 -68.5t-12 -77.5t-11.5 -70q-3 -27 -31 -119q-2 -10 -14 -29q-35 -58 -43 -69q-35 -55 -55 -72 q-24 -24 -64 -21q-16 0 -45.5 -3.5t-42.5 -4.5q-6 3 -21.5 12t-23.5 13q-88 45 -127 164zM102 901q4 -30 14 -88t11 -63q0 -2 12 -37q13 -23 37 -23q4 1 12 1t14.5 1t10.5 4q142 61 164 191q5 26 37 262q-6 6 -17.5 18.5t-17.5 18.5q-60 57 -123 18q-55 -32 -78 -74 q-36 -64 -69 -172q-10 -30 -7 -57z" />
<glyph unicode=":" horiz-adv-x="452" d="M88 348q-2 40 21 82q12 22 43 92q14 30 38 25q58 -10 85.5 -54t11.5 -85q-7 -20 -35 -82q-6 -12 -18.5 -36.5t-18.5 -37.5q-18 -31 -44 -34t-50 26q-36 45 -33 104zM154 786q0 5 0.5 14t0.5 17t-1 14q-3 41 26 84q26 33 58 82q18 9 45 -4q62 -38 74.5 -103t-23.5 -108 q-49 -65 -60 -84q-13 -19 -34.5 -21t-38.5 13q-41 41 -47 96z" />
<glyph unicode=";" horiz-adv-x="401" d="M43 150q0 16 2 18q3 8 13 36t13 36t11 32.5t10 33.5t7 30t5.5 31.5t1.5 28.5t-1.5 31t-6.5 28.5t-10 29.5q-3 15 -1.5 40t19.5 48.5t46 24.5q66 2 90 -59q4 -13 9.5 -27.5t7 -20.5t3.5 -19t4 -36q3 -35 -16 -93t-35 -71q-23 -20 -63 -98q-4 -7 -9.5 -23.5t-9.5 -23.5 q-18 -46 -37 -25q-8 8 -23.5 16t-19.5 11q-2 2 -5 10t-5 11zM61 797v45q-3 40 27 84q21 26 57 82q19 9 45 -4q62 -38 75 -103t-23 -108q-49 -65 -60 -84q-14 -19 -35 -21.5t-38 12.5q-42 42 -48 97z" />
<glyph unicode="&#x3c;" horiz-adv-x="757" d="M78 610q23 73 61 103q180 143 217 170q85 58 150 88q23 10 78 41q9 -3 16.5 -7t14 -10t10.5 -10t9 -13.5t7 -13t7.5 -15t6.5 -13.5q18 -38 9 -82q-13 -58 -60 -78q-34 -17 -59 -27q-97 -37 -191 -106q-12 -11 -67 -49q-4 -3 -12 -12.5t-13 -14.5q11 -5 32.5 -12.5 t31.5 -11.5q41 -17 121.5 -50.5t121.5 -50.5q23 -9 13 -47q-125 43 -371 125q-5 -2 -21.5 -12t-25.5 -13q-43 -18 -62 25q-9 15 -22 53q-8 26 -2 43z" />
<glyph unicode="=" horiz-adv-x="735" d="M53 424q6 31 37 37q26 6 79 18.5t79 18.5q42 9 121 25.5t104 21.5q30 6 90.5 21t65.5 16q14 3 22 -5t2 -20q-15 -33 -24.5 -51t-29.5 -40t-46 -36q-40 -20 -89 -39t-83.5 -30.5t-94 -30t-87.5 -27.5q-21 -8 -41 -8q-57 0 -87 38.5t-18 90.5zM98 735q-7 29 10 53t48 29 q18 2 113.5 16.5t146.5 20.5q1 3 48 1.5t48 -1.5v2q1 0 42 1t42 -1q19 0 28.5 -11.5t6.5 -31.5q-6 -76 -74 -102q-42 -17 -68 -19q-74 -12 -149 -30q-60 -16 -115 -19q-49 -4 -82 20t-45 72z" />
<glyph unicode="&#x3e;" horiz-adv-x="651" d="M86 342q-3 20 16 39q13 12 50.5 51.5t58.5 59.5q20 19 57.5 50.5t48.5 41.5q4 4 16 17t21 22q-8 4 -20.5 9t-16.5 7q-79 25 -135 47q-70 28 -95.5 85.5t1.5 127.5q6 17 22 20.5t23 -10.5q3 -5 6 -9t5.5 -7t7.5 -6t7 -5t8.5 -5t8 -3.5t9 -4t8.5 -3.5q162 -63 235 -104 q58 -35 92 -111q8 -16 4 -43q-1 -29 -18 -38.5t-43 1.5q-9 3 -25.5 11.5t-23.5 11.5q-39 -13 -70 -53q-56 -68 -129 -125q-14 -12 -74 -72q-3 -2 -10.5 -10t-11.5 -10q-16 -8 -25 -5q-8 5 -8 23z" />
<glyph unicode="?" horiz-adv-x="995" d="M100 309q1 18 14.5 24.5t22.5 -3.5q14 -14 33 -17q54 -4 77 -35.5t32 -89.5q-2 -4 -9.5 -22.5t-13.5 -28.5q-3 -5 -12 -8t-15 -2q-41 3 -65 33q-41 60 -62 129q-2 6 -2 20zM174 473q-9 42 6 82q28 80 117 188q78 91 248 226q11 9 49 39t55 44.5t45 39t49 45.5t23 24 q61 122 51 223q-8 81 -78 132q-55 33 -82 36q-72 7 -149 -63q-35 -32 -43 -66q-3 -13 -14 -20q-24 -15 -41 -68q-36 -108 -45 -233q0 -20 -19 -35q-61 5 -67 4q-52 -3 -74 43q-26 62 -17 109q19 88 74 180q16 29 47 77.5t37 57.5q26 10 67.5 27t59.5 24q98 35 117 41 q9 4 35 8q14 0 16 -2q6 -12 17 -18t27.5 -9.5t23.5 -6.5q55 -20 114 -82q27 -27 55.5 -93.5t30.5 -103.5q0 -25 -6 -49q-20 -85 -39 -131q-53 -132 -147 -211q-10 -8 -33 -29t-37 -31q-75 -59 -233 -217q-106 -110 -144 -219q-6 -18 -16.5 -22t-30.5 2q-41 14 -49 57z" />
<glyph unicode="@" horiz-adv-x="1327" d="M102 358q-9 124 29 248q45 150 84 271q18 58 57 106q213 260 547 272q118 3 209 -67q73 -55 131 -125q93 -113 90 -275q-3 -94 -37 -215q-8 -27 -26 -59q-8 -15 -24.5 -40t-28.5 -46t-21 -41q-44 -81 -115 -172q-34 -47 -57 -76q-9 -13 -22 -22q-32 -26 -37 -35 q-5 -12 -39 -31q-32 -20 -68 -4q-52 20 -84 76q-30 62 -33 117q-1 15 -2 44t-2 44q-13 -6 -36.5 -19.5t-36.5 -19.5q-65 -36 -138 14q-55 36 -88 124.5t-16 156.5q40 158 115 272q55 86 163 115q56 12 97.5 -11t58.5 -77q8 -24 14 -62q25 34 50 97q10 28 25.5 34.5 t43.5 -4.5q18 -7 31 -20q40 -34 55 -86q14 -39 0 -80q-22 -52 -59.5 -151.5t-44.5 -118.5q-43 -115 -76 -312v-33q0 -2 4 -18q9 -3 17 -4t18 2t14 4.5t16 8t13 7.5q9 4 18 11.5t20.5 19t16.5 15.5q28 27 57.5 67.5t43 63t45.5 77.5q24 44 30 58q39 79 45 127q4 21 14.5 67.5 t14.5 71.5q37 237 -154 401q-30 25 -38 33q-69 59 -142 53q-3 0 -19.5 -0.5t-20.5 -1t-18.5 -1t-20.5 -1.5t-18.5 -3t-20.5 -4t-18.5 -5.5t-19.5 -8t-18 -9.5q-12 -7 -38.5 -15.5t-33.5 -11.5q-192 -70 -309 -242q-34 -56 -47 -104q-6 -24 -57 -164q-60 -169 -45 -342 q13 -125 90 -193q24 -22 68.5 -58.5t54.5 -45.5q46 -33 80 -22q11 -29 -17 -35q-33 -7 -55 10q-52 29 -72 43q-11 8 -76 68q-118 104 -131 292zM403 573q-11 -53 3.5 -101t48.5 -105q15 -30 53 -27q32 0 49 10q14 7 28 16.5t32.5 22t25.5 17.5q28 20 35 59q3 23 9 49.5 t11.5 44.5t15 47.5t13.5 44.5q22 62 25 146q0 9 -4 45q0 12 -7 30q-12 43 -44.5 60t-73.5 0q-90 -38 -134 -107q-42 -62 -67 -139q-5 -16 -8.5 -35t-6 -42.5t-4.5 -35.5z" />
<glyph unicode="A" horiz-adv-x="1044" d="M2 92q4 40 8 58q6 33 53 251q32 151 72 326q4 16 4 25q-6 13 -33.5 27t-31.5 34q11 13 41 13t41 5q8 19 14 42t12.5 53.5t10.5 44.5q12 42 35 131.5t43 158.5t42 130q42 111 49 192q3 28 33 35q20 3 40 3q68 0 132 -40q31 -22 31 -59q3 -59 16 -127q16 -96 82 -318 q10 -37 29 -111.5t29 -111.5q10 -36 32.5 -119t35 -129.5t32.5 -114.5t39 -124q25 -75 63 -203q7 -22 1.5 -34t-27.5 -21q-21 -8 -43 -8q-28 0 -56 14q-34 18 -45 51q-17 52 -53 155.5t-53 155.5q-15 46 -45.5 139.5t-46.5 139.5q-9 21 -19 41q-234 -28 -342 -39 q-104 -450 -147 -707q-29 -23 -57 -2q-24 15 -21 43zM251 859.5q0 -2.5 0.5 -6t2.5 -7t6 -6.5q17 2 50 5t48 5q112 14 152 20q7 1 19 6t18 7q-64 214 -137 465h-13q-72 -183 -143 -476q0 -1 -1.5 -5.5t-1.5 -7z" />
<glyph unicode="B" horiz-adv-x="919" d="M0 1597q23 3 45 3q107 0 172 -74q25 -25 25 -62v-8v-90q0 -2 1.5 -3.5l4 -4l4.5 -4.5q8 4 15 11.5t15 17t13 14.5q56 67 145 114q44 19 86 19q20 0 39 -4q104 -29 150 -80q26 -33 30 -57q8 -39 21 -86q16 -65 16 -119q0 -42 -10 -78q-3 -17 -12 -47.5t-12 -40.5 q-46 -170 -226 -266q-6 -4 -59 -31q44 -47 67 -74q78 -92 79 -210q0 -21 -3 -42q-13 -118 -90 -186q-20 -16 -57.5 -43t-50.5 -37q-25 -19 -56 -19q-21 0 -43 9q-7 3 -15 6.5t-20 8.5t-20 9q-1 -8 -12 -61q-7 -1 -21.5 -4t-21.5 -4q-9 -1 -18 -1q-31 0 -55 17q-30 22 -36 66 q-37 280 -41 409q-3 84 -15.5 253t-15.5 253q-4 73 -4 207.5v165.5q-1 27 0 49t-2 50.5t-12 53.5zM240 1174q2 -52 2.5 -149t1.5 -128q5 -84 8 -115q56 -11 110 -24q12 -2 23 -2q23 0 45 8q146 68 195 205q5 16 19.5 63.5t21.5 71.5q8 34 8 70.5t-8 76.5q-16 72 -23 99 q-12 51 -61 73q-54 22 -80 27q-14 6 -37 -6q-74 -28 -131 -98q-5 -6 -26.5 -34.5t-33.5 -41.5q-34 -34 -34 -96zM248 231q9 -7 24 -19t21 -17q29 -22 55 -5q74 48 103 97q43 81 43 161q0 60 -25 119q-30 90 -96 129q-36 27 -67 27q-27 0 -50 -21q-1 -76 -4 -233t-4 -238z " />
<glyph unicode="C" horiz-adv-x="772" d="M4 811q-2 25 -2 52q0 113 45 245q62 187 152 295q29 35 87.5 98.5t67.5 73.5q15 16 45 44.5t41 39.5q88 -10 140 -82q39 -56 53 -90q17 -40 17 -88q0 -38 -11 -82q-21 -96 -98 -201q-3 -6 -11 -6q-6 -3 -12 0q-4 1 -26 16q65 99 83 179q9 36 9 51q1 5 1 15q0 19 -3 54 q-14 -12 -41.5 -32.5t-46 -36.5t-33.5 -33q-9 -10 -50 -55.5t-61 -71.5q-66 -91 -80 -137q-7 -21 -23 -57.5t-22 -51.5q-18 -50 -18 -94v-12q0 -9 -3 -28.5t-3 -22.5q-4 -32 -4 -52q14 -196 108 -395q35 -79 96 -96q32 -10 54 10q59 46 75 110q5 21 6 43q0 45 -22 93 q-2 5 -6 15.5t-6 15.5q9 14 10 14q19 8 31 2q26 -10 43 -45q21 -52 22 -105q0 -42 -14 -84q-4 -17 -14 -28q-64 -60 -109 -90q-39 -27 -83 -27q-45 0 -95 29q-83 49 -141 139q-60 93 -111 266q-29 105 -37 203z" />
<glyph unicode="D" horiz-adv-x="899" d="M0 414q0 46 10 276q1 35 2 103.5t2 103.5q3 360 33 629q2 25 2.5 71.5t1.5 61.5q12 2 24 2q56 0 109 -47q44 -41 44 -95q0 -7 -1 -14q-2 -11 -2 -63q5 -4 11.5 -1.5t7.5 3t6 5.5l4 5q77 87 90 100q46 44 88 48h9q40 0 104 -31q66 -34 106 -109q78 -146 97 -284 q15 -91 15 -163q0 -33 -3 -61q-14 -108 -47 -180q-13 -31 -37 -91.5t-35 -86.5q-5 -18 -8 -25q-122 -224 -176 -327q-2 -3 -13 -16t-14 -21q-14 -33 -54 -48q-28 -11 -57 -11q-13 0 -25 2q-42 6 -67 28q-16 14 -45 43q-5 -2 -8.5 -4t-4.5 -5.5t-1.5 -5.5t0 -6t0.5 -5v-72 q0 -31 -33 -31h-9q-47 0 -78 27q-34 30 -38 84q-10 117 -10 211zM172 367q-6 -23 2 -33q45 -62 62 -78q29 -20 53 -20q5 0 9 1q28 5 48 33q6 10 20 32.5t21 33.5q14 23 28 51.5t23.5 49t24 54t22.5 50.5q83 205 115 329q5 23 10 49.5t9.5 57.5t7.5 45q-23 187 -44 264 q-8 29 -18 57q-19 58 -59 107q-23 28 -53.5 32t-59.5 -18q-16 -12 -45 -45q-54 -56 -125 -194q-19 -39 -22 -86q-4 -120 -8 -344q-1 -20 -3.5 -59.5t-3.5 -59.5q-8 -135 -10 -207q-4 -66 -4 -102z" />
<glyph unicode="E" horiz-adv-x="583" d="M0 401q1 147 1 439t1 438q0 36 10 231v123q0 17 2 23q16 16 49 8q66 -19 134 -98q6 -6 15 -20t13 -19h15q21 0 55 -2q27 -1 50 -1q19 0 36 1q38 2 72 12q24 7 43 -4q4 -3 3.5 -31.5t-5.5 -30.5q-15 -8 -25 -10q-57 -14 -154 -14q-63 0 -86 -12q-10 -46 -13 -246 q-1 -54 -1 -97q0 -114 6 -143q14 -5 28.5 -6.5t37.5 -2.5t28 -1h97q22 0 32 -4q5 -3 11 -20.5t6 -26.5q1 -8 -5 -12.5t-16 -6.5q-20 0 -58 -1t-58 -1q-12 0 -35 1t-35 1q-7 0 -21.5 -3t-17.5 -3q-4 -24 -4 -33q-14 -418 -16 -514q8 1 23 2t22 2q29 3 89 10.5t89 10.5 q6 1 13.5 -7t15.5 -19t12 -15q9 -9 8.5 -22t-12.5 -17q-18 -6 -43 -6q-79 -3 -185 -27q-25 -10 -32 -12q-4 -60 -7 -76q-2 -37 -30 -37q-6 0 -13 2q-45 7 -71 23q-50 29 -56 84q-18 142 -18 190z" />
<glyph unicode="F" horiz-adv-x="634" d="M0 1544q3 3 9.5 8.5t10.5 10t7 8.5q1 1 4 17t14 20q26 9 55 -9q23 -16 54 -16q15 0 32 4q27 4 115.5 13.5t146 21t111.5 31.5q14 5 26 5q20 0 36 -13q4 -4 13 -32.5t9 -35.5q1 -4 -4.5 -9t-11.5 -7t-39.5 -11t-43 -11t-38.5 -9.5t-44 -10l-39 -6.5t-44.5 -6t-40.5 -2 q-16 0 -121 -14q13 -20 18.5 -36.5t6 -25t-0.5 -30t-1 -33.5q0 -56 -2 -167t-2 -167q-2 -1 -1 -39t1 -39q7 -2 15 -2.5t13 0.5t13 2.5t12 1.5h7q56 0 77 -45q-12 -20 -49 -28q-7 -1 -20 -1t-19 -1q-34 -3 -42.5 -12t-11.5 -44l-6 -141q-1 -46 -5 -98.5t-10 -116.5t-9 -98 q-5 -57 -5 -104q0 -64 9 -109q2 -6 2 -19q0 -15 -10 -25t-25 -12h-9q-46 0 -81 28q-39 32 -45 83q-6 55 -6 111q0 54 2 162.5t2 164.5v41q-1 36 -1 84q-2 82 -1 107q0 13 2 38t2 37q1 57 1 122t-0.5 144t-0.5 122v165q-6 5 -18 16t-19 17z" />
<glyph unicode="G" horiz-adv-x="761" d="M16 821q10 77 20 141t27.5 145.5t38 148t52 138t68.5 126t88 101t110 73.5q17 10 28.5 9.5t24.5 -13.5q61 -65 76 -95q14 -23 26 -48t28 -62t22 -51t10 -45q4 -78 4 -121q0 -86 -64 -181q-3 -3 -10 -5t-10 1q-3 1 -4.5 4.5t-2 9t-1.5 7.5q0 4 2 6q10 15 16.5 28.5t9.5 30 t4.5 26.5t0 29.5t-2.5 27t-5 32t-5 31.5q-10 63 -24 119q0 12 -1.5 23t-6 23.5t-13 12t-22.5 -11.5q-12 -11 -40 -35t-48 -44t-35 -42q-15 -23 -35 -82q-54 -143 -96 -266q-18 -61 -23 -101q-5 -36 -14 -107.5t-14 -107.5q-13 -83 -13 -160q0 -139 43 -260q7 -23 43 -83 q16 -26 40 -26q13 0 28 7q14 7 59 37q8 5 23.5 15t21.5 14q23 64 30 174q2 36 2 68q0 65 -9 112q-10 4 -21.5 4.5t-26.5 -1t-22 -1.5h-10q-33 0 -64 16q-7 4 -10 12t-6 31q132 15 158 17q78 4 117 4q67 0 94 -31q10 -10 6 -22q-4 -11 -21 -15h-30q-9 -1 -29 -2t-29 -2 q-1 -5 -3.5 -11.5t-2.5 -8.5q4 -112 8 -168q-1 -19 0.5 -23t-1.5 -23t-2 -22.5t-3.5 -22.5t-4.5 -22t-5 -22t-6 -22t-6 -22t-6 -22q-13 -40 -45 -53l-62 -31q-18 -9 -31 -22q-21 -26 -58 -26q-8 0 -17 1q-78 8 -150 70q-57 54 -76 84t-47 108q-49 135 -49 295q0 86 14 180z " />
<glyph unicode="H" horiz-adv-x="714" d="M0 1630q0 20 17 31.5t32 1.5q86 -54 115 -84q19 -18 33 -39q18 -30 18 -67q6 -108 6 -195q0 -71 -4 -127q-1 -26 -2 -59.5t-2 -59.5q0 -4 2 -12.5t2 -13.5q154 -16 164 -17q7 6 10.5 14.5t4 14.5t1 15.5t0.5 13.5q1 46 3 120.5t3 120.5q1 52 4.5 158t4.5 158q1 12 2 35 t2 34q0 13 11.5 21.5t23.5 5.5q8 -2 24 -10q44 -31 88 -93q15 -23 19 -59q10 -67 10 -154q0 -57 -4 -122q-13 -296 -13 -481v-48v-10q0 -49 -8 -182q-2 -34 -5 -72.5t-7 -85.5t-6 -74q-1 -18 0 -51.5t2 -44.5q0 -8 1.5 -35t0.5 -41q0 -17 -11 -27t-26 -8q-65 3 -92 50 q-37 57 -37 147q-2 64 -2 126q0 145 10 280q3 47 3 96t-3 100q-17 7 -35 11.5t-38.5 6t-32.5 2t-37 0t-33 -0.5q-6 -16 -9 -35.5t-3.5 -32t-1 -34t-0.5 -30.5q-3 -43 -8 -258q-1 -5 -1 -21t-3 -24q-7 -37 -10.5 -79.5t-5 -96t-3.5 -80.5q-4 -86 -8 -127q-4 -37 -35 -37 q-11 0 -27 5q-86 29 -92 110q-11 138 -11 239q0 34 1 64q2 50 4 150.5t4 150.5q13 290 13 670q0 110 -19 158q-4 12 -4 18z" />
<glyph unicode="I" horiz-adv-x="503" d="M0 1622q30 7 57 10q15 2 97 11.5t127 13.5q20 4 63 4q51 -4 78 -33q-24 -22 -79 -28t-75 -19q14 -22 31 -41q23 -26 23 -65v-39q0 -137 -11 -424q-7 -165 -7 -242q0 -31 1 -47q0 -39 -2 -57q-1 -13 -2.5 -37t-2.5 -43.5t-1 -36.5v-23q0 -24 -1 -50q-2 -40 -4 -66 t-6.5 -75t-6.5 -67q-4 -40 -3 -51q0 -11 4 -31t5 -26q12 -8 45 -8t47 -17q5 -5 8 -18q-16 -10 -49 -11.5t-45 -5.5q-2 -3 -8 -16.5t-13 -20t-18 -8.5q-15 -2 -27 -2q-36 0 -53 17q-17 15 -40.5 17t-43.5 -3q-19 -4 -24.5 -1.5t-26.5 21.5q12 9 39.5 15.5t40.5 15.5 q2 23 2.5 27.5t-2 29t-2.5 29.5q-1 13 -5 45.5t-4 50.5q0 401 3 535q0 3 18 541q1 42 1 75q0 66 -5 99q-12 5 -38 10t-47.5 14.5t-37.5 30.5z" />
<glyph unicode="J" horiz-adv-x="593" d="M12 291q11 23 29 20q12 -2 21.5 -10t9.5 -18q0 -28 -6 -52q-5 -31 15.5 -50t49.5 -9q46 18 88 49q37 24 37 72q-1 15 -3 42.5t-3 41.5q0 14 -1 28.5t-2.5 32.5t-2.5 29q-13 223 -17 733q0 62 -10 354q0 11 -6 29q-4 0 -19 1t-19.5 1.5t-18 2.5t-19.5 3.5t-17 4.5t-18 6.5 t-16 9t-16 12.5q-2 2 -4.5 8.5t-2.5 7.5q2 2 6 5q5 4 7 4q119 2 360 2q27 0 37 -4q16 -8 35 -27q8 -10 4 -22t-16 -13q-14 -4 -43 -4h-84q-2 0 -6 -3t-5 -3q1 -2 1 -6.5t1 -5.5q52 -42 52 -131q-1 -154 -1 -297q0 -239 3 -445v-33v-79q-1 -34 -1 -59q0 -34 1 -52v-13 q0 -53 -13 -135q-8 -45 -47 -73q-55 -44 -76 -58q-12 -8 -40 -20q-9 -4 -30 -11.5t-30 -11.5q-32 -17 -58 -17.5t-44 9.5t-37 31q-35 35 -35 77q0 22 10 46z" />
<glyph unicode="K" horiz-adv-x="645" d="M0 240q0 377 2 567q1 59 8 179t8 179q5 159 5 381q0 6 -5 31q-6 42 35 39q19 0 25 -4q93 -36 127 -94q18 -32 18 -60q1 -24 1 -50t-1 -57t0 -48q-1 -56 -3 -167.5t-3 -166.5v-49q3 -1 5.5 -1.5t4.5 -0.5t4 1l3 1.5t3 2.5t2.5 3t2.5 3t2 3q133 159 221 301 q29 45 91.5 121.5t74.5 91.5q22 28 49 16q26 -13 16 -37q-1 -5 -6 -12.5t-6 -9.5q-16 -23 -34.5 -74t-33.5 -74q-7 -7 -10 -16q-19 -36 -42 -71.5t-56 -75t-52 -61.5t-62.5 -69.5t-55.5 -60.5q-24 -25 -26 -57q0 -3 -1 -5q0 -29 14 -59q15 -33 33 -66q20 -34 34 -72 q12 -32 12 -58q0 -6 -1 -11q10 -35 62 -249q6 -21 19.5 -78t27 -98t31.5 -74q1 -3 -3 -4.5t-9.5 -2t-10.5 -3t-4 -7.5q-5 0 -24 -2.5t-21 0.5q-26 13 -43 37q-5 8 -20 53q-58 204 -89 304q-27 94 -96 327l-3 6q-3 7 -5 11q-5 0 -7.5 -2.5t-3 -4.5t-0.5 -7l1 -5 q-3 -50 -8.5 -150.5t-8.5 -150.5q-2 -28 -8 -83t-8 -83q-4 -56 -8 -168v-37q1 -6 1 -12q0 -35 -22 -45q-22 -9 -42 -9q-24 0 -44 13q-37 26 -43 64q-14 96 -14 127z" />
<glyph unicode="L" horiz-adv-x="608" d="M0 115q7 20 37 31.5t39 19.5q-1 8 -2 26t-2 27q-4 41 -15 133.5t-17 162.5t-7 134q0 55 3.5 156t4.5 133q1 98 4 291t4 289q0 21 -8 71q0 6 -4 60q7 0 18 1.5t18.5 1.5t12.5 -3q92 -33 129 -109q12 -25 16 -67q12 -134 12 -289q0 -81 -3 -168q-1 -73 -12.5 -211.5 t-12.5 -155.5q-2 -29 -2 -180q0 -44 1 -132t1 -132q0 -7 4 -19q15 -5 19 -4q22 3 86 8t107 13t83 26q28 12 60 2t51 -38q-3 -2 -9 -8t-10.5 -9t-9.5 -4q-14 -3 -49 -11t-53.5 -11.5t-47.5 -9t-54 -7.5t-50 -2q-21 0 -57 -4q-50 -4 -64 -37q-6 -10 -18.5 -12t-22.5 4 q-32 17 -68 17q-14 0 -30 -3t-42 2.5t-40 16.5z" />
<glyph unicode="M" horiz-adv-x="940" d="M2 1243q8 212 23 336q35 12 53 -6q23 -26 74 -49q19 -8 34 -27q84 -92 185 -256q10 -17 18.5 -36t18.5 -45.5t14 -37.5q5 -12 15.5 -38t17.5 -42q17 38 20 50q37 129 82 202q36 62 66 86q32 28 32 77v9q-4 28 -4 39q0 13 12.5 21.5t24.5 3.5q68 -28 123 -92 q19 -24 19 -56q0 -8 -1 -16q-3 -52 -12 -102q-38 -299 -49 -545q-7 -188 -7 -282q0 -31 1 -52q4 -189 24 -281q8 -38 -20 -55q-12 -8 -18 -6q-5 1 -18 3t-19.5 3.5t-16.5 5t-17.5 9.5t-14.5 14q-40 52 -48 110q-10 73 -14 277q-4 88 -4 179q0 132 8 271q2 51 10.5 144.5 t10.5 126.5q1 15 4 44.5t4 43.5q-7 0 -10 1.5t-7 -1.5t-5 -4t-3.5 -5t-3.5 -5q-65 -102 -96 -224q-9 -35 -23 -67q-11 -38 -39 -45l-4.5 4.5l-4 4t-1.5 3.5q1 19 -5 30t-17.5 23t-18.5 27q-15 40 -30 78q-13 43 -25 59q-25 39 -72 96.5t-71 93.5q-1 1 -6.5 4t-8.5 5 q-10 -25 -10 -27q0 -20 -1.5 -54.5t1.5 -53.5q1 -28 1 -47q-1 -10 -1 -17q0 -22 -2.5 -65t-3.5 -64q0 -5 -0.5 -13t-0.5 -14.5t1 -11.5q11 -156 20 -244q14 -168 29 -288q3 -26 10.5 -108t16 -136t24.5 -105q10 -37 -8.5 -53.5t-56.5 -5.5q-78 22 -99 117q-15 75 -24 157 q-45 362 -51 435q-25 295 -25 449v40z" />
<glyph unicode="N" horiz-adv-x="798" d="M0 859q0 86 2 155t6 137q5 64 16.5 181.5t14.5 152.5q1 12 3 34l3 33q11 5 21.5 6.5t22.5 -1t18.5 -4.5t21 -7.5t18.5 -7.5q59 -23 78 -72q14 -33 45 -98.5t52.5 -118t35.5 -102.5q41 -150 115 -402q10 -41 27 -94q4 -16 20 -24v37q-7 40 -11.5 81t-7.5 91t-4.5 78.5 t-4 91t-3.5 81.5q-2 18 -1.5 35.5t1.5 36.5q0 51 2.5 153.5t2.5 153.5q0 10 -5 93q24 12 27 12q112 -13 158 -96q12 -19 12 -56q-1 -32 -2.5 -91t-3.5 -107t-6 -91q-5 -82 -6 -185q0 -52 2 -109q2 -43 10 -115q1 -16 4 -46t4 -44q3 -45 10.5 -132.5t10.5 -129.5 q1 -9 0 -26.5t0 -25.5q4 -76 8 -114v-27q-26 -20 -53 -20q-28 0 -56 22q-42 28 -51 78q-3 11 -10 36t-10 40q-19 106 -86 327q-34 110 -109 383q-47 163 -98 273q-1 2 -2.5 6.5t-2.5 7t-3 6t-6 5t-9 1.5q-6 -6 -8 -10q-3 -36 -10 -108.5t-10 -108.5q-13 -156 -13 -296 q0 -59 2 -116q5 -176 19 -423q2 -21 22 -134q1 -5 1 -10q0 -34 -36 -41q-11 -2 -22 -2q-38 0 -74 29q-36 33 -51 80q-32 108 -35 235q0 27 -2.5 137t-3 155t-0.5 131z" />
<glyph unicode="O" horiz-adv-x="841" d="M2 838q26 206 31 241q25 160 141 351q6 9 102 155q25 0 33 -4q80 -36 144 -86l7 -7q7 -6 11 -11q97 -121 127 -199q2 -4 23.5 -59.5t31.5 -83.5q51 -136 58 -355v-17q0 -113 -37 -208q-85 -210 -125 -283q-12 -22 -31.5 -43.5t-33 -32t-42.5 -32.5q-4 -4 -14.5 -4 t-13.5 4q-16 18 -64 26q-56 15 -117 62q-123 97 -174 258q-46 133 -55 276q-4 34 -2 52zM156 774q-3 -34 -3 -69q0 -123 42 -246q27 -81 84 -148q50 -56 114 -59q13 0 37.5 -3t30.5 -3q44 66 63 131q8 24 28 81.5t30 88.5q30 104 30 184v10q-1 19 -2 58t-2 59 q-7 186 -65 324q-1 2 -12.5 32t-16.5 46q-32 95 -104 188q-22 -43 -31 -55q-13 -23 -46.5 -77.5t-49.5 -84.5q-60 -109 -82 -178q-38 -110 -45 -279z" />
<glyph unicode="P" horiz-adv-x="704" d="M0 1538v25q1 9 11 15t18 3q38 -16 94 -45q81 -43 84 -127q0 -2 4 -18q10 1 16.5 6t12.5 15t8 13q62 74 143 74h6q54 0 84 -37q39 -49 49 -76q62 -145 62 -286q0 -128 -51 -252q-29 -68 -82 -113q-48 -40 -100 -40q-33 0 -68 16q-11 6 -35.5 14.5t-32.5 11.5 q-1 -5 -3.5 -17t-2.5 -18q0 -17 1 -50.5t1.5 -53.5t2 -48t5.5 -52q4 -21 4 -90q0 -44 1 -132.5t1 -132.5q0 -23 -4 -55q-25 -31 -61 -31q-13 0 -27 4q-34 15 -43 37q-18 41 -22 60q-4 39 -12.5 117.5t-12.5 117.5q-4 46 -11 138.5t-11 138.5q0 16 -2 24q-3 120 -23 766 q0 24 -4 78zM207 1073q3 -89 6 -174q0 -74 2 -113q17 -7 42 -18.5t36 -15.5q20 -9 38 -9q31 0 60 25q48 44 70 102q48 125 48 249q0 119 -44 237q-6 21 -33 61q-14 29 -47 29h-8q-66 -10 -96 -53q-47 -63 -68 -125q-6 -36 -6 -41q-2 -38 -2 -77t2 -77z" />
<glyph unicode="Q" horiz-adv-x="827" d="M4 811q1 19 23 217q4 29 13 86.5t13 85.5q7 68 43 162q38 90 97 223q1 2 16 14q20 -10 56 -30t50 -27q69 -41 72 -119q24 -18 29 -22q86 -68 119 -164q11 -32 31 -99.5t32 -101.5q9 -27 27 -73q44 -127 44 -235q0 -37 -5 -73q-1 -14 -1 -39t-1 -38q-5 -125 -9 -166 q-1 -13 -4 -26t-8 -31t-8 -29q16 -17 50 -57t52 -60q12 -15 34 -43t34 -43l14 -21q11 -23 2 -37t-35 -14q-17 0 -49 4q-3 1 -9 4t-9 4q-75 28 -95.5 44t-62.5 83q-9 12 -18 27q-20 -23 -60 -63q-46 -50 -105 -50q-30 0 -63 13q-107 47 -176 137q-88 111 -119 295 q-16 101 -16 195q0 34 2 67zM201 541q4 -49 24 -138q29 -128 84 -198q19 -27 48 -27q8 0 16 2q73 19 121 78q-17 31 -60 82.5t-63 83.5h57q26 0 49 -9.5t53 -28.5t45 -26q1 4 5.5 17.5t5.5 19.5q14 110 14 140v19q0 130 -39 286q-8 30 -29.5 110.5t-31.5 124.5q-7 24 -18 70 t-13 53q-11 42 -47 78q-32 36 -62 41q-2 -1 -5 -3l-4.5 -3t-2.5 -2q-62 -110 -100 -234q-8 -21 -12 -53q-3 -36 -18 -154.5t-17 -183.5q-2 -48 -2 -84.5t2 -60.5z" />
<glyph unicode="R" horiz-adv-x="870" d="M0 449q0 27 1 58t2.5 69t2.5 59q2 48 5 144.5t5 144.5q2 64 17 387q2 90 26 274q0 4 3 13.5t4 13.5q4 -1 14.5 -1.5t15.5 -2.5q67 -39 97 -84q22 -35 22 -71v-9q-3 -80 -6 -162q8 -1 13 2.5t10 13.5l4 11q56 94 135 153q60 47 122 47q59 0 121 -43q127 -85 134 -258 q0 -9 1 -18q0 -197 -174 -338q-9 -8 -28.5 -24.5t-28.5 -24.5q-80 -67 -164 -86q-22 -5 -59 -11q-23 -4 -32 -6t-16.5 -6t-2 -10t19 -15t39.5 -24q23 -16 34 -34.5t20.5 -47.5t19.5 -47q80 -154 153 -283q8 -15 27 -38t25 -33q5 -6 9.5 -19t6.5 -16q-10 -4 -26 -13 t-26 -13.5t-21 -5t-17 8.5q-49 67 -76 113q-23 45 -141 275q-7 14 -24.5 55.5t-33.5 68.5t-34 41q-3 -1 -5.5 -2t-3 -3.5t-0.5 -4.5v-5.5v-4.5q-21 -125 -21 -219q0 -19 1 -37v-166q0 -15 -1 -42t-1 -42q-1 -5 -3 -15.5t-3 -15.5q-9 -36 -41 -55q-12 -5 -42.5 6.5 t-39.5 24.5q-29 42 -29 76q-1 49 -5 148.5t-5 148.5zM190 786q0 -3 2.5 -9.5t2.5 -10.5q12 -4 27 -4q18 0 38 6q48 12 66 14q52 6 96 43q20 15 53.5 43.5t48.5 40.5q82 70 119 187q15 48 15 95q0 83 -48 159q-11 25 -51 57q-38 29 -76.5 29t-76.5 -29q-43 -30 -60 -49 q-81 -81 -137 -213q-19 -55 -19 -88v-271z" />
<glyph unicode="S" horiz-adv-x="749" d="M2 305q0 28 25 70q16 28 59 90q27 40 74 49q17 3 26.5 -8.5t3.5 -26.5q-4 -8 -24 -39q-5 -8 -26 -37.5t-31 -46.5q-26 -40 -33 -102q-2 -10 -1 -20q-1 -33 17 -62q24 -37 68 -55q8 -3 16 -4.5t14 -2.5t15.5 -1t14.5 -0.5t15.5 1t14.5 2t16 3t14.5 3t15.5 4t15 3.5 q92 22 133 125q39 90 39 189q0 31 -4 63q-5 43 -37 82q-1 1 -7 8.5t-8 9t-7.5 8t-8 9t-7.5 8t-8.5 8t-8.5 6.5t-9.5 7t-9.5 6t-10 5q-161 81 -239 285q-38 93 -38 169q0 12 1 24q4 44 10 69q39 120 66 183q9 19 23.5 39.5t22.5 30t32 35t28 30.5q1 1 29 12q8 3 25 7t24 7 q18 9 37 9q23 0 49 -13q104 -56 150 -137q53 -94 63 -174q2 -25 3 -76q0 -18 -11 -31q-23 -34 -45 -34q-19 0 -37 24q-2 3 -5 8.5t-5 8.5q9 54 13 80t1.5 54t-5 37t-16 47t-22.5 66q-51 -12 -94 -39q-45 -25 -82 -59q-26 -26 -35 -53q-2 -8 -8 -37t-8.5 -40t-6.5 -36 t-4.5 -40.5t-0.5 -36.5t3 -40q26 -182 148 -282q114 -90 164 -146q79 -91 79 -194q0 -33 -8 -66q-3 -19 -13 -50.5t-13 -41.5l-6 -12q-25 -25 -63 -85t-62 -85q-21 -21 -50.5 -35.5t-48 -19t-57.5 -13.5q-15 -4 -72 -4q-33 3 -63 -2q-11 -2 -21 -2q-41 0 -65 33 q-48 60 -86 121q-37 63 -37 151z" />
<glyph unicode="T" horiz-adv-x="802" d="M0 1556q0 6 2 10t4.5 6.5t8 4t7.5 2t10 1.5l7 1q122 10 147 10q34 -1 114.5 -3.5t113.5 -2.5t114 2q33 2 101 7.5t104 7.5q16 2 51 2q17 -3 31 -9q18 -6 29 -21t6 -26q-10 -18 -45 -18q-52 -3 -158 -9.5t-158 -9.5q-3 0 -12.5 -1t-17.5 -1q4 -22 6 -24q29 -43 29 -142 q1 -39 1 -91q0 -104 -3 -257q-3 -283 -21 -489q-4 -47 -8 -134.5t-6 -121.5q0 -47 -4 -72q-9 -47 -60 -47q-38 0 -65.5 21.5t-38.5 58.5q-1 4 -2 12.5t-2 12.5q-1 26 -3 71.5t-3 82.5q0 18 -0.5 36t0.5 35q0 133 8 399q8 338 14 502q0 21 3.5 58t4.5 50v41q-5 1 -17.5 7 t-19.5 6q-18 0 -38.5 -1t-45 -2.5t-38.5 -2.5q-8 0 -32.5 -1.5t-37.5 -0.5q-23 0 -43 10q-2 1 -8 3l-9 3t-7.5 3.5t-6.5 5t-4 6.5t-2 9z" />
<glyph unicode="U" horiz-adv-x="806" d="M0 811q0 276 57 504q9 39 52 180q3 8 10.5 27t12 33.5t5.5 29.5q3 17 16.5 21.5t28.5 -4.5q15 -7 40.5 -22.5t31.5 -18.5q37 -22 59 -68q9 -21 9 -40q0 -17 -7 -34q-55 -116 -73 -245q-13 -86 -23 -203q-11 -120 -14 -271q0 -196 45 -356q1 -3 4.5 -14t3.5 -17 q-1 -24 8.5 -48.5t19 -37.5t29.5 -39q35 -44 85 -52q9 -2 20 -1q41 0 84 29q23 17 92 82q16 14 17 28t-5.5 35.5t-5.5 38.5q4 86 6 152q-1 12 -7 112t-11 152q-3 25 -12.5 74t-12.5 73q-5 27 -9.5 78t-6.5 68q-19 170 -45 364q-1 17 26.5 37.5t47.5 24.5q21 3 36 -7t15 -28 v-15q0 -68 16 -181q18 -126 21 -169q11 -188 41 -311q6 -28 2 -63q-1 -23 -1 -47q0 -63 9 -134q2 -21 2.5 -58.5t1.5 -49.5q0 -51 2 -78v-11q0 -46 -23 -81q-79 -111 -206 -168q-36 -17 -75 -17q-48 0 -100 25q-82 37 -131 100q-124 162 -170 385q-18 88 -18 236z" />
<glyph unicode="V" horiz-adv-x="811" d="M0 1462q0 13 12 29q9 12 25 12.5t24 -12.5q8 -16 20 -29.5t31.5 -30.5t26.5 -24q63 -57 80 -135q14 -60 44 -171t38 -140q11 -41 43.5 -169.5t52.5 -197.5q42 -156 47 -180q4 -35 25 -41q4 4 4 6q14 58 25.5 172.5t23.5 169.5q10 46 25.5 138t25.5 138q43 205 113 437 q3 11 10 22q14 7 40 4t38 -12q23 -16 10 -39q-14 -23 -25.5 -48.5t-21.5 -56t-15.5 -50t-15.5 -58t-14 -53.5q-9 -30 -20 -80q-48 -177 -68 -346q-5 -40 -18 -82q-17 -57 -30.5 -119t-29.5 -144.5t-24 -119.5q-4 -19 -4 -40q0 -26 6 -56q4 -26 -5.5 -36t-37.5 -7 q-34 4 -49 24q-5 8 -21.5 30t-26 36.5t-16.5 29.5q-78 158 -155 429q-14 51 -41.5 152.5t-42.5 152.5q-8 28 -15 61q-15 64 -44 192t-44 191q-6 48 -6 51z" />
<glyph unicode="W" horiz-adv-x="1085" d="M4 1436q-3 10 -3 19q0 25 26 38q43 -23 65 -35.5t54.5 -37.5t54.5 -52q38 -52 47 -90q74 -292 100 -391q9 -37 27.5 -109.5t27.5 -109.5q7 -25 15 -95q6 -40 26 -79q14 14 15 16q14 39 40.5 117.5t41.5 117.5q9 24 9 47q0 28 -13 54q-6 14 -9 31q-2 14 9 22t24 4 q57 -15 117 -65q75 -64 98 -176l47 221q17 103 33 157q18 60 25 105q10 49 34 143q13 51 52 170q12 38 59 129q7 19 45 21t55 -15q-52 -119 -69 -174q-37 -128 -80 -303q-26 -113 -33 -131q-8 -13 -12 -49q-1 -30 -5.5 -65.5t-9.5 -61t-13.5 -66t-12.5 -61.5 q-31 -163 -31 -244v-10q0 -15 -5 -51.5t-3 -57.5q3 -22 -12 -36t-35 -9q-96 14 -129 84q-16 34 -27.5 72t-25 92t-19.5 76q-1 6 -3.5 18t-4.5 19t-5.5 16.5t-8.5 16.5q-17 5 -21 -13q-4 -15 -16 -53t-19 -66t-10 -55q-4 -29 -24 -92q-12 -37 -12 -66q0 -22 7 -40 q7 -21 7 -39q-1 -25 -19 -39.5t-43 -11.5q-79 13 -108 73q-17 33 -21 53q-94 320 -137 482q-24 90 -63 255.5t-56 231.5q-7 30 -24 84.5t-19 63.5z" />
<glyph unicode="X" horiz-adv-x="811" d="M2 303q3 23 12 43q6 11 18.5 33.5t18.5 34.5q14 22 27.5 46.5t24 43t25 49t21 44.5t22.5 49.5t20 44.5t22 50.5t20 46.5q10 23 0 50t-31.5 86.5t-33.5 89.5q-20 55 -39 111t-45.5 142.5t-34.5 112.5q-10 37 -39 115q6 21 37 21q75 -2 150.5 -53.5t91.5 -125.5 q9 -42 22 -84t35 -105t29 -85q24 20 31 27q173 223 229 292q30 37 135 156q1 1 4 4.5t4.5 5t4 5t4 5.5t3.5 5.5t2.5 6t1.5 6t1 6.5t-0.5 7t-1.5 8q3 0 7.5 1t6.5 1q20 -3 36.5 -31t8.5 -42q-14 -23 -35 -47q-49 -58 -92 -107q-155 -176 -272 -344q-13 -20 -35 -59 q8 -25 14 -56.5t14 -56.5q18 -52 105 -317q4 -14 10 -40t10 -40q62 -168 95 -258q-3 -14 -15.5 -22.5t-29.5 -8.5q-73 0 -105 39q-52 75 -65 96q-74 127 -136 297l-28 82q-14 -27 -44 -85t-46 -87q-7 -13 -31 -57t-37 -66q-7 -11 -20.5 -32.5t-21.5 -34.5t-17 -32t-15 -36 q-4 -4 -10.5 -0.5t-18.5 12.5t-16 10q-13 4 -8 27z" />
<glyph unicode="Y" horiz-adv-x="811" d="M2 1239v26q0 85 10 232q1 16 10 46.5t11 41.5q7 17 26 14q3 0 42 7t66 11t32 -1q-76 -77 -91 -246q-3 -35 -3 -69q0 -125 41 -226q54 -130 152 -135h6q70 0 155 70q26 26 26 62v7q-4 54 -4 84q1 57 2 172.5t2 173.5q0 28 9 125q3 0 15 2.5t13 -0.5q99 -33 135 -110 q13 -29 13 -67v-15q-1 -26 -5 -109.5t-5 -109.5v-13q0 -30 2 -96q6 -106 14 -315q10 -195 10 -238q-1 -51 -7 -145.5t-7 -124.5q-1 -3 -2 -9.5t-2 -9.5q-49 -71 -64 -86q-42 -46 -94 -51q-18 -1 -38 -4t-44.5 -7.5t-38.5 -6.5q-18 -3 -36 -3q-67 0 -126 44q-55 44 -116 102 q-10 9 -25 43q-7 11 2 25q4 6 21 12q10 0 14 -12q1 -3 2 -12t2 -13q3 -28 23 -45q14 -11 56 -43.5t66 -50.5q28 -19 59 -19q18 0 38 7q15 6 67 20q72 14 82 94q4 33 4 97q0 45 -4 135q-2 43 -7 129t-7 129q-2 29 -5 87t-5 87q0 3 -7 43q-55 -67 -121 -85q-36 -10 -77 -10 q-34 0 -72 7q-89 20 -145 108q-67 101 -70 244z" />
<glyph unicode="Z" horiz-adv-x="1093" d="M16 68q-15 22 -15 41q0 25 28 43q44 30 88 53q32 15 51 55q35 66 103.5 199t103.5 200q58 104 65 117q-9 17 -37 12q-102 -8 -159 -12q-17 0 -41 12q-2 1 -4 4.5t-5 9t-4 7.5q31 3 116.5 12.5t131.5 12.5q39 3 56 38q8 15 24.5 49t29.5 59t27 48q13 22 103 158 q6 10 21 33t24 38q-22 3 -33 0q-32 -8 -100 -26.5t-105 -26.5q-22 -7 -66 -16t-57 -12q-7 -2 -34.5 -9.5t-44.5 -9.5q-29 -8 -47 -4q-41 3 -99.5 50t-73.5 89q-1 5 -2.5 14.5t-2.5 17.5t-1 15q-3 23 2.5 28.5t30.5 8.5q66 5 78 8q144 32 272 64q38 9 118.5 29.5t123.5 29.5 q15 3 31 3q46 0 106 -25q32 -15 44.5 -35.5t10.5 -54.5q0 -2 -12 -82q-5 -2 -12.5 -7t-11.5 -6q-31 -7 -54 -45q-62 -123 -166 -286q-38 -65 -49 -90l-10 -35q35 -4 55 -6q82 4 129 4q9 0 58 -11q12 -6 12 -14q-5 -14 -12 -14q-22 -1 -66 -6t-67 -6h-6q-23 0 -66 6 q-3 5 -32 1.5t-34 -3.5q-150 -264 -297 -525q3 -2 5 -6q16 4 20 6q171 74 416 95q13 1 34 2.5t38.5 2.5t33.5 2q15 1 29 0q66 0 102 -16q5 -3 10 -3.5t13 0.5t12 1q9 -10 62 -63q13 -17 20 -29q11 -20 3 -37t-30 -20h-24q-31 8 -61 9h-13q-26 0 -61 -3q-43 -4 -58 -4 q-11 -1 -39.5 -1.5t-49 -1.5t-38.5 -5q-123 -25 -180 -41q-76 -22 -162 -66q-14 -7 -51.5 -21t-63 -27.5t-46.5 -31.5q-11 -8 -35 -8q-62 3 -103 64z" />
<glyph unicode="[" horiz-adv-x="919" d="M121 53q-29 42 6 72q12 8 20 12q-6 158 17 291q29 210 41 350q17 244 4 529q-1 5 -2.5 18.5t-2.5 20.5t-4.5 17.5t-9.5 20.5q-38 63 13 107q152 22 489 72q73 -36 107 -99q15 -32 10 -51t-33 -29q-8 -4 -22 -4q-72 -7 -210 -21t-200 -20q-13 -1 -35.5 -6.5t-32.5 -7.5 v-111q-1 -33 -1 -92.5t-1 -108.5t-4 -93q-16 -340 -47 -502q-18 -91 -14 -254q3 -3 5.5 -5t4.5 -3.5t5 -1.5t4.5 -0.5t4.5 0.5t4 1t4.5 1.5t4.5 1.5q166 43 235 51q34 3 70 0q19 -4 102 -8q21 -21 29 -25q6 -6 39 -20q46 -26 65 -58q17 -23 12 -40t-28 -19q-67 -7 -119 20 q-47 22 -104 15q-96 -12 -268 -66q-35 -14 -86 -8q-46 6 -72 53z" />
<glyph unicode="\" horiz-adv-x="1003" d="M-27 1786q3 -1 11.5 -1.5t13.5 -2.5q65 -43 143 -127q81 -91 107 -178q45 -137 55 -166q68 -207 201 -529q102 -258 153 -385q104 -238 146 -346q11 -23 36 -69.5t35 -67.5q27 -52 5 -50l-11 3q-28 9 -45 29q-112 109 -168 235q-26 51 -54.5 114.5t-41 93t-48 117 t-38.5 95.5q-27 67 -131.5 321.5t-159.5 389.5q-29 69 -79.5 197.5t-55.5 142.5q-12 32 -39 98t-35 86z" />
<glyph unicode="]" horiz-adv-x="1705" d="M66 143q5 19 34 29q8 4 23 4q72 7 210.5 21t201.5 20q10 1 32 6.5t35 7.5q0 19 1 56t1 55q2 39 6 140t8 155q10 123 15 178t18 152t29 172q20 91 20 254q-13 15 -34 6q-171 -43 -240 -51q-30 -3 -70 0q-19 4 -102 8q-21 21 -27 24q-7 7 -39 21q-47 26 -63 57 q-16 23 -11 41t29 19q65 7 119 -21q43 -21 105 -14q103 13 268 65q38 14 86 8q46 -5 72 -53q26 -42 -11 -71q-3 -3 -18 -13q0 -163 -25 -291q-33 -188 -49 -350q-26 -253 -20 -528q1 -7 2 -24.5t4 -29.5t10 -24q35 -64 -16 -106q-181 -26 -490 -72q-74 36 -104 98 q-15 32 -10 51z" />
<glyph unicode="^" horiz-adv-x="567" d="M41 1350q5 16 16 34q14 26 42 79.5t42 80.5q85 144 117 193q17 27 41 39q27 13 44.5 9t39.5 -28q2 -2 5.5 -6t6.5 -7t6 -5q22 -22 25 -58q3 -39 16 -88q19 -82 35 -131q7 -27 23.5 -80t23.5 -79q2 -4 0.5 -12t-4.5 -9q-11 -7 -24 2q-33 24 -39 49q-7 29 -23.5 83.5 t-19.5 64.5q-2 9 -10.5 40.5t-14.5 51.5q-12 -8 -22 -19t-14 -17t-12 -22.5t-9 -19.5q-19 -39 -55 -115.5t-54 -115.5q-14 -19 -24 -21q-37 -14 -79 -5t-67 40q-28 35 -12 72z" />
<glyph unicode="_" horiz-adv-x="980" d="M31 154q-4 15 4 49q6 29 37 26q18 -5 55 -2.5t54 4.5t54 8.5t54 8.5q31 4 265 5.5t269 6.5q10 -40 19 -57q1 -2 32 -39q5 -5 13 -17q31 -51 -29 -63q-24 -4 -37 -4q-85 0 -312.5 -10t-285.5 -19q-10 -1 -32 -2t-33 -2q-40 -2 -78.5 27.5t-48.5 79.5z" />
<glyph unicode="`" horiz-adv-x="436" d="M37 1516q-4 15 8 25t27 5q53 -20 96 -63q51 -51 135 -176q20 -33 8 -70q-39 -22 -82 0q-56 33 -94 86q-33 47 -67 109q-17 32 -31 84z" />
<glyph unicode="a" horiz-adv-x="741" d="M16 651q17 61 50 146q37 91 116 149q41 27 82 28l8 -1q80 -3 129 -35q5 -3 14.5 -7t14.5 -7q24 39 24 101q0 9 -1 19q8 1 16 1q37 0 63 -23q59 -45 82 -96q23 -47 23 -95q0 -24 -6 -49q-50 -203 -64 -309q-6 -69 -6 -70q-1 -19 -9.5 -54t-10.5 -44q-1 -7 -4 -19l-5 -20 t-1 -19.5t6 -23.5q39 11 69 41q4 0 30 37.5t66.5 136t63.5 221.5q25 44 37 29q-50 -354 -168 -485q-14 -21 -35 -33q-17 -8 -42 -8q-11 0 -23 1q-41 5 -62 25q-41 41 -53 80q-7 27 -35 92q-5 -5 -34 -29t-44 -38q-23 -23 -69 -45q-25 -12 -49 -12q-30 0 -56 20 q-42 29 -61 63q-72 117 -72 229q0 52 16 103zM92 557q-5 -29 -5 -57q0 -80 40 -148q21 -39 52 -39q12 0 26 6q111 49 166 125q-6 56 -6 82v11q5 60 22 202q2 10 10 33t9 35q1 10 1 18q0 44 -21 67q-18 20 -52 20q-12 0 -27 -3q-6 -1 -16 -6l-12 -6q-66 -27 -111 -102 q-53 -103 -76 -238z" />
<glyph unicode="b" horiz-adv-x="694" d="M2 197q0 232 4 297q14 200 88 675q14 87 27 191v74q4 0 11.5 1t12.5 1t9 -2q135 -69 135 -201q0 -79 -25 -262q-4 -31 -13 -100.5t-13 -106.5q1 0 3 -1t3 -1q2 3 13.5 20.5t16.5 26.5q36 73 129 131q28 18 53 18q31 0 60 -26q104 -97 107 -205q0 -13 1 -41t1 -41 q-5 -65 -9 -78q-52 -173 -112 -258q-63 -87 -168 -108q-8 -1 -15 -1q-38 0 -81 29q-52 47 -66 58q-11 -44 -20 -86q-2 -8 -4.5 -24.5t-4.5 -24.5q-11 -40 -42 -50q-8 -3 -17 -3l-45 20q-39 34 -39 78zM178 381q-3 -26 10 -49q18 -36 58 -50q22 -8 43 -8q18 0 37 5 q60 20 98 77q67 101 106 248q2 7 19 119q0 87 -41 156q-17 28 -36 32.5t-48 -12.5q-67 -36 -100 -98q-7 -15 -34.5 -75.5t-45.5 -92.5q-51 -84 -66 -252z" />
<glyph unicode="c" d="M-16 412q-3 27 -3 54q0 122 70 247q99 171 266 229q30 11 51 12.5t48.5 -11t54.5 -44.5q37 -48 51 -74q6 -11 -6 -17.5t-38.5 -13.5t-60 -18.5t-72 -37.5t-73.5 -64t-65 -104.5t-45 -153.5q-12 -28 -14 -64q-1 -10 0 -20q0 -28 4 -56q6 -40 30 -76.5t62 -58.5 q54 -18 107 -18q19 0 38 2q133 74 176 127q4 8 8 12q1 0 5 4q7 15 12 17q97 138 143 374q24 42 37 29q-54 -355 -166 -481v-2q-36 -52 -99.5 -99.5t-109.5 -54.5q-46 -9 -94 -12q-51 0 -106 24.5t-102 66.5t-77 108t-30 141q-2 10 -2 33z" />
<glyph unicode="d" horiz-adv-x="847" d="M16 526q-3 37 -3 73q0 218 120 378l4 4q49 67 114 77q12 2 24 1q54 0 110 -37q20 -15 29 -21q3 10 20 66q53 186 90 328l6 18q2 6 11.5 30.5t13 35t9.5 30t8.5 37t2.5 35.5q35 -8 80 -47q49 -46 70 -141q2 -10 2 -21q0 -24 -10 -55q-14 -35 -27 -77.5t-21 -73t-21 -81.5 t-19 -75q-5 -20 -20.5 -78.5t-22.5 -89.5q-49 -238 -58 -297q-4 -30 -8 -90q0 -17 -2 -25v-2q0 -35 -2 -51q1 -87 27.5 -150t56.5 -63q39 0 100 78q8 12 13 22q4 5 12 14.5t29 45t40 77t41.5 111.5t36.5 147q25 44 37 29q-37 -279 -127 -430q-4 -7 -11.5 -19.5t-33 -43.5 t-53 -54.5t-69 -43t-83.5 -19.5q-46 0 -79 23.5t-50 63t-24.5 78.5t-9.5 83q-13 -8 -13 -9q-22 -32 -54.5 -44t-58 -10t-67.5 11q-30 4 -67 45q-84 90 -93 207zM88 524q2 -49 41 -121q21 -41 71 -49q11 -2 22 -1q35 0 57 22q13 12 83 76q1 4 3 13.5t2 14.5q6 188 6 193 q2 36 10 102t10 84q6 48 6 51q0 46 -37 78q-8 7 -18 8.5t-16 0.5t-18 -5.5t-15 -5.5q-65 -20 -88 -51q-60 -90 -96 -189q-24 -71 -24 -172q0 -24 1 -49z" />
<glyph unicode="e" d="M-16 412q-3 27 -3 54q0 122 70 247q99 171 266 229q30 11 51 12.5t48.5 -11t54.5 -44.5q37 -48 51 -74q29 -51 29 -102q0 -35 -14 -70q-20 -63 -41 -108q-38 -79 -131 -117q-8 -3 -25 -7t-25 -7q-43 -16 -80 -16q-40 0 -73 18q-12 -28 -14 -64q-1 -10 0 -20q0 -28 4 -56 q6 -40 30 -76.5t62 -58.5q54 -18 107 -18q19 0 38 2q133 74 176 127q4 8 8 12q1 0 5 4q7 15 12 17q97 138 143 374q24 42 37 29q-54 -355 -166 -481v-2q-36 -52 -99.5 -99.5t-109.5 -54.5q-46 -9 -94 -12q-51 0 -106 24.5t-102 66.5t-77 108t-30 141q-2 10 -2 33zM184 481 q11 -8 32 -8q14 0 32 4q27 7 49 15q103 30 139 112q23 53 41 94q8 25 8 47q0 15 -4 29q-22 -7 -26 -10q-11 -7 -36 -22t-39 -24t-33.5 -23t-35.5 -27q-104 -86 -127 -187z" />
<glyph unicode="f" horiz-adv-x="622" d="M8 1141q-1 13 8 20t21 2l18 -6q55 -27 103 -37q22 -4 61 -20q55 -23 80 -72q10 -19 30.5 -55t28.5 -51t15 -41q15 -67 33 -158q2 -12 2 -72q0 -13 -2.5 -41t-2.5 -41q-3 -52 -22 -94q-36 -77 -94 -211q67 -15 115 -15q72 0 102 34q1 2 3 5t3 5q6 12 12 18q87 141 125 348 q25 44 37 29q-38 -268 -117 -412q-7 -24 -26 -43q-21 -30 -49 -55q-49 -45 -103 -45q46 -43 66 -86q76 -145 84 -274q1 -17 1 -33q0 -85 -30 -150q-12 -24 -36 -81t-40 -87q-31 -60 -92 -92q-54 -27 -109 -27q-9 0 -18 1q-25 0 -33 6q-7 5 -30 21.5t-32 23.5t-26 23 t-24.5 29t-14.5 33t-8 42q-1 56 -7 165t-7 163q-1 108 -2 325t-2 326q0 61 -4 172.5t-5 154.5q-1 39 -2 118.5t-2 119.5q-1 20 -4 58t-4 57zM188 1020q2 -11 11 -44.5t10 -51.5q1 -11 6 -99.5t6 -134.5q14 -264 15 -350q0 -7 6 -31q60 104 77 205q17 82 17 155q0 61 -12 117 q-18 86 -82 201q-2 4 -6 8.5t-7.5 7.5t-9.5 7t-8 6q-5 5 -12 7t-11 -3zM193 -610q59 2 91 27.5t54 88.5q2 4 5 12.5t5 12.5q17 57 31 88q27 67 27 147q0 55 -13 117q-4 21 -11 46t-12.5 41t-16.5 45t-15 40q-27 65 -105 68q0 -1 -1 -9t-1 -12q-1 -30 -4 -80.5t-5 -93 t-3 -80.5q0 -16 -2 -52t-2 -52q0 -217 -18 -326q0 -3 -0.5 -6.5t-1.5 -10t-2 -11.5z" />
<glyph unicode="g" horiz-adv-x="763" d="M-27 434q7 122 43 213q56 129 193 201q29 13 58 13q18 0 36 -5q28 -8 88 -31q16 44 19 49q3 9 14 12t18 -3q3 0 7 -4q97 -108 114 -191q12 -58 23 -145q5 -50 15 -150.5t15 -150.5q8 12 13 22q4 5 12 14.5t29 45t40 77t41.5 111.5t36.5 147q25 44 37 29 q-60 -415 -202 -516q0 -3 1 -9t1 -9q11 -125 11 -234q0 -149 -20 -268q-15 -115 -34 -189q-33 -121 -70 -194q-18 -34 -32 -55.5t-40.5 -45t-58.5 -32.5q-13 -3 -35.5 -15t-28.5 -14q-32 -13 -67 -13q-37 0 -76 15q-109 42 -158 135q-18 32 -18 67q0 16 4 32q25 104 66 168 q60 94 131 174v2q24 27 235 338q0 188 -2 282q0 37 -14 49q-3 -3 -9.5 -9t-9.5 -9q-13 -18 -50 -67.5t-56 -77.5q-25 -40 -74 -46q-19 -3 -37 -3q-75 0 -123 59q-86 110 -86 219v12zM39 -692q-7 -28 4.5 -51.5t36.5 -32.5q38 -15 70 -15q30 0 55 13q98 55 133 127 q18 38 43 133q45 161 49 401q0 3 -1 5.5t-2.5 6t-2.5 5.5q-13 -16 -37 -46.5t-29 -37.5q-2 0 -2 -2q-28 -36 -82 -106.5t-81 -106.5q-63 -84 -70 -95q-54 -82 -84 -198zM92 500q-4 -34 -4 -63q0 -56 14 -97q22 -61 62 -84q22 -13 47 -13q20 0 43 9q41 17 70 57q3 4 61 94 q28 43 39 78q6 17 6 35t-6 37v43q-2 41 -10 137q-4 32 -23 37q-29 5 -54 5q-64 0 -106 -32q-119 -96 -139 -243z" />
<glyph unicode="h" horiz-adv-x="763" d="M16 170q0 395 2 592q1 53 21 297q7 70 33 260q6 65 22 184q1 13 12 19t21 0q120 -63 135 -199q2 -19 0 -39.5t-7.5 -50t-6.5 -39.5q-42 -305 -45 -545q-1 -25 0 -54t3 -64t3 -54q2 0 6 -1t6 -1q19 40 60 120t61 120q55 115 88 164q4 6 49 94q3 -3 8.5 -7.5t9 -8t5.5 -7.5 q4 -8 4 -30q-4 -214 -33 -351q-23 -135 -23 -244q0 -20 1 -40q0 -5 1 -20t1 -23q1 -6 2 -18.5t2 -18.5v-4l2 -2q8 -33 26.5 -41.5t41.5 4t45 33.5t44 49q2 5 13 20q6 7 18 23q6 12 10 16q88 138 129 356q24 44 39 29q-55 -352 -161 -477q-73 -102 -119 -137q-37 -28 -66 -28 q-9 0 -18 3q-19 6 -34.5 16t-26 26t-17 27t-11.5 33t-6.5 30.5t-4.5 33t-3 27.5q-2 8 -2 26q-1 11 -1 25q0 57 18 176q7 48 24 138t19 104v26q-20 -20 -21 -24q-42 -75 -63 -125q-47 -112 -113 -281q-3 -8 -8 -45q-8 -86 -8 -133q-3 -64 -47 -86q-14 -10 -37 -33 q-46 8 -68 37.5t-33 77.5q-2 7 -2 45z" />
<glyph unicode="i" horiz-adv-x="536" d="M12 559q5 31 12.5 96t12.5 97t41 233q3 15 16 100q5 1 11 1q27 0 61 -23q94 -76 106 -199q0 -8 -4 -24q-6 -35 -18.5 -104.5t-18.5 -104.5q-7 -39 -14 -103q-1 -17 -4 -48.5t-4 -47.5v-2q-3 -28 -3 -54q0 -70 20 -130q27 -82 63 -82q43 0 100 78q4 6 12 22q4 5 12 14.5 t29.5 45t40.5 77t41.5 111.5t36.5 147q25 44 37 29q-38 -285 -127 -430q-4 -8 -12 -18q-26 -37 -45 -56q-90 -86 -185 -86q-46 0 -82 18t-57.5 48t-33 59t-17.5 62q-33 110 -33 201q0 38 6 73zM117 1249q20 44 61 129q17 34 45 31q103 -7 146 -70q17 -31 -2 -47 q-6 -5 -12.5 -10.5t-10.5 -10t-10 -12t-8.5 -11.5t-8 -13.5t-7.5 -12.5t-8 -14.5t-7 -13.5q-19 -32 -41.5 -40t-60.5 3q-19 5 -41 31q-7 10 -19 32t-16 29z" />
<glyph unicode="j" horiz-adv-x="464" d="M-367 -645q-4 31 -4 57q0 64 21 101q34 62 65 110q113 179 203 275q11 12 30 30.5t22 24.5t11 17.5t8.5 28t1.5 35t1 58.5v9q0 28 4 112q4 168 8 252q0 23 2 68t2 67q1 36 3 108.5t3 108.5q0 19 -4 51q-3 30 33 27q98 -14 152 -117q7 -18 10 -35q4 -45 8 -135h4 q-1 -35 -3 -101t-3 -119q-1 -27 -1 -52.5t1 -48.5q0 -95 -2 -142q108 93 158 170q81 129 122 344q25 44 37 29q-38 -264 -114 -407q-13 -33 -47 -72q-8 -11 -29 -27q-46 -44 -131 -106q0 -15 -2 -21q-2 -19 -17 -145q-27 -225 -30 -242q-14 -88 -39 -147q-9 -24 -23.5 -72 t-17.5 -57q-7 -24 -41 -78q-29 -42 -80 -51q-16 -4 -32.5 -9.5t-37 -13.5t-32.5 -12q-33 -11 -62 -11q-58 0 -98 44q-41 41 -52 63q-6 15 -8 31zM-338.5 -592.5q-0.5 -15.5 2 -27t6.5 -29t6 -27.5q2 -27 31 -45q22 -15 49 -15q23 0 49 11q14 7 38.5 22.5t33.5 20.5 q36 21 55 68q29 63 43 153q4 27 7 58t4.5 53t2.5 60t1 53v60.5v55.5q0 7 -6 31q-33 -37 -80 -88q-5 -6 -23 -28t-24.5 -30t-21.5 -27t-23.5 -31.5t-19.5 -30t-19 -33.5q-13 -27 -41 -72.5t-37 -61.5q-16 -37 -27 -71q-6 -14 -6.5 -29.5zM14 1145v12q22 86 74 115q13 7 25 7 q20 0 39 -17q59 -55 61 -109q-14 -65 -20 -80q-13 -33 -50 -33q-46 0 -84 30.5t-45 74.5z" />
<glyph unicode="k" horiz-adv-x="858" d="M-2 260q-2 39 -2 80q0 133 20 287q18 163 35 274q27 199 47 318q12 66 37.5 196t38.5 195q4 26 8 78q3 0 9.5 0.5t10.5 0.5t7 -1q92 -42 131 -119q19 -40 19 -81q0 -21 -5 -42q-16 -68 -41 -195t-32 -159q-2 -6 2 -35q13 9 51 47q62 62 168 90q13 3 25 3q42 0 77 -32 q67 -64 67 -145q0 -17 -3 -35q-27 -158 -142 -276q-63 -68 -178 -78q-5 -1 -6.5 -3.5t-1 -5t-1.5 -5t-9 -3.5v-39q5 -17 17.5 -51.5t17.5 -52.5q16 -52 24 -100q19 -106 90 -174q34 -26 73 -27q5 0 10 1q45 4 86 27t73 60q0 1 1 3t1 3q6 5 14 17q1 5 11 14q93 140 135 364 q25 44 37 29q-33 -253 -113 -403q-7 -21 -27 -47h-2q-28 -45 -61 -68q0 2 -2 2q-47 -40 -95 -60q-31 -13 -68 -14q-21 0 -43 4q-62 12 -114 70q-7 5 -16 18q-73 131 -86 199q-5 26 -24.5 99t-24.5 114q-1 4 -2.5 8t-4.5 9.5t-4 9.5q-13 -13 -14 -15q-2 -15 -6 -42.5t-7 -50 t-5 -42.5q-2 -14 -17.5 -97.5t-15.5 -129.5q0 -13 -8 -25q-21 -27 -21 -59q0 -15 -12 -35q-17 -37 -40 -37q-17 0 -38 21q-11 11 -24 37q-24 53 -27 106zM227 686q12 -2 25.5 -2.5t22.5 -0.5t24 2.5t20.5 3.5t22.5 6.5t19.5 6.5t21.5 8t20 7q22 11 29 18q118 115 152 277 q2 8 2 17q0 20 -8 48q-7 30 -37 33q-12 2 -35 2q-66 -10 -91 -25q-8 -5 -16 -12q-7 -6 -25 -21.5t-26.5 -24t-18 -25t-10.5 -35.5q0 -3 -3.5 -9t-4.5 -8q-19 -38 -47 -84q-16 -26 -24.5 -60.5t-10 -54t-2.5 -67.5z" />
<glyph unicode="l" horiz-adv-x="509" d="M2 326v28v4v80q5 137 33 332q7 55 51 291q6 35 17.5 104.5t17.5 104.5q9 50 26 141t23 125q3 20 6 60t4 51q4 0 12 1t13.5 1t9.5 -2q107 -53 141 -152q8 -23 8 -46q0 -12 -2 -24q-25 -149 -34 -215q-4 -24 -43 -292q-7 -41 -23.5 -128t-23.5 -133q-14 -73 -27 -157 q-4 -37 -10.5 -112t-10.5 -112v-2q10 -50 29.5 -80t40.5 -30q41 0 102 78q3 8 13 22q4 5 11.5 14.5t28.5 45t40 77t41 111.5t36 147q24 44 39 29q-45 -293 -129 -430q-4 -7 -11.5 -19.5t-32 -43.5t-51.5 -54.5t-68.5 -43t-83.5 -19.5q-56 0 -96.5 28.5t-58.5 69t-27.5 81 t-10.5 69.5z" />
<glyph unicode="m" horiz-adv-x="1054" d="M-47 188q-1 10 -1 22q0 69 21 189q41 212 90 455q9 46 28 138t28 138q2 8 7 16.5t11 8.5q19 4 33 -10q14 -12 37 -36.5t26 -27.5q52 -58 52 -122q0 -18 -4 -37q-40 -178 -72 -332q-4 -24 -11.5 -74t-11.5 -74q-4 -46 -6 -82q3 3 11 9.5t10 9.5q73 125 131 221 q11 19 32 56t33 55q8 11 92 139q11 13 36 28.5t38 10.5q26 -10 23 -47q-3 -56 -38 -166.5t-42 -143.5q-4 -22 -8 -63q-6 -49 -9 -98q18 15 19 16q107 207 166 297q13 22 16 29q3 11 8.5 22.5t10 18.5t12.5 19l12 18q7 9 15.5 34.5t19 63.5t10.5 39q1 2 5 6t5 6q19 3 27 -16 q15 -58 16 -68q2 -28 2 -59q0 -69 -12 -154q-6 -48 -6 -51q0 -47 -8 -107t-26.5 -157.5t-20.5 -106.5q-3 -28 -3 -49q0 -60 25 -60q4 0 8 1q39 12 123 139q1 2 3.5 6t3.5 6q4 5 12 14.5t29 45t40 77t41.5 111.5t36.5 147q25 44 37 29q-50 -332 -149 -463q-5 -9 -14 -24.5 t-34 -54.5t-47.5 -69.5t-48.5 -55t-43 -25.5h-3q-27 0 -51 32q-24 34 -37 83q-11 44 -11 85v7q-4 34 -4 72q0 48 6 102q4 41 12.5 122t12.5 122v28q-4 -4 -8.5 -7.5t-7 -5t-3.5 -3.5q-6 -11 -28.5 -51t-32.5 -64q-43 -93 -103 -242q-12 -28 -20 -40q-70 -106 -78 -148 q0 -4 -6.5 -10t-9.5 -6q-18 4 -27 16q-4 6 -4 25q0 10 -0.5 43t0 49t2.5 41.5t6 46.5q8 36 8 57q2 36 12.5 86.5t18.5 80t28 97t23 76.5q7 20 10 43q-73 -62 -114 -162q-31 -77 -74 -143q-14 -23 -37.5 -64.5t-32.5 -56.5q-42 -71 -77 -104q-23 -23 -29 -49 q-13 -57 -72 -113h-5q-56 0 -77 65q-10 27 -14 82z" />
<glyph unicode="n" horiz-adv-x="858" d="M26 566v23q0 33 2 57q2 33 4 89.5t3 83.5q0 8 12 139q2 13 6 38.5t6 39.5q3 15 16 21.5t27 -0.5q2 -1 6.5 -3t6.5 -3q7 -8 23 -26t25 -28.5t21.5 -26.5t21 -31.5t15.5 -31.5q12 -33 12 -66q0 -14 -2 -28q-16 -91 -18 -133q0 -34 -6 -142q-4 -76 -4 -125q1 -21 1 -37 q2 -55 19 -73q10 34 67.5 193t113.5 305q55 145 59 145q41 0 67 -37q20 -30 21 -69q2 -95 22 -358t33 -302q3 -19 15 -19q23 0 78 70l24 33q4 5 11.5 14.5t29 45t40.5 77t41.5 111.5t37.5 147q24 42 37 29q-50 -331 -152 -463q-5 -9 -13.5 -24.5t-33.5 -54.5t-47 -69.5 t-48 -55t-44 -25.5q-12 -12 -33 8q-4 3 -8 7t-7 9.5t-5.5 10t-5 13.5t-4 14t-4 15.5t-3.5 15.5t-3 18t-3 18q-4 12 -4 16q-26 135 -29 250q0 29 -10 187q-1 17 -3 53t-3 53q-6 0 -8.5 1.5t-5.5 -2t-3.5 -4.5t-3 -5.5t-2.5 -5.5q-12 -36 -140 -346t-134 -330 q-25 -23 -53.5 -19t-43.5 35q-30 62 -30 117q0 52 -1 157t-1 158v39q-5 40 -5 87z" />
<glyph unicode="o" horiz-adv-x="716" d="M-18 266q-12 61 -12 126q0 107 32 226q14 56 55 160q65 174 211 305q43 -5 72 -69q13 -32 13 -71q0 -24 -5 -52q55 -39 107 -119q31 -54 45 -141q4 -37 8 -107q2 -8 2 -24h2q29 -1 63 7t69 25t62 48.5t37 72.5q5 20 13.5 23t14.5 -6t5 -17q-6 -34 -23 -66.5t-47 -63.5 t-80 -49q-48 -17 -107 -17h-7h-2q-6 -159 -119 -305q-27 -32 -29 -37q-20 -52 -79 -62q-22 -4 -62.5 -13.5t-46.5 -10.5q-19 -5 -35 -5q-60 0 -96 62q-45 80 -61 180zM105 197.5q1 -17.5 4 -33.5q56 -24 107 -25q36 0 69 13q33 11 47 38l55 107q29 66 33 166l-12 1 q-11 2 -22.5 4t-28 6.5t-30 10.5t-26 16t-18.5 23q-37 105 -47 131q-9 27 -13 41q-2 -1 -5 -3l-4.5 -3t-2.5 -2q-8 -16 -12 -26q-45 -103 -80 -306q-6 -26 -10 -73q0 -7 -1.5 -27t-2.5 -30.5t0 -28zM256 731q11 -59 35 -121q32 -83 92 -86q9 0 33 -6q1 18 1 35 q0 146 -69 256q-16 27 -51 41q-44 -44 -44 -94q0 -12 3 -25z" />
<glyph unicode="p" horiz-adv-x="681" d="M-35 -401q0 268 2 321q2 47 10.5 131.5t10.5 112.5q12 114 14 174q3 170 25 358q11 90 26 244q2 23 2 70q0 9 9.5 16t17.5 4q59 -23 80 -53q46 -62 46 -148q0 -28 -5 -59q-7 -38 -7 -72q0 -22 3 -43q17 22 49 66t49 65q32 41 88 101q38 40 79 40q45 0 95 -46q2 -2 12 -17 q18 -33 28 -54t21.5 -55t11 -58t-4.5 -62q-6 -18 -6 -33v-7q0 -35 -9 -75q-10 -43 -20.5 -70.5t-30.5 -74.5q-45 -108 -176 -182q-33 -19 -65 -19q-23 0 -46 10q-18 8 -54.5 26.5t-57.5 27.5q-6 -28 -10.5 -60.5t-8 -72.5t-6.5 -60q-4 -28 -7 -60.5t-6 -71.5t-5 -60 q-3 -32 -12.5 -98t-12.5 -101q-12 -130 -24 -189q-20 -3 -35 -3q-19 0 -29 6q-18 9 -29 49q-12 54 -12 82zM170 313q10 -12 25 -22t23.5 -14t31 -11.5t26.5 -9.5q10 -5 25 2q34 14 37 16q110 88 143 181q34 86 41 211q1 10 1 20q0 49 -25 100q-15 32 -40.5 38t-56.5 -17 q-5 -3 -10 -12q-57 -54 -92 -111q-13 -19 -26 -42t-29 -52t-25 -45q-10 -17 -18 -38t-12.5 -35t-8 -41.5t-4.5 -36.5t-3.5 -42.5t-2.5 -38.5z" />
<glyph unicode="q" horiz-adv-x="755" d="M-14 356q-9 52 -9 102q0 182 117 333q29 35 92 98q24 24 58 41q25 14 48 14q14 0 26 -5q34 -14 53 -60q1 -3 -2 -17q-8 1 -15 1q-42 0 -77 -20q-41 -23 -84 -67q-74 -79 -74 -80q-63 -81 -84 -227q-6 -53 -6 -109v-6q0 -46 47 -71q34 -17 63 -17q31 0 58 19 q137 88 155 225q9 78 33 222t29 177q9 49 14 70q6 19 20.5 22t28.5 -14q15 -15 23 -31q56 -81 56 -175q0 -10 -1 -19q-1 -13 -3 -40.5t-3 -41.5q-6 -63 -17.5 -189t-17.5 -190q-5 -47 -15.5 -140.5t-15.5 -140.5q-2 -13 1 -12q1 0 40 80q42 85 88 162q6 6 9 14q4 5 12 14.5 t29 45t40 77t41.5 111.5t36.5 147q25 44 37 29q-38 -287 -127 -432q-2 -3 -5 -9t-5 -9q-10 -21 -30.5 -61.5t-35.5 -73t-26 -62.5q-30 -75 -94 -254q-34 -99 -41 -227q0 -39 -4 -121q0 -35 -19 -94q-14 -6 -29 -6q-22 0 -45 12q-43 25 -67 73q-17 35 -17 70q0 14 2 27 q11 58 11 160q0 294 28 552q1 19 13 99q-43 -37 -52 -43q-46 -37 -67 -47q-30 -16 -66 -16q-20 0 -41 5q-96 23 -114 125z" />
<glyph unicode="r" horiz-adv-x="604" d="M-94 997q-8 25 -8 48q0 49 34 92q11 18 51 18q23 0 54 -6q42 -9 45 -53t6 -84q0 -7 -1 -21.5t-1 -21.5q0 -15 -4 -109q29 -4 51 2q33 10 60 25q21 13 58 38t48 33q21 15 37 60q10 26 30 26q11 0 25 -8q30 -18 39 -51q16 -57 16 -105q0 -42 -12 -77q-16 -45 -45 -133 t-43 -129q-53 -157 -70 -203q-12 -34 -16 -60.5t-2 -43.5t10.5 -28.5t16 -17.5t22.5 -8.5t22 -3t21 -0.5q36 0 82.5 47.5t61.5 73.5q92 134 135 362q25 44 37 29q-37 -279 -127 -430q-5 -6 -11 -14q-22 -36 -49 -60q-90 -86 -184 -86q-41 0 -74.5 15t-54 37.5t-35 52.5 t-21 54.5t-10.5 49.5q-4 31 -2 47v17q18 115 45 186q66 177 119 299q1 3 1 12.5t1 16.5q-6 -4 -14.5 -8.5t-13.5 -7.5t-9 -7q-8 -7 -16 -12t-18 -9t-16.5 -6.5t-19.5 -6t-18 -5.5q-32 -10 -61 -4q-7 -73 -17 -131q-4 -36 -23 -49q-13 -9 -14 7q0 5 1 13q16 79 22 168 q-31 12 -67 43t-46 56q-22 46 -28 71zM-4 1028q-2 -15 2 -20q7 -51 20 -90q14 -34 33 -48v68q0 27 2 31q0 86 -2 129q0 2 -6 14q-23 0 -37 -31q-1 -3 -5 -17.5t-4.5 -17.5t-2.5 -18z" />
<glyph unicode="s" horiz-adv-x="591" d="M-45 68q7 78 45.5 133t89.5 79t109 34q42 7 77 6h24q44 -4 69 -13q-3 9 -26 79t-43.5 130t-27.5 76q-5 13 -33.5 57t-77 118.5t-77.5 119.5q-7 -94 -21 -199q-6 -38 -26 -50q-13 -7 -13 11q0 4 1 10q25 122 28 277q-66 99 -69 127q-6 20 2 47q10 30 29.5 54.5t51 44 t54.5 31t63 28.5q27 12 57 12q11 0 23 -2q24 -4 76 -54q43 -41 43 -61q0 -4 -2 -8l-6.5 -6.5t-11.5 -10.5t-15 -12t-14.5 -9.5t-13.5 -4t-9 5.5q-27 51 -96 75q-33 12 -58 12q-28 0 -47 -15q-21 -16 -21 -46q0 -32 24 -79q9 -16 29.5 -46.5t29.5 -47.5q15 -28 97 -165.5 t150.5 -262t78.5 -172.5q4 -11 8 -37q75 134 110 325q25 44 37 29q-45 -318 -143 -455q-3 -59 -29 -112q-4 -9 -80 -129q-3 -7 -10 -10q-109 -79 -216 -79q-31 0 -62 7q-57 12 -101 56t-57 102zM-14 47q3 -5 9 -15.5t9 -15.5q54 -75 137 -78h7q79 0 133 68q8 10 26 41 q8 16 15 29t11 20t7.5 11.5t5 8.5t3 6t2.5 9t2 12.5t3 21t4 30.5q1 3 1 6q0 31 -54 47q-32 9 -67 9q-47 0 -99 -16q-114 -37 -145 -129q-10 -30 -10 -65z" />
<glyph unicode="t" horiz-adv-x="555" d="M-145 1315q30 27 92 30.5t82 10.5q8 26 10.5 80.5t3.5 66.5q4 24 14 160q2 20 6.5 73.5t6.5 84.5q4 0 11.5 0.5t12.5 1t11 -0.5t10 -3q87 -45 129 -113q24 -43 24 -87q0 -12 -2 -24q-4 -34 -14 -204q0 -4 1 -13t1 -14q17 -5 32.5 -5.5t40 2.5t29.5 3l111 6q65 8 100 10 q18 -35 -8 -47q-33 -13 -67 -16q-33 -3 -99.5 -7t-99.5 -7q-8 0 -24 -3t-21 -4q-4 -32 -4 -41q-4 -210 -23 -352q-3 -34 -3 -74q0 -24 1 -49q0 -40 1 -85t2.5 -100t2.5 -85v-72v-8q0 -10 4.5 -37t15 -64.5t33 -63t52.5 -19.5q95 17 151 114q66 132 99 299q23 42 36 29 q-38 -250 -106 -393q-7 -16 -16 -29q0 -2 -2 -2q-16 -31 -46 -61q-64 -86 -139 -86q-35 0 -80.5 22t-88.5 60t-73.5 100.5t-31.5 132.5q-3 44 -6 84q-6 205 -9 412q0 57 3 164t4 133q0 8 1 28t1 33q-10 1 -69 1.5t-87 12.5q-2 1 -7 6.5t-9 8.5z" />
<glyph unicode="u" horiz-adv-x="911" d="M25 674v24q0 100 28 277q2 14 15 35q7 10 18 6q9 0 14 -10q1 -9 26 -36.5t24 -35.5q-7 -58 -15 -107q-14 -59 -14 -153q1 -54 42 -148q51 -118 101 -121q24 -2 45 29q15 22 28 46.5t31.5 62.5t24.5 49q6 12 6 45q9 174 15 344q0 11 -1 35t-1 37q-1 10 6.5 17t17.5 7 q15 0 19 -4q73 -35 110 -80q46 -58 49 -133q3 -106 3 -207q0 -134 -5 -258q-1 -19 0 -41t3 -49.5t3 -42.5v-14q18 -76 68 -76q19 0 37.5 10.5t28.5 22t26 33t23 28.5q94 145 135 363q23 44 37 30q-60 -414 -203 -518q-37 -23 -84 -23h-16q-57 4 -115 37t-86 78 q-38 51 -43 101q-3 27 -10 82.5t-10 83.5q-5 0 -13 4q-5 -8 -15.5 -25.5t-15.5 -25.5q-4 -6 -13 -21t-15 -22q-34 -40 -77 -46l-14 -2q-36 0 -71 27q-138 111 -147 285z" />
<glyph unicode="v" horiz-adv-x="702" d="M-22 971q0 9 -1 17q0 49 3 59l14 -1q15 -1 30 -2.5t36.5 -5.5t41 -11.5t38 -18.5t31.5 -28t19 -38q8 -32 18.5 -159t14.5 -150q2 -16 6.5 -45.5t6.5 -44.5q7 -42 22.5 -126t22.5 -126v-47q4 -50 4 -76q18 -12 35 -11q20 0 38 17q75 75 91 131q3 10 10 31.5t9 28t6 21.5 t5.5 28t3.5 32q-8 12 -10 13q-17 3 -20 8q-57 28 -97 96q-15 25 -33.5 99t-21.5 83q-17 40 -17 83q0 48 21 100q9 32 45 45q14 5 28 5q19 0 34 -11q78 -56 92 -121q3 -11 13 -42.5t13 -49.5q4 -15 5 -45.5t1 -65.5t1 -47q0 -38 -7 -92q67 9 125 47.5t74 107.5 q4 20 12.5 22.5t15 -6t5.5 -16.5q-5 -32 -20.5 -64t-42.5 -62t-72.5 -50t-102.5 -24q-2 -7 -5 -23.5t-5 -23.5q0 -1 -6 -32.5t-8 -40.5t-8.5 -38t-11.5 -44.5t-13 -39t-17 -42t-20 -34.5q-28 -31 -82 -41q-17 -3 -32 -3q-33 0 -58 14q-77 43 -111 102q-49 87 -104 254 q-26 78 -41 209q-6 45 -22 225q-2 5 -2 70zM358 805q2 -70 19.5 -146t50.5 -122q17 -22 40 -22q8 0 17 3q0 60 -2 72q-2 19 -6 100t-10 111q-3 27 -12 47q-13 45 -58 63q-23 -32 -26 -39q-13 -43 -13 -67z" />
<glyph unicode="w" horiz-adv-x="1017" d="M-23 866q0 7 3 19q3 0 15 1.5t19 0.5q13 -2 39 -19q61 -35 113 -94q35 -38 47 -84q21 -97 25 -112q26 -121 51 -226q10 -45 47 -186q2 -8 7.5 -25.5t8.5 -29.5q5 4 14.5 9.5t12.5 8.5q47 69 63 139q11 33 13 37q14 37 14 73q0 46 -23 91q-32 61 -32 129q0 42 12 86 q10 28 25 51q14 22 37 23t38 -19q29 -37 30 -68q0 -4 -1 -7q-2 -26 -5 -77t-5 -77q-1 -13 -3 -27.5t-6 -34.5t-6 -34q15 -24 48 -72q22 -29 39.5 -32.5t48.5 16.5q33 21 59 56.5t35 74.5q2 11 -9.5 27.5t-31 42t-39.5 61.5t-36 97t-19 136q-5 17 -5 34q0 25 11 50 q14 32 45 29q55 -8 80 -35q52 -59 55 -119q4 -66 16 -192q4 -18 2 -27q-4 -28 -4 -59q42 2 84.5 16.5t82.5 51t52 89.5q5 20 13.5 22.5t14.5 -6t5 -16.5q-5 -34 -21 -66t-45 -63.5t-78 -50.5t-112 -20q-16 -131 -123 -201q-22 -11 -44 -11q-32 0 -66 23q-8 5 -17 13 t-19 17.5t-15 14.5q-6 6 -15.5 18t-11.5 15q-15 -30 -18 -39q-17 -80 -50 -137q-4 -8 -7 -18.5t-6 -23t-5 -19.5q-11 -52 -35 -82q-24 -24 -51 -15q-71 30 -117 88q-20 28 -47 76q-84 146 -137 400q-7 32 -16.5 91.5t-19.5 107.5t-24 89zM474 587q-2 -17 3 -42.5t6 -36.5 q19 34 20.5 57.5t-11.5 55.5q-16 -17 -18 -34zM674 807q4 -66 19 -123.5t34 -92.5t33.5 -55t23.5 -26q3 24 3 54q-1 54 -9 128q-12 116 -35 156q-9 4 -22.5 15t-23.5 16.5t-19 1.5q-18 -7 -18 -28q0 -18 14 -46z" />
<glyph unicode="x" horiz-adv-x="980" d="M21 647q0 5 2 12q21 132 24 256v7q0 40 -18 145l-2 2q-2 6 -2 14v2q4 22 24 19q27 0 57 -10q82 -40 113 -62q30 -20 70 -74q37 -48 94 -131q25 20 54 63.5t40 55.5q8 10 43 52t55 65q17 19 51.5 55.5t51.5 55.5q3 -1 16 -8t21 -11q-24 -40 -72 -78q-81 -68 -160 -215 q-15 -31 -59 -98q40 -67 51 -84q27 -40 81.5 -120t82.5 -120q10 -15 30.5 -44t26.5 -38l1 -2q75 -91 127 -91h2q20 0 34 16q0 1 3.5 5.5t4.5 8.5q5 5 15 20q83 132 123 344q11 20 20.5 28t15.5 1q-38 -265 -114 -409q-1 -2 -4 -7.5t-4 -7.5q-2 -2 -2 -4q-3 0 -3 -4 q-23 -36 -38 -54.5t-36.5 -33t-47 -13.5t-60.5 15q-91 39 -160 111q-25 22 -43 49l-18 24q0 4 -4 4q0 2 -2 4q-27 38 -80.5 115t-79.5 115q-1 3 -3 5t-6 5t-7 6q-12 -12 -21 -24q-30 -53 -84 -152.5t-73 -134.5q-30 -46 -70 -51q-2 8 -2 16q0 25 14 57q40 102 135 250 q10 19 32.5 51.5t27.5 41.5q-3 17 -4 18q-77 120 -195 295q-6 -17 -10 -68v-28l-2 -2q-3 -76 -19 -189q-6 -38 -26 -50q-12 -7 -12 9z" />
<glyph unicode="y" horiz-adv-x="735" d="M-115 -547q-2 12 -2 25q0 22 6 45q26 94 82 158q169 203 348 352q14 12 76 69q-3 120 -14 217q-8 1 -14.5 -1.5t-9.5 -5.5t-8 -9t-7 -8q-52 -46 -103 -46q-54 0 -106 54q-31 31 -41 49q-22 46 -36 84.5t-24 83.5q-10 40 -10 82v8q1 45 13 90q10 46 31 111q2 7 20 37 q13 3 21 -3t6 -18q-1 -8 -14 -56.5t-22 -113.5q-6 -45 -6 -95q0 -23 1 -46q22 -70 41 -115q20 -45 45 -77q25 -34 58 -38h8q29 0 57 23q11 8 22 23q10 12 28.5 35t28.5 34q21 30 21 68v256q0 17 -10 125q4 1 11.5 3t13.5 3t10 0q77 -24 127.5 -83t50.5 -130v-13 q0 -66 8 -255q4 -78 4 -117q1 1 2 3t2 3q4 5 11.5 14.5t29 45t40.5 77t41.5 111.5t37.5 147q24 42 37 29q-60 -404 -197 -510q10 -158 12 -188q3 -33 3 -68q0 -115 -33 -252q-14 -63 -50 -102q-9 -11 -22.5 -33.5t-15.5 -26.5q-6 -8 -18 -21.5t-15 -16.5q-4 -4 -12 -11.5 t-14.5 -14t-10.5 -11.5q-26 -33 -57 -49q-13 -5 -39 -23q-90 -61 -199 -61q-56 0 -117 16q-116 31 -127 137zM-76 -465q-10 -27 -10 -51q0 -40 25 -74q27 -36 60 -36q5 0 9 1q134 22 199 80q134 116 164 254q27 125 27 267q0 26 -1 53q0 2 -40 -38.5t-89.5 -91t-52.5 -53.5 q-53 -59 -106 -112q-20 -23 -64 -53q-94 -72 -121 -146z" />
<glyph unicode="z" horiz-adv-x="763" d="M-14 -377q-10 26 -10 53q0 32 14 66q32 84 78 147q134 197 315 338q10 8 29 27q-6 25 -20.5 51t-25.5 40.5t-34 42t-31 36.5q-8 1 -15.5 -0.5t-11 -4.5t-10.5 -8.5t-10 -7.5q-15 -14 -33 -14q-15 0 -31 10q-35 19 -55 62q-9 18 -9 35q0 31 32 55q117 85 153 115 q39 32 133 122q49 49 64 117q2 13 2 24q0 62 -70 72q-9 1 -19 1q-34 0 -69 -17q-14 -7 -26 -10q-1 -1 -4.5 -3t-4.5 -3q-39 -26 -63 -44t-60 -54t-60.5 -74t-50 -98.5t-42.5 -133.5l-3 -3t-7 -6.5t-9 -7.5t-8.5 -4.5t-7 1.5t-2.5 12t4 25q1 4 6 27t8.5 37t12 42.5t17 49.5 t23.5 50.5t31.5 54t40 51.5t50.5 50q1 1 4 3t4 3q10 10 12 11l2 2q42 30 66 41q2 2 8 5.5t8 4.5q42 29 103 29q12 0 26 -1q78 -6 119 -75q7 -9 12 -37q3 -31 10.5 -95.5t10.5 -95.5q3 -26 -11 -49q-35 -60 -65 -86q-60 -51 -119 -104q30 -24 57 -52.5t61 -69t48 -56.5 q25 -27 55 -78q3 6 15 26q4 5 12 14.5t30 45t41.5 77t43 111t38.5 146.5q23 42 37 28q-64 -385 -190 -499q28 -63 51 -140q5 -53 5 -102q0 -175 -70 -291q-8 -14 -27 -25q-23 -15 -46 -32.5t-54 -43t-43 -34.5q-67 -55 -157 -55h-9q-74 2 -170 34q-87 29 -129 119zM37 -289 q-5 -19 -5 -38q0 -35 17 -74q19 -40 57 -48q30 -7 56 -7q74 0 123 53q66 73 137 208q1 3 3 9.5t3 9.5q29 132 29 207v10q0 99 -27 154q-42 -28 -49 -35q-179 -158 -272 -305q-49 -71 -72 -144z" />
<glyph unicode="{" horiz-adv-x="684" d="M25 811q58 35 71 41q83 44 113 135q7 23 11 47t6 55t3 48.5t1.5 56.5t0.5 51q1 20 2 105.5t3 130.5q0 42 24 92q29 50 88 45h33q41 3 74 -39q-1 -3 -5 -11.5t-5.5 -15.5t-0.5 -14q0 -41 -45 -47q-36 -5 -32 -64q2 -29 8 -87t8 -87q1 -37 4.5 -109.5t4 -108t-2.5 -105.5 q-6 -88 -65 -150q-5 -7 -14 -12.5t-24.5 -12.5t-21.5 -10q-1 -8 11.5 -19.5t15.5 -16.5q42 -55 26 -103q-10 -49 -43 -225l-12 -63t-12 -62q-12 -74 -27 -147q-3 -28 15 -58q18 -11 34.5 -12.5t28 3t27.5 10.5t28 7q3 -46 -27 -72.5t-73 -15.5q-21 6 -45 23q-90 65 -113 166 q-26 114 -4 223q10 50 32 149.5t32 149.5q1 5 2 18.5t2 20.5q-75 13 -99 29.5t-38 60.5z" />
<glyph unicode="|" horiz-adv-x="458" d="M153.5 340.5q-0.5 36.5 0 112.5t0.5 98v711q0 1 6 340v184q3 -1 11 -1.5t13 -2.5q43 -38 90 -127q44 -91 33 -178q-10 -138 -12 -166q-16 -221 -16 -529q-5 -323 -5 -385q4 -232 2 -346q2 -20 8.5 -66t8.5 -71q2 -19 -1 -32t-9.5 -17t-16.5 2q-25 10 -33 29 q-65 106 -71 235q-4 51 -6 112t-2.5 97.5z" />
<glyph unicode="}" horiz-adv-x="550" d="M25 -2q11 33 10 41q0 41 45 47q37 5 33 64q-2 28 -8.5 87t-8.5 87q-1 37 -4.5 109.5t-4 108t2.5 105.5q6 86 66 150q5 7 14 12.5t23.5 12t21.5 9.5q1 8 -12 20.5t-15 16.5q-42 55 -26 103q10 49 43 225q4 21 12 62.5t12 62.5q12 73 27 147q3 29 -14 58q-18 11 -35 12.5 t-28 -3t-27.5 -10.5t-28.5 -7q-3 46 27 72.5t73 15.5q21 -6 45 -23q90 -65 113 -166q26 -114 4 -223q-10 -50 -31.5 -149.5t-31.5 -149.5q0 -2 -5 -39q75 -14 100 -30t38 -60q-55 -33 -72 -41q-83 -44 -113 -135q-7 -23 -11 -47t-6 -55t-3 -48.5t-1.5 -56.5t-0.5 -51 q-1 -26 -1.5 -108.5t-2.5 -127.5q0 -40 -25 -92q-29 -50 -88 -45h-33q-40 -3 -73 39z" />
<glyph unicode="~" horiz-adv-x="884" d="M141 539q1 2 10 22.5t15 28.5q34 40 86.5 64t105.5 24q81 3 138 -60q25 -25 78 -65.5t61 -46.5q2 -4 10 -8q38 -29 62.5 -26.5t56.5 40.5q1 2 3 5t3 5q20 20 35 8q17 -13 8 -34q-8 -33 -39 -64q-36 -33 -84 -18q-50 20 -67 35q-13 10 -39 29.5l-42 31.5t-36.5 30 t-36.5 35q-12 15 -27 27q-50 44 -112 29q-78 -16 -142 -84q-4 -3 -11 -11.5t-11 -11.5q-3 -3 -8 -3.5t-8 1.5q-12 12 -9 17z" />
<glyph unicode="&#xa2;" d="M8 627q0 8 4 24q11 118 115 215q85 82 186 107q4 17 13.5 65.5t15.5 73.5q3 20 8 57t8 54q18 6 25 4q43 -15 72 -58q34 -43 16 -102q-4 -17 -22 -84q37 -9 69 -63q21 -35 29 -66q4 -12 -11 -14t-54.5 -2.5t-71.5 -6.5q-27 -125 -37 -194q-4 -23 -20 -107.5t-23 -130.5 q-1 -8 -4 -23.5t-4 -23.5q103 21 153 54q3 5 8 8l4 2q10 10 15 10q109 85 192 256q28 28 37 14q-110 -257 -231 -331l-2 -3q-33 -27 -88 -48.5t-97 -24.5q-6 -33 -14 -99q-2 -15 -1.5 -40.5t-0.5 -40.5q0 -35 -29 -35q-22 4 -28 12q-53 47 -50 129q1 17 11 88 q-93 27 -156.5 120.5t-36.5 203.5zM134 469.5q10 -46.5 46 -78.5q5 -3 15.5 -9t15.5 -9q12 68 16 98q15 91 52 299q-70 -57 -115 -154q-19 -25 -29.5 -62.5t-0.5 -84z" />
<glyph unicode="&#xa3;" horiz-adv-x="919" d="M76 252q-2 18 20 53q78 125 156 309q11 33 14 41q-5 1 -12.5 4t-13.5 5t-11 2q-12 2 -26 3t-30.5 1.5t-25.5 1.5q-8 2 -24 10q-1 0 -2 1.5t-2 3.5t-2 3q23 17 34 21.5t54 11.5q14 3 44 8t46 8q29 52 37.5 75.5t11.5 59.5q-20 3 -56.5 3.5t-66 4.5t-53.5 15q-2 1 -3.5 3.5 t-3.5 6.5l-3 6q25 19 52.5 24t166.5 17q16 42 18 52q5 23 23 97.5t26 115.5q18 96 -6 157q-4 8 -4 13q-1 12 9 19.5t22 2.5q32 -19 33 -20q71 -56 80 -148q2 -15 3 -29t-0.5 -30.5t-2 -27.5t-4 -30t-5 -27.5t-6.5 -30t-6 -28.5q-13 -55 -16 -69q2 -5 5 -8.5t7.5 -5.5 t6.5 -2.5t8 -1.5t7 -1q43 0 66 -2q31 -1 40 -10t21 -47q-8 -16 -38 -12q-31 3 -148 -7q-2 -5 -8.5 -22t-8.5 -24t-6 -20.5t-5.5 -24.5t-2.5 -23q39 -5 132.5 -0.5t130.5 2.5q14 -29 -17 -39q-94 -28 -125 -29q-102 -4 -153 -18q-23 -52 -71 -155.5t-71 -155.5q30 -18 33 -19 q69 -22 180 -84q101 -56 144 -84q27 -17 49 -24.5t49 -4t53 24.5q6 -8 8.5 -16t3 -13.5t-1.5 -13.5t-3.5 -12t-5.5 -12t-5 -11q-10 -20 -43 -24q-50 -3 -96 26q-175 106 -250 150q-56 31 -102 49q-4 2 -45 12q-15 -18 -39.5 -52t-46.5 -59.5t-46 -43.5q-63 17 -71 98z" />
<glyph unicode="&#xa5;" horiz-adv-x="768" d="M27 1365q0 17 0.5 25.5t3 30t2.5 27.5q1 12 13.5 15.5t21.5 -5.5l18 -18q40 -49 84 -150q44 -98 80 -147q9 -14 29.5 -39.5t27.5 -34.5q28 32 29 35q40 86 51 119q11 29 27.5 63.5t26.5 52.5t36 63t31 54q1 1 6 3.5t8 4.5q17 -11 37 -28l6 2q3 6 8.5 17.5t8.5 17.5l20 -5 q106 -83 78 -215q-3 -16 -8.5 -34t-10 -30.5t-12.5 -33.5t-12 -31q-12 -28 -34.5 -85.5t-33.5 -86.5q-6 -16 -20.5 -44.5t-20.5 -43.5q-8 -14 -26 -55q8 -6 17 -7.5t14 -0.5t14.5 4t13.5 4q37 6 60 -14q15 -12 17.5 -24t-5.5 -32q-3 -6 -5 -14t-5 -19t-5 -18 q-107 -28 -143 -37q-2 -9 -7.5 -24.5t-6.5 -20.5q29 -29 65 -24q46 6 97 6q33 4 41 -25q9 -36 -23 -53q-26 -13 -49 -16q-32 -8 -146 -35q-8 -31 -10 -49q-9 -80 -20 -220q-3 -29 -13 -63q-8 -26 -30 -33t-45 10q-35 27 -47 68q-11 34 -16.5 56.5t-5.5 54t11 59.5 q5 12 7.5 36.5t3.5 29.5q-8 8 -16 10t-18.5 0t-13.5 -2q-63 -6 -81 57q53 53 147 84q1 8 2 23t2 22q-24 6 -73 4.5t-68 5.5q-8 49 -10 64q-3 27 22 33q29 9 100 26q3 1 35 17q-10 84 -14 102q-4 15 -25 45q-41 55 -71 90q-105 132 -164 320q-4 13 -6 26t-2 30z" />
<glyph unicode="&#xa8;" horiz-adv-x="514" d="M46 1342q11 41 44 49q65 -6 93 -44t38 -108q-18 -47 -26 -61q-3 -6 -14 -10.5t-19 -4.5q-53 3 -78 41q-13 -11 -28 27q-23 58 -10 111zM286 1342q11 41 44 49q65 -6 93 -44t38 -108q-16 -43 -27 -61q-3 -6 -14 -10.5t-19 -4.5q-52 3 -77 41q-13 -11 -28 27 q-23 58 -10 111z" />
<glyph unicode="&#xab;" horiz-adv-x="1239" d="M78 610q23 73 61 103q180 143 217 170q85 58 150 88q23 10 78 41q9 -3 16.5 -7t14 -10t10.5 -10t9 -13.5t7 -13t7.5 -15t6.5 -13.5q18 -38 9 -82q-13 -58 -60 -78q-34 -17 -59 -27q-97 -37 -191 -106q-12 -11 -67 -49q-4 -3 -12 -12.5t-13 -14.5q11 -5 32.5 -12.5 t31.5 -11.5q41 -17 121.5 -50.5t121.5 -50.5q23 -9 13 -47q-125 43 -371 125q-5 -2 -21.5 -12t-25.5 -13q-43 -18 -62 25q-9 15 -22 53q-8 26 -2 43zM569 610q22 72 62 103q180 143 217 170q88 59 149 88q23 10 78 41q8 -3 15 -6.5t12 -7t10.5 -10t8.5 -10t8 -12.5t6 -11 t6 -13t6 -12q17 -36 8 -82q-13 -59 -59 -78q-30 -15 -60 -27q-95 -37 -190 -106q-8 -7 -68 -49q-4 -3 -11 -12t-13 -15q11 -4 32 -12t31 -12q41 -17 122 -50.5t122 -50.5q22 -9 12 -47q-125 43 -371 125q-5 -2 -21.5 -12t-25.5 -13q-42 -17 -61 25q-11 18 -23 53 q-8 26 -2 43z" />
<glyph unicode="&#xad;" horiz-adv-x="595" d="M31 625q-4 15 4 49q6 29 37 26q18 -5 55 -2.5t54 4.5t54 8.5t54 8.5q30 4 96.5 5.5t101.5 6.5q10 -40 19 -57q5 -8 18.5 -23t14.5 -16q2 -2 12 -17q31 -51 -29 -63q-24 -4 -37 -4q-84 0 -262 -29q-10 -1 -32 -2t-33 -2q-40 -2 -78.5 27.5t-48.5 79.5z" />
<glyph unicode="&#xb1;" horiz-adv-x="813" d="M131 315q-5 16 4 50q6 29 37 26q18 -5 55 -2.5t54 4.5t54 8.5t54 8.5q30 4 97 5.5t102 6.5q11 -44 18 -57q5 -8 18.5 -23t14.5 -16q2 -2 12 -17q31 -51 -28 -63q-24 -4 -37 -4q-84 0 -262 -29q-10 -1 -32.5 -2t-33.5 -2q-40 -2 -78.5 27.5t-48.5 78.5zM147 762 q-8 24 2.5 45.5t34.5 28.5q20 5 60.5 12t60.5 12q10 2 31 2q44 85 61 174q7 29 33 15q41 -19 61 -59.5t9 -84.5q0 -4 -4 -20q11 -5 22 -5.5t28 2.5t21 3q10 0 36 2.5t40 1.5q31 0 57 -21t33 -53q6 -15 -0.5 -28.5t-23.5 -16.5q-27 -6 -103 -20q-62 -5 -133 -15 q-24 -2 -32.5 -8t-12.5 -29q-10 -44 -20 -102q-2 -14 -6.5 -47.5t-6.5 -52.5q-5 -20 -12 -27q-16 -23 -39 -10q-47 24 -47 76q0 61 6 122q0 5 1.5 16t1.5 21t-3 19h-27q-7 -1 -23.5 -4.5t-25.5 -3.5q-59 -6 -80 55z" />
<glyph unicode="&#xb4;" horiz-adv-x="1705" d="M6 1237q-8 30 35 86q50 61 96 109q26 26 96 84q19 15 46 25t36 5q22 -22 0 -63q-25 -49 -131 -176q-23 -29 -96 -70q-75 -23 -82 0z" />
<glyph unicode="&#xb8;" horiz-adv-x="395" d="M91 85.5q5 27.5 27.5 41t43.5 10.5q12 -2 20 11t12.5 30t17.5 31t34 14q29 0 38 -31t-7 -63.5t-48 -36.5q-38 -4 -25 -29q14 -27 61 -42q21 -7 42 -7q20 0 18 -7q-3 -13 -50 -24q-87 -22 -139 19q-7 5 -13 12q-37 44 -32 71.5z" />
<glyph unicode="&#xbb;" horiz-adv-x="1091" d="M86 342q-3 20 16 39q13 12 50.5 51.5t58.5 59.5q20 19 57.5 50.5t48.5 41.5q4 4 16 17t21 22q-8 4 -20.5 9t-16.5 7q-79 25 -135 47q-70 28 -95.5 85.5t1.5 127.5q6 17 22 20.5t23 -10.5q3 -5 6 -9t5.5 -7t7.5 -6t7 -5t8.5 -5t8 -3.5t9 -4t8.5 -3.5q162 -63 235 -104 q58 -35 92 -111q8 -16 4 -43q-1 -29 -18 -38.5t-43 1.5q-9 3 -25.5 11.5t-23.5 11.5q-39 -13 -70 -53q-56 -68 -129 -125q-14 -12 -74 -72q-3 -2 -10.5 -10t-11.5 -10q-16 -8 -25 -5q-8 5 -8 23zM545 342q-3 20 16 39q12 12 50 51.5t59 59.5q20 19 57.5 50.5t48.5 41.5 q4 4 16 17t21 22q-8 4 -20.5 9t-16.5 7q-79 25 -135 47q-70 28 -95.5 85.5t1.5 127.5q6 17 22 20.5t23 -10.5q5 -9 11 -15.5t16.5 -12.5t13.5 -7t18 -8q166 -64 236 -104q58 -35 92 -111q8 -16 4 -43q-1 -29 -18 -38.5t-43 1.5q-9 3 -26.5 11.5t-23.5 11.5q-38 -13 -69 -53 q-56 -68 -129 -125q-14 -12 -74 -72q-3 -2 -10.5 -10t-11.5 -10q-16 -8 -25 -5q-8 5 -8 23z" />
<glyph unicode="&#xbf;" horiz-adv-x="995" d="M113 395q0 25 6 49q20 85 39 131q53 132 147 211q10 8 33 29t37 31q75 59 233 217q106 110 144 219q6 18 16.5 22.5t30.5 -1.5q40 -14 49 -58q9 -42 -6 -82q-28 -80 -117 -188q-76 -88 -248 -225q-11 -9 -49 -39t-55 -44.5t-45 -39t-49 -45.5q-20 -20 -23 -25 q-61 -122 -51 -223q8 -80 78 -131q4 -3 15 -9.5t16.5 -9.5t14.5 -7.5t18 -7t18 -3.5q72 -7 149 63q35 32 43 66q3 13 14 20q24 15 41 68q36 108 45 233q0 20 19 35q61 -5 67 -4q52 3 74 -43q26 -61 17 -108q-19 -89 -74 -181q-16 -29 -47 -77.5t-37 -57.5q-26 -10 -67.5 -27 t-59.5 -24q-98 -35 -117 -41q-9 -4 -35 -8q-14 0 -16 2q-6 12 -17 18t-27.5 10t-23.5 7q-55 20 -114 82q-27 27 -55.5 93t-30.5 103zM743 1530q2 4 9.5 22.5t13.5 28.5q3 5 12 8t15 2q42 -3 65 -32q41 -60 62 -129q2 -6 2 -21q-1 -18 -14.5 -24t-22.5 4q-13 13 -33 16 q-54 4 -77 35.5t-32 89.5z" />
<glyph unicode="&#xc0;" horiz-adv-x="1044" d="M2 92q4 40 8 58q6 33 53 251q32 151 72 326q4 16 4 25q-6 13 -33.5 27t-31.5 34q11 13 41 13t41 5q8 19 14 42t12.5 53.5t10.5 44.5q12 42 35 131.5t43 158.5t42 130q42 111 49 192q3 28 33 35q89 15 172 -37q31 -22 31 -59q3 -59 16 -127q16 -96 82 -318 q10 -37 29 -111.5t29 -111.5q10 -36 32.5 -119t35 -129.5t32.5 -114.5t39 -124q25 -75 63 -203q7 -22 1.5 -34t-27.5 -21q-50 -18 -99 6q-34 18 -45 51q-17 52 -53 155.5t-53 155.5q-15 46 -45.5 139.5t-46.5 139.5q-9 21 -19 41q-234 -28 -342 -39q-104 -450 -147 -707 q-29 -23 -57 -2q-24 15 -21 43zM251 859.5q0 -2.5 0.5 -6t2.5 -7t6 -6.5q17 2 50 5t48 5q112 14 152 20q7 1 19 6t18 7q-64 214 -137 465h-13q-72 -183 -143 -476q0 -1 -1.5 -5.5t-1.5 -7zM383 1925q-4 15 8 25.5t27 5.5q51 -19 96 -64q51 -51 135 -176q20 -32 8 -69 q-39 -22 -82 0q-56 33 -94 86q-35 50 -67 108q-17 32 -31 84z" />
<glyph unicode="&#xc1;" horiz-adv-x="1044" d="M2 92q4 40 8 58q6 33 53 251q32 151 72 326q4 16 4 25q-6 13 -33.5 27t-31.5 34q11 13 41 13t41 5q8 19 14 42t12.5 53.5t10.5 44.5q12 42 35 131.5t43 158.5t42 130q42 111 49 192q3 28 33 35q89 15 172 -37q31 -22 31 -59q3 -59 16 -127q16 -96 82 -318 q10 -37 29 -111.5t29 -111.5q10 -36 32.5 -119t35 -129.5t32.5 -114.5t39 -124q25 -75 63 -203q7 -22 1.5 -34t-27.5 -21q-50 -18 -99 6q-34 18 -45 51q-17 52 -53 155.5t-53 155.5q-15 46 -45.5 139.5t-46.5 139.5q-9 21 -19 41q-234 -28 -342 -39q-104 -450 -147 -707 q-29 -23 -57 -2q-24 15 -21 43zM251 859.5q0 -2.5 0.5 -6t2.5 -7t6 -6.5q17 2 50 5t48 5q112 14 152 20q7 1 19 6t18 7q-64 214 -137 465h-13q-72 -183 -143 -476q0 -1 -1.5 -5.5t-1.5 -7zM362 1647q-8 30 35 86q36 44 97 108q26 26 96 84q19 15 46 25.5t36 5.5 q22 -22 0 -64q-25 -49 -131 -176q-21 -27 -97 -69q-75 -23 -82 0z" />
<glyph unicode="&#xc2;" horiz-adv-x="1044" d="M2 92q4 40 8 58q6 33 53 251q32 151 72 326q4 16 4 25q-6 13 -33.5 27t-31.5 34q11 13 41 13t41 5q8 19 14 42t12.5 53.5t10.5 44.5q12 42 35 131.5t43 158.5t42 130q42 111 49 192q3 28 33 35q89 15 172 -37q31 -22 31 -59q3 -59 16 -127q16 -96 82 -318 q10 -37 29 -111.5t29 -111.5q10 -36 32.5 -119t35 -129.5t32.5 -114.5t39 -124q25 -75 63 -203q7 -22 1.5 -34t-27.5 -21q-50 -18 -99 6q-34 18 -45 51q-17 52 -53 155.5t-53 155.5q-15 46 -45.5 139.5t-46.5 139.5q-9 21 -19 41q-234 -28 -342 -39q-104 -450 -147 -707 q-29 -23 -57 -2q-24 15 -21 43zM251 859.5q0 -2.5 0.5 -6t2.5 -7t6 -6.5q17 2 50 5t48 5q112 14 152 20q7 1 19 6t18 7q-64 214 -137 465h-13q-72 -183 -143 -476q0 -1 -1.5 -5.5t-1.5 -7zM285 1759q6 19 16 35q15 27 42 80t42 80q78 133 117 192q17 27 41 39q26 13 44 9 t40 -27q1 -2 7.5 -9.5t10.5 -9.5q22 -22 25 -57q3 -39 16 -88q19 -82 35 -131q7 -26 23.5 -80t23.5 -80q5 -15 -4 -20q-11 -7 -25 2q-33 24 -39 49q-7 29 -23 82t-20 65q-3 12 -11 42.5t-13 49.5q-10 -7 -17.5 -14t-14 -16t-9.5 -14t-9.5 -17.5t-7.5 -15.5 q-18 -39 -53.5 -116t-54.5 -116q-13 -18 -25 -20q-38 -14 -78.5 -5t-66.5 40q-28 35 -12 71z" />
<glyph unicode="&#xc3;" horiz-adv-x="1044" d="M2 92q4 40 8 58q6 33 53 251q32 151 72 326q4 16 4 25q-6 13 -33.5 27t-31.5 34q11 13 41 13t41 5q8 19 14 42t12.5 53.5t10.5 44.5q12 42 35 131.5t43 158.5t42 130q42 111 49 192q3 28 33 35q89 15 172 -37q31 -22 31 -59q3 -59 16 -127q16 -96 82 -318 q10 -37 29 -111.5t29 -111.5q10 -36 32.5 -119t35 -129.5t32.5 -114.5t39 -124q25 -75 63 -203q7 -22 1.5 -34t-27.5 -21q-50 -18 -99 6q-34 18 -45 51q-17 52 -53 155.5t-53 155.5q-15 46 -45.5 139.5t-46.5 139.5q-9 21 -19 41q-234 -28 -342 -39q-104 -450 -147 -707 q-29 -23 -57 -2q-24 15 -21 43zM251 859.5q0 -2.5 0.5 -6t2.5 -7t6 -6.5q17 2 50 5t48 5q112 14 152 20q7 1 19 6t18 7q-64 214 -137 465h-13q-72 -183 -143 -476q0 -1 -1.5 -5.5t-1.5 -7zM303 1817q12 43 14 47q23 37 57 59.5t68 22.5q53 3 90 -56q16 -24 49.5 -59 t41.5 -45q2 -4 6 -8q25 -28 40.5 -25.5t37.5 39.5l4 8q13 20 22 8q10 -13 4 -32q-6 -32 -24 -60q-25 -31 -56 -16q-32 18 -43 33q-74 78 -100 116q-5 12 -16 27q-29 39 -74 27q-49 -16 -90 -80q-3 -2 -9 -10.5t-8 -10.5q-3 -6 -10 -2q-6 12 -4 17z" />
<glyph unicode="&#xc4;" horiz-adv-x="1044" d="M2 92q4 40 8 58q6 33 53 251q32 151 72 326q4 16 4 25q-6 13 -33.5 27t-31.5 34q11 13 41 13t41 5q8 19 14 42t12.5 53.5t10.5 44.5q12 42 35 131.5t43 158.5t42 130q42 111 49 192q3 28 33 35q89 15 172 -37q31 -22 31 -59q3 -59 16 -127q16 -96 82 -318 q10 -37 29 -111.5t29 -111.5q10 -36 32.5 -119t35 -129.5t32.5 -114.5t39 -124q25 -75 63 -203q7 -22 1.5 -34t-27.5 -21q-50 -18 -99 6q-34 18 -45 51q-17 52 -53 155.5t-53 155.5q-15 46 -45.5 139.5t-46.5 139.5q-9 21 -19 41q-234 -28 -342 -39q-104 -450 -147 -707 q-29 -23 -57 -2q-24 15 -21 43zM226 1873q11 40 44 48q65 -6 93 -44t38 -108q-18 -47 -26 -61q-3 -6 -14 -10t-19 -4q-53 3 -78 41q-13 -11 -28 28q-23 58 -10 110zM251 859.5q0 -2.5 0.5 -6t2.5 -7t6 -6.5q17 2 50 5t48 5q112 14 152 20q7 1 19 6t18 7q-64 214 -137 465 h-13q-72 -183 -143 -476q0 -1 -1.5 -5.5t-1.5 -7zM466 1873q11 40 44 48q65 -6 93 -44t38 -108q-16 -43 -27 -61q-7 -14 -32 -14q-53 3 -78 41q-13 -11 -28 28q-23 58 -10 110z" />
<glyph unicode="&#xc7;" horiz-adv-x="733" d="M4 811q-13 134 43 297q62 187 152 295q29 35 87.5 98.5t67.5 73.5q15 16 45 44.5t41 39.5q88 -10 140 -82q39 -56 53 -90q30 -72 6 -170q-21 -96 -98 -201q-3 -6 -11 -6q-6 -3 -12 0q-4 1 -26 16q65 99 83 179q9 36 9 51q2 16 -2 69q-14 -12 -41.5 -32.5t-46 -36.5 t-33.5 -33q-9 -10 -50 -55.5t-61 -71.5q-66 -91 -80 -137q-7 -21 -23 -57.5t-22 -51.5q-21 -57 -18 -106q0 -9 -3 -28.5t-3 -22.5q-4 -32 -4 -52q14 -196 108 -395q35 -79 96 -96q32 -10 54 10q60 46 75.5 110.5t-16.5 135.5q-2 5 -6 15.5t-6 15.5q9 14 10 14q19 8 31 2 q26 -10 43 -45q38 -93 8 -189q-4 -17 -14 -28q-64 -60 -109 -90q-80 -55 -178 2q-83 49 -141 139q-60 93 -111 266q-29 105 -37 203zM267 85.5q5 27.5 27.5 41t43.5 10.5q12 -2 20 11t12.5 30t17.5 31t34 14q29 0 38 -31t-6.5 -63.5t-47.5 -36.5q-38 -4 -25 -29 q13 -27 60 -42q22 -7 42 -7t18 -7q-3 -13 -50 -24q-87 -22 -139 19q-7 5 -13 12q-37 44 -32 71.5z" />
<glyph unicode="&#xc8;" horiz-adv-x="583" d="M0 401q1 147 1 439t1 438q0 36 10 231v123q0 17 2 23q16 16 49 8q66 -19 134 -98q6 -6 15 -20t13 -19q22 1 70 -1.5t86 -0.5t72 12q24 7 43 -4q4 -3 3.5 -31.5t-5.5 -30.5q-15 -8 -25 -10q-57 -14 -154 -14q-63 0 -86 -12q-10 -46 -13 -245.5t5 -240.5q14 -5 28.5 -6.5 t37.5 -2.5t28 -1h97q22 0 32 -4q5 -3 11 -20.5t6 -26.5q1 -8 -5 -12.5t-16 -6.5q-20 0 -58 -1t-58 -1q-12 0 -35 1t-35 1q-7 0 -21.5 -3t-17.5 -3q-4 -24 -4 -33q-14 -418 -16 -514q8 1 23 2t22 2q29 3 89 10.5t89 10.5q6 1 13.5 -7t15.5 -19t12 -15q9 -9 8.5 -22t-12.5 -17 q-18 -6 -43 -6q-79 -3 -185 -27q-25 -10 -32 -12q-4 -60 -7 -76q-3 -44 -43 -35q-45 7 -71 23q-50 29 -56 84q-18 142 -18 190zM154 1925q-4 15 7.5 25.5t26.5 5.5q53 -20 97 -64q51 -51 135 -176q20 -32 8 -69q-39 -22 -82 0q-56 33 -94 86q-40 55 -68 108q-15 28 -30 84z " />
<glyph unicode="&#xc9;" horiz-adv-x="583" d="M0 401q1 147 1 439t1 438q0 36 10 231v123q0 17 2 23q16 16 49 8q66 -19 134 -98q6 -6 15 -20t13 -19q22 1 70 -1.5t86 -0.5t72 12q24 7 43 -4q4 -3 3.5 -31.5t-5.5 -30.5q-15 -8 -25 -10q-57 -14 -154 -14q-63 0 -86 -12q-10 -46 -13 -245.5t5 -240.5q14 -5 28.5 -6.5 t37.5 -2.5t28 -1h97q22 0 32 -4q5 -3 11 -20.5t6 -26.5q1 -8 -5 -12.5t-16 -6.5q-20 0 -58 -1t-58 -1q-12 0 -35 1t-35 1q-7 0 -21.5 -3t-17.5 -3q-4 -24 -4 -33q-14 -418 -16 -514q8 1 23 2t22 2q29 3 89 10.5t89 10.5q6 1 13.5 -7t15.5 -19t12 -15q9 -9 8.5 -22t-12.5 -17 q-18 -6 -43 -6q-79 -3 -185 -27q-25 -10 -32 -12q-4 -60 -7 -76q-3 -44 -43 -35q-45 7 -71 23q-50 29 -56 84q-18 142 -18 190zM133 1647q-8 30 35 86q44 53 96 108q26 26 96 84q19 15 46 25.5t36 5.5q22 -22 0 -64q-25 -49 -131 -176q-22 -28 -96 -69q-75 -23 -82 0z" />
<glyph unicode="&#xca;" horiz-adv-x="583" d="M0 401q1 147 1 439t1 438q0 36 10 231v123q0 17 2 23q16 16 49 8q66 -19 134 -98q6 -6 15 -20t13 -19q22 1 70 -1.5t86 -0.5t72 12q24 7 43 -4q4 -3 3.5 -31.5t-5.5 -30.5q-15 -8 -25 -10q-57 -14 -154 -14q-63 0 -86 -12q-10 -46 -13 -245.5t5 -240.5q14 -5 28.5 -6.5 t37.5 -2.5t28 -1h97q22 0 32 -4q5 -3 11 -20.5t6 -26.5q1 -8 -5 -12.5t-16 -6.5q-20 0 -58 -1t-58 -1q-12 0 -35 1t-35 1q-7 0 -21.5 -3t-17.5 -3q-4 -24 -4 -33q-14 -418 -16 -514q8 1 23 2t22 2q29 3 89 10.5t89 10.5q6 1 13.5 -7t15.5 -19t12 -15q9 -9 8.5 -22t-12.5 -17 q-18 -6 -43 -6q-79 -3 -185 -27q-25 -10 -32 -12q-4 -60 -7 -76q-3 -44 -43 -35q-45 7 -71 23q-50 29 -56 84q-18 142 -18 190zM55 1759q5 15 17 35q15 27 42 80t42 80q88 149 116 192q17 27 41 39q26 13 44 9t40 -27l19 -19q21 -21 24 -57q2 -34 17 -88q19 -82 35 -131 q7 -26 23.5 -80t23.5 -80q5 -15 -4 -20q-11 -7 -25 2q-33 24 -39 49q-7 29 -23 82t-20 65q-2 9 -10.5 40.5t-14.5 51.5q-10 -7 -17.5 -14t-13.5 -16t-9.5 -14.5t-9 -17t-7.5 -15.5q-19 -39 -54 -116t-54 -116q-13 -18 -25 -20q-38 -14 -78.5 -5t-66.5 40q-29 36 -13 71z" />
<glyph unicode="&#xcb;" horiz-adv-x="583" d="M0 401q1 147 1 439t1 438q0 36 10 231v123q0 17 2 23q16 16 49 8q66 -19 134 -98q6 -6 15 -20t13 -19q22 1 70 -1.5t86 -0.5t72 12q24 7 43 -4q4 -3 3.5 -31.5t-5.5 -30.5q-15 -8 -25 -10q-57 -14 -154 -14q-63 0 -86 -12q-10 -46 -13 -245.5t5 -240.5q14 -5 28.5 -6.5 t37.5 -2.5t28 -1h97q22 0 32 -4q5 -3 11 -20.5t6 -26.5q1 -8 -5 -12.5t-16 -6.5q-20 0 -58 -1t-58 -1q-12 0 -35 1t-35 1q-7 0 -21.5 -3t-17.5 -3q-4 -24 -4 -33q-14 -418 -16 -514q8 1 23 2t22 2q29 3 89 10.5t89 10.5q6 1 13.5 -7t15.5 -19t12 -15q9 -9 8.5 -22t-12.5 -17 q-18 -6 -43 -6q-79 -3 -185 -27q-25 -10 -32 -12q-4 -60 -7 -76q-3 -44 -43 -35q-45 7 -71 23q-50 29 -56 84q-18 142 -18 190zM106 1752q11 40 44 48q65 -6 93 -43.5t38 -107.5q-17 -45 -27 -62q-3 -6 -14 -10t-19 -4q-53 3 -78 41q-13 -11 -28 28q-22 58 -9 110zM345 1752 q11 40 44 48q65 -6 93 -43.5t38 -107.5q-19 -50 -26 -62q-3 -6 -14 -10t-19 -4q-53 3 -78 41q-13 -11 -28 28q-23 58 -10 110z" />
<glyph unicode="&#xcc;" horiz-adv-x="503" d="M0 1622q30 7 57 10q15 2 97 11.5t127 13.5q20 4 63 4q51 -4 78 -33q-24 -22 -79 -28t-75 -19q14 -22 31 -41q23 -26 23 -65q2 -132 -11 -463q-10 -231 -6 -289q0 -39 -2 -57q-1 -13 -2.5 -37t-2.5 -43.5t-1 -36.5q1 -33 -1 -73t-4 -66t-6.5 -75t-6.5 -67q-4 -40 -3 -51 q0 -11 4 -31t5 -26q12 -8 45 -8.5t47 -16.5q5 -5 8 -18q-16 -10 -49 -11.5t-45 -5.5q-2 -3 -8 -16.5t-13 -20t-18 -8.5q-57 -8 -80 15q-17 15 -40.5 17t-43.5 -3q-19 -4 -24.5 -1.5t-26.5 21.5q12 9 39.5 15.5t40.5 15.5q2 23 2.5 27.5t-2 29t-2.5 29.5q-1 13 -5 45.5 t-4 50.5q0 401 3 535q0 3 18 541q4 125 -4 174q-12 5 -38 10t-47.5 14.5t-37.5 30.5zM113 1925q-4 15 7.5 25.5t26.5 5.5q53 -20 97 -64q51 -51 135 -176q20 -32 8 -69q-39 -22 -82 0q-56 33 -94 86q-40 55 -68 108q-15 28 -30 84z" />
<glyph unicode="&#xcd;" horiz-adv-x="503" d="M0 1622q30 7 57 10q15 2 97 11.5t127 13.5q20 4 63 4q51 -4 78 -33q-24 -22 -79 -28t-75 -19q14 -22 31 -41q23 -26 23 -65q2 -132 -11 -463q-10 -231 -6 -289q0 -39 -2 -57q-1 -13 -2.5 -37t-2.5 -43.5t-1 -36.5q1 -33 -1 -73t-4 -66t-6.5 -75t-6.5 -67q-4 -40 -3 -51 q0 -11 4 -31t5 -26q12 -8 45 -8.5t47 -16.5q5 -5 8 -18q-16 -10 -49 -11.5t-45 -5.5q-2 -3 -8 -16.5t-13 -20t-18 -8.5q-57 -8 -80 15q-17 15 -40.5 17t-43.5 -3q-19 -4 -24.5 -1.5t-26.5 21.5q12 9 39.5 15.5t40.5 15.5q2 23 2.5 27.5t-2 29t-2.5 29.5q-1 13 -5 45.5 t-4 50.5q0 401 3 535q0 3 18 541q4 125 -4 174q-12 5 -38 10t-47.5 14.5t-37.5 30.5zM92 1647q-8 30 35 86q43 53 96 108q26 26 96 84q19 15 46 25.5t36 5.5q22 -22 0 -64q-25 -49 -131 -176q-22 -28 -96 -69q-75 -23 -82 0z" />
<glyph unicode="&#xce;" horiz-adv-x="503" d="M0 1622q30 7 57 10q15 2 97 11.5t127 13.5q20 4 63 4q51 -4 78 -33q-24 -22 -79 -28t-75 -19q14 -22 31 -41q23 -26 23 -65q2 -132 -11 -463q-10 -231 -6 -289q0 -39 -2 -57q-1 -13 -2.5 -37t-2.5 -43.5t-1 -36.5q1 -33 -1 -73t-4 -66t-6.5 -75t-6.5 -67q-4 -40 -3 -51 q0 -11 4 -31t5 -26q12 -8 45 -8.5t47 -16.5q5 -5 8 -18q-16 -10 -49 -11.5t-45 -5.5q-2 -3 -8 -16.5t-13 -20t-18 -8.5q-57 -8 -80 15q-17 15 -40.5 17t-43.5 -3q-19 -4 -24.5 -1.5t-26.5 21.5q12 9 39.5 15.5t40.5 15.5q2 23 2.5 27.5t-2 29t-2.5 29.5q-1 13 -5 45.5 t-4 50.5q0 401 3 535q0 3 18 541q4 125 -4 174q-12 5 -38 10t-47.5 14.5t-37.5 30.5zM16 1759q5 15 17 35q14 27 42 80t42 80q88 149 116 192q17 27 41 39q26 13 44 9t40 -27l19 -19q21 -21 24 -57q2 -34 17 -88q19 -82 35 -131q7 -26 23.5 -80t23.5 -80q5 -15 -4 -20 q-11 -7 -25 2q-33 24 -39 49q-7 29 -23.5 82t-19.5 65t-11 42.5t-13 49.5q-10 -7 -17.5 -14t-14 -16t-9.5 -14t-9.5 -17.5t-7.5 -15.5q-19 -39 -54.5 -116t-53.5 -116q-13 -18 -25 -20q-38 -14 -78.5 -5t-66.5 40q-29 36 -13 71z" />
<glyph unicode="&#xcf;" horiz-adv-x="503" d="M0 1622q30 7 57 10q15 2 97 11.5t127 13.5q20 4 63 4q51 -4 78 -33q-24 -22 -79 -28t-75 -19q14 -22 31 -41q23 -26 23 -65q2 -132 -11 -463q-10 -231 -6 -289q0 -39 -2 -57q-1 -13 -2.5 -37t-2.5 -43.5t-1 -36.5q1 -33 -1 -73t-4 -66t-6.5 -75t-6.5 -67q-4 -40 -3 -51 q0 -11 4 -31t5 -26q12 -8 45 -8.5t47 -16.5q5 -5 8 -18q-16 -10 -49 -11.5t-45 -5.5q-2 -3 -8 -16.5t-13 -20t-18 -8.5q-57 -8 -80 15q-17 15 -40.5 17t-43.5 -3q-19 -4 -24.5 -1.5t-26.5 21.5q12 9 39.5 15.5t40.5 15.5q2 23 2.5 27.5t-2 29t-2.5 29.5q-1 13 -5 45.5 t-4 50.5q0 401 3 535q0 3 18 541q4 125 -4 174q-12 5 -38 10t-47.5 14.5t-37.5 30.5zM65 1752q11 40 44 48q65 -6 93 -43.5t38 -107.5q-17 -45 -27 -62q-3 -6 -14 -10t-19 -4q-53 3 -78 41q-13 -11 -28 28q-22 58 -9 110zM304 1752q11 40 44 48q65 -6 93 -43.5t38 -107.5 q-19 -50 -26 -62q-3 -6 -14 -10t-19 -4q-53 3 -78 41q-13 -11 -28 28q-23 58 -10 110z" />
<glyph unicode="&#xd0;" horiz-adv-x="845" d="M-133 872q-5 16 4 50q6 29 37 26q18 -5 55 -2.5t54 4.5t54 8.5t54 8.5q30 4 97 5.5t102 6.5q11 -44 18 -57q5 -8 18.5 -23t14.5 -16q2 -2 12 -17q31 -51 -29 -63q-24 -4 -36 -4q-85 0 -263 -29q-10 -1 -32 -2t-33 -2q-40 -2 -78.5 27.5t-48.5 78.5zM0 414q0 46 10 276 q1 35 2 103.5t2 103.5q3 360 33 629q2 25 2.5 71.5t1.5 61.5q69 12 133 -45q49 -46 43 -109q-2 -11 -2 -63q5 -4 11.5 -1.5t7.5 3t6 5.5l4 5q77 87 90 100q46 44 88 48t113 -31q66 -34 106 -109q78 -146 97 -284q22 -133 12 -224q-14 -108 -47 -180q-13 -31 -37 -91.5 t-35 -86.5q-5 -18 -8 -25q-122 -224 -176 -327q-2 -3 -13 -16t-14 -21q-14 -33 -53.5 -48t-82 -9t-67.5 28q-16 14 -45 43q-5 -2 -8.5 -4t-4.5 -5.5t-1.5 -5.5t0 -6t0.5 -5v-72q0 -31 -33 -31q-53 -3 -87 27t-38 84q-10 117 -10 211zM172 336q-5 -28 2 -37q6 -7 21 -27.5 t26 -33.5t23 -23q40 -27 71 -22t54 36q21 35 45 72q16 25 32 55.5t26 52t27 60t25 55.5q93 212 129 357q8 32 18 91t13 72q-26 200 -48 281q-10 35 -22 68q-22 64 -65 116q-26 31 -60.5 35.5t-66.5 -18.5q-24 -19 -51 -49q-28 -28 -56.5 -68.5t-42.5 -65.5t-43 -79 q-21 -37 -24 -93q-2 -62 -5 -185.5t-5 -186.5q-1 -21 -3.5 -64t-3.5 -65q-4 -74 -12 -226q-4 -70 -4 -108z" />
<glyph unicode="&#xd1;" horiz-adv-x="798" d="M0 859q0 86 2 155t6 137q5 64 16.5 181.5t14.5 152.5q1 12 3 34l3 33q11 5 21.5 6.5t22.5 -1t18.5 -4.5t21 -7.5t18.5 -7.5q59 -23 78 -72q14 -33 45 -98.5t52.5 -118t35.5 -102.5q41 -150 115 -402q10 -41 27 -94q4 -16 20 -24v37q-7 40 -11.5 81t-7.5 91t-4.5 78.5 t-4 91t-3.5 81.5q-3 35 0 72q0 51 2.5 153.5t2.5 153.5q0 10 -5 93q24 12 27 12q112 -13 158 -96q12 -19 12 -56q-1 -32 -2.5 -91t-3.5 -107t-6 -91q-8 -123 -4 -294q2 -43 10 -115q1 -16 4 -46t4 -44q3 -45 10.5 -132.5t10.5 -129.5q1 -9 0 -26.5t0 -25.5q4 -76 8 -114v-27 q-54 -40 -109 2q-42 28 -51 78q-3 11 -10 36t-10 40q-19 106 -86 327q-34 110 -109 383q-47 163 -98 273q-1 2 -2.5 6.5t-2.5 7t-3 6t-6 5t-9 1.5q-6 -6 -8 -10q-3 -36 -10 -108.5t-10 -108.5q-19 -221 -11 -412q5 -176 19 -423q2 -21 22 -134q6 -43 -35 -51q-49 -11 -96 27 q-36 33 -51 80q-32 108 -35 235q0 27 -2.5 137t-3 155t-0.5 131zM180 1817q10 36 15 47q23 37 57 59.5t67 22.5q54 3 91 -56q16 -24 49.5 -59.5t40.5 -44.5q2 -4 6 -8q25 -28 40.5 -25.5t37.5 39.5l4 8q13 20 22 8q10 -13 4 -32q-6 -32 -24 -60q-25 -31 -55 -16 q-32 18 -43 33q-78 82 -101 116q-5 12 -16 27q-29 39 -74 27q-49 -16 -90 -80q-3 -2 -8 -10t-8 -11q-3 -6 -11 -2q-6 12 -4 17z" />
<glyph unicode="&#xd2;" horiz-adv-x="794" d="M2 838q26 206 31 241q25 160 141 351q6 9 102 155q25 0 33 -4q80 -36 144 -86l7 -7q7 -6 11 -11q97 -121 127 -199q2 -4 23.5 -59.5t31.5 -83.5q51 -136 58 -355q3 -123 -37 -225q-85 -210 -125 -283q-12 -22 -31.5 -43.5t-33 -32t-42.5 -32.5q-4 -4 -14.5 -4t-13.5 4 q-16 18 -64 26q-56 15 -117 62q-123 97 -174 258q-46 133 -55 276q-4 34 -2 52zM156 774q-15 -158 39 -315q27 -81 84 -148q50 -56 114 -59q13 0 37.5 -3t30.5 -3q44 66 63 131q8 24 28 81.5t30 88.5q32 110 30 194q-1 19 -2 58t-2 59q-7 186 -65 324q-1 2 -12.5 32 t-16.5 46q-32 95 -104 188q-22 -43 -31 -55q-13 -23 -46.5 -77.5t-49.5 -84.5q-60 -109 -82 -178q-38 -110 -45 -279zM258 1925q-4 15 8 25.5t27 5.5q51 -19 96 -64q51 -51 135 -176q20 -32 8 -69q-38 -22 -81 0q-58 34 -95 86q-35 50 -67 108q-17 32 -31 84z" />
<glyph unicode="&#xd3;" horiz-adv-x="794" d="M2 838q26 206 31 241q25 160 141 351q6 9 102 155q25 0 33 -4q80 -36 144 -86l7 -7q7 -6 11 -11q97 -121 127 -199q2 -4 23.5 -59.5t31.5 -83.5q51 -136 58 -355q3 -123 -37 -225q-85 -210 -125 -283q-12 -22 -31.5 -43.5t-33 -32t-42.5 -32.5q-4 -4 -14.5 -4t-13.5 4 q-16 18 -64 26q-56 15 -117 62q-123 97 -174 258q-46 133 -55 276q-4 34 -2 52zM156 774q-15 -158 39 -315q27 -81 84 -148q50 -56 114 -59q13 0 37.5 -3t30.5 -3q44 66 63 131q8 24 28 81.5t30 88.5q32 110 30 194q-1 19 -2 58t-2 59q-7 186 -65 324q-1 2 -12.5 32 t-16.5 46q-32 95 -104 188q-22 -43 -31 -55q-13 -23 -46.5 -77.5t-49.5 -84.5q-60 -109 -82 -178q-38 -110 -45 -279zM238 1647q-8 31 34 86q36 44 97 108q26 26 96 84q19 15 46 25.5t36 5.5q22 -22 0 -64q-25 -49 -131 -176q-21 -27 -97 -69q-75 -23 -81 0z" />
<glyph unicode="&#xd4;" horiz-adv-x="794" d="M2 838q26 206 31 241q25 160 141 351q6 9 102 155q25 0 33 -4q80 -36 144 -86l7 -7q7 -6 11 -11q97 -121 127 -199q2 -4 23.5 -59.5t31.5 -83.5q51 -136 58 -355q3 -123 -37 -225q-85 -210 -125 -283q-12 -22 -31.5 -43.5t-33 -32t-42.5 -32.5q-4 -4 -14.5 -4t-13.5 4 q-16 18 -64 26q-56 15 -117 62q-123 97 -174 258q-46 133 -55 276q-4 34 -2 52zM156 774q-15 -158 39 -315q27 -81 84 -148q50 -56 114 -59q13 0 37.5 -3t30.5 -3q44 66 63 131q8 24 28 81.5t30 88.5q32 110 30 194q-1 19 -2 58t-2 59q-7 186 -65 324q-1 2 -12.5 32 t-16.5 46q-32 95 -104 188q-22 -43 -31 -55q-13 -23 -46.5 -77.5t-49.5 -84.5q-60 -109 -82 -178q-38 -110 -45 -279zM160 1759q6 19 16 35q15 27 42 80t42 80q78 133 117 192q17 27 41 39q26 13 44 9t40 -27q2 -2 8.5 -9.5t9.5 -9.5q22 -22 25 -57q3 -39 16 -88 q19 -82 35 -131q7 -26 23.5 -80t23.5 -80q5 -15 -4 -20q-11 -7 -25 2q-33 24 -39 49q-7 29 -23 82t-20 65q-3 12 -10.5 42.5t-13.5 49.5q-10 -7 -17.5 -14t-13.5 -16t-9.5 -14.5t-9 -17t-7.5 -15.5q-18 -39 -54 -116t-55 -116q-13 -18 -25 -20q-38 -14 -78.5 -5t-66.5 40 q-28 35 -12 71z" />
<glyph unicode="&#xd5;" horiz-adv-x="794" d="M2 838q26 206 31 241q25 160 141 351q6 9 102 155q25 0 33 -4q80 -36 144 -86l7 -7q7 -6 11 -11q97 -121 127 -199q2 -4 23.5 -59.5t31.5 -83.5q51 -136 58 -355q3 -123 -37 -225q-85 -210 -125 -283q-12 -22 -31.5 -43.5t-33 -32t-42.5 -32.5q-4 -4 -14.5 -4t-13.5 4 q-16 18 -64 26q-56 15 -117 62q-123 97 -174 258q-46 133 -55 276q-4 34 -2 52zM156 774q-15 -158 39 -315q27 -81 84 -148q50 -56 114 -59q13 0 37.5 -3t30.5 -3q44 66 63 131q8 24 28 81.5t30 88.5q32 110 30 194q-1 19 -2 58t-2 59q-7 186 -65 324q-1 2 -12.5 32 t-16.5 46q-32 95 -104 188q-22 -43 -31 -55q-13 -23 -46.5 -77.5t-49.5 -84.5q-60 -109 -82 -178q-38 -110 -45 -279zM178 1817q10 36 15 47q23 37 57 59.5t67 22.5q54 3 91 -56q16 -24 49.5 -59.5t40.5 -44.5q2 -4 6 -8q25 -28 40.5 -25.5t37.5 39.5l4 8q13 20 22 8 q10 -13 4 -32q-6 -32 -24 -60q-25 -31 -56 -16q-32 18 -43 33q-74 78 -100 116q-5 12 -16 27q-29 39 -74 27q-49 -16 -90 -80q-3 -2 -8 -10t-8 -11q-3 -6 -11 -2q-6 12 -4 17z" />
<glyph unicode="&#xd6;" horiz-adv-x="794" d="M2 838q26 206 31 241q25 160 141 351q6 9 102 155q25 0 33 -4q80 -36 144 -86l7 -7q7 -6 11 -11q97 -121 127 -199q2 -4 23.5 -59.5t31.5 -83.5q51 -136 58 -355q3 -123 -37 -225q-85 -210 -125 -283q-12 -22 -31.5 -43.5t-33 -32t-42.5 -32.5q-4 -4 -14.5 -4t-13.5 4 q-16 18 -64 26q-56 15 -117 62q-123 97 -174 258q-46 133 -55 276q-4 34 -2 52zM156 774q-15 -158 39 -315q27 -81 84 -148q50 -56 114 -59q13 0 37.5 -3t30.5 -3q44 66 63 131q8 24 28 81.5t30 88.5q32 110 30 194q-1 19 -2 58t-2 59q-7 186 -65 324q-1 2 -12.5 32 t-16.5 46q-32 95 -104 188q-22 -43 -31 -55q-13 -23 -46.5 -77.5t-49.5 -84.5q-60 -109 -82 -178q-38 -110 -45 -279zM210 1752q11 40 44 48q65 -6 93 -43.5t38 -107.5q-17 -45 -27 -62q-7 -14 -32 -14q-53 3 -78 41q-13 -11 -28 28q-23 58 -10 110zM450 1752q12 40 44 48 q65 -6 93 -43.5t38 -107.5q-17 -45 -27 -62q-3 -6 -14 -10t-19 -4q-53 3 -78 41q-13 -11 -28 28q-22 58 -9 110z" />
<glyph unicode="&#xd7;" horiz-adv-x="1705" d="M0 872q3 42 27 76q2 2 10 5l8 3q13 -15 34 -38t30 -33t54 -58.5t68 -74.5q16 -17 48 -52t49 -53q77 88 94 105q22 26 66 72t57 61q8 9 29 32.5t34 38.5l8 -3q9 -3 11 -5q23 -28 26 -76q3 -44 -35 -79q-12 -10 -33.5 -31t-33.5 -31q-55 -49 -158 -160q57 -65 90 -100 q14 -16 45 -51t54.5 -63t42.5 -54q39 -57 24 -117q-1 -5 -16 -20q-19 -16 -37 12q-3 4 -16 26.5t-21 31.5q-59 72 -119 137q-54 62 -112 127q-60 -63 -115 -127q-60 -65 -119 -137q-8 -9 -21 -31.5t-16 -26.5q-18 -28 -37 -12q-15 15 -16 20q-15 59 25 117q19 27 41.5 54 t55 63.5t44.5 50.5q33 35 90 100q-103 111 -158 160q-11 10 -33 31t-34 31q-38 35 -35 79z" />
<glyph unicode="&#xd8;" horiz-adv-x="794" d="M2 838q26 206 31 241q25 160 141 351q6 9 102 155q25 0 33 -4q80 -36 144 -86l7 -7q7 -6 11 -11q97 -121 127 -199q2 -4 23.5 -59.5t31.5 -83.5q51 -136 58 -355q3 -123 -37 -225q-85 -210 -125 -283q-12 -22 -31.5 -43.5t-33 -32t-42.5 -32.5q-4 -4 -14.5 -4t-13.5 4 q-16 18 -64 26q-56 15 -117 62q-123 97 -174 258q-46 133 -55 276q-4 34 -2 52zM74 -104q-28 110 10 235q38 143 139 420q211 602 250 711q23 67 67 184t58 156q9 25 30 86t34 98q2 -1 10.5 -1.5t11.5 -2.5q35 -43 47 -127q13 -90 -29 -178q-37 -89 -71 -166 q-93 -221 -201 -529q-94 -258 -139 -385q-63 -188 -119 -346q-7 -24 -17.5 -71t-15.5 -66q-8 -30 -19.5 -43t-23.5 -4q-19 10 -22 29zM156 774q-15 -158 39 -315q27 -81 84 -148q50 -56 114 -59q13 0 37.5 -3t30.5 -3q44 66 63 131q8 24 28 81.5t30 88.5q32 110 30 194 q-1 19 -2 58t-2 59q-7 186 -65 324q-1 2 -12.5 32t-16.5 46q-32 95 -104 188q-22 -43 -31 -55q-13 -23 -46.5 -77.5t-49.5 -84.5q-60 -109 -82 -178q-38 -110 -45 -279z" />
<glyph unicode="&#xd9;" horiz-adv-x="806" d="M0 811q0 276 57 504q9 39 52 180q3 8 10.5 27t12 33.5t5.5 29.5q3 17 16.5 21.5t28.5 -4.5q15 -7 40.5 -22.5t31.5 -18.5q37 -22 59 -68q16 -39 2 -74q-55 -116 -73 -245q-13 -86 -23 -203q-11 -120 -14 -271q0 -196 45 -356q1 -3 4.5 -14t3.5 -17q-1 -24 8.5 -48.5 t19 -37.5t29.5 -39q36 -43 85.5 -51.5t103.5 27.5q23 17 92 82q16 14 17 28t-5.5 35.5t-5.5 38.5q4 86 6 152q-1 12 -7 112t-11 152q-3 25 -12.5 74t-12.5 73q-5 27 -9.5 78t-6.5 68q-19 170 -45 364q-1 17 26.5 37.5t47.5 24.5q21 3 36 -7t15 -28q-2 -70 16 -196t21 -169 q11 -188 41 -311q6 -28 2 -63q-5 -82 8 -181q2 -21 2.5 -58.5t1.5 -49.5q0 -51 2 -78q3 -53 -23 -92q-79 -111 -206 -168q-79 -37 -175 8q-82 37 -131 100q-124 162 -170 385q-18 88 -18 236zM264 1925q-4 15 8 25.5t27 5.5q51 -19 96 -64q51 -51 135 -176q20 -33 9 -69 q-39 -22 -82 0q-58 34 -95 86q-35 50 -67 108q-17 32 -31 84z" />
<glyph unicode="&#xda;" horiz-adv-x="806" d="M0 811q0 276 57 504q9 39 52 180q3 8 10.5 27t12 33.5t5.5 29.5q3 17 16.5 21.5t28.5 -4.5q15 -7 40.5 -22.5t31.5 -18.5q37 -22 59 -68q16 -39 2 -74q-55 -116 -73 -245q-13 -86 -23 -203q-11 -120 -14 -271q0 -196 45 -356q1 -3 4.5 -14t3.5 -17q-1 -24 8.5 -48.5 t19 -37.5t29.5 -39q36 -43 85.5 -51.5t103.5 27.5q23 17 92 82q16 14 17 28t-5.5 35.5t-5.5 38.5q4 86 6 152q-1 12 -7 112t-11 152q-3 25 -12.5 74t-12.5 73q-5 27 -9.5 78t-6.5 68q-19 170 -45 364q-1 17 26.5 37.5t47.5 24.5q21 3 36 -7t15 -28q-2 -70 16 -196t21 -169 q11 -188 41 -311q6 -28 2 -63q-5 -82 8 -181q2 -21 2.5 -58.5t1.5 -49.5q0 -51 2 -78q3 -53 -23 -92q-79 -111 -206 -168q-79 -37 -175 8q-82 37 -131 100q-124 162 -170 385q-18 88 -18 236zM244 1647q-8 30 35 86q43 53 96 108q26 26 96 84q19 15 46 25.5t36 5.5 q22 -22 0 -64q-25 -49 -131 -176q-22 -28 -96 -69q-75 -23 -82 0z" />
<glyph unicode="&#xdb;" horiz-adv-x="806" d="M0 811q0 276 57 504q9 39 52 180q3 8 10.5 27t12 33.5t5.5 29.5q3 17 16.5 21.5t28.5 -4.5q15 -7 40.5 -22.5t31.5 -18.5q37 -22 59 -68q16 -39 2 -74q-55 -116 -73 -245q-13 -86 -23 -203q-11 -120 -14 -271q0 -196 45 -356q1 -3 4.5 -14t3.5 -17q-1 -24 8.5 -48.5 t19 -37.5t29.5 -39q36 -43 85.5 -51.5t103.5 27.5q23 17 92 82q16 14 17 28t-5.5 35.5t-5.5 38.5q4 86 6 152q-1 12 -7 112t-11 152q-3 25 -12.5 74t-12.5 73q-5 27 -9.5 78t-6.5 68q-19 170 -45 364q-1 17 26.5 37.5t47.5 24.5q21 3 36 -7t15 -28q-2 -70 16 -196t21 -169 q11 -188 41 -311q6 -28 2 -63q-5 -82 8 -181q2 -21 2.5 -58.5t1.5 -49.5q0 -51 2 -78q3 -53 -23 -92q-79 -111 -206 -168q-79 -37 -175 8q-82 37 -131 100q-124 162 -170 385q-18 88 -18 236zM166 1759q6 19 16 35q14 27 41.5 80t42.5 80q78 133 117 192q17 27 41 39 q26 13 44 9t40 -27q2 -2 8.5 -9.5t9.5 -9.5q22 -22 25 -57q3 -39 16 -88q19 -82 35 -131q7 -26 23.5 -80t23.5 -80q5 -15 -4 -20q-11 -7 -24 2q-33 24 -39 49q-7 29 -23.5 82t-19.5 65q-3 9 -11 40.5t-14 51.5q-10 -7 -17.5 -14t-13.5 -16t-9.5 -14.5t-9 -17t-7.5 -15.5 q-19 -39 -55 -116t-54 -116q-13 -18 -24 -20q-37 -14 -79 -5t-67 40q-28 35 -12 71z" />
<glyph unicode="&#xdc;" horiz-adv-x="806" d="M0 811q0 276 57 504q9 39 52 180q3 8 10.5 27t12 33.5t5.5 29.5q3 17 16.5 21.5t28.5 -4.5q15 -7 40.5 -22.5t31.5 -18.5q37 -22 59 -68q16 -39 2 -74q-55 -116 -73 -245q-13 -86 -23 -203q-11 -120 -14 -271q0 -196 45 -356q1 -3 4.5 -14t3.5 -17q-1 -24 8.5 -48.5 t19 -37.5t29.5 -39q36 -43 85.5 -51.5t103.5 27.5q23 17 92 82q16 14 17 28t-5.5 35.5t-5.5 38.5q4 86 6 152q-1 12 -7 112t-11 152q-3 25 -12.5 74t-12.5 73q-5 27 -9.5 78t-6.5 68q-19 170 -45 364q-1 17 26.5 37.5t47.5 24.5q21 3 36 -7t15 -28q-2 -70 16 -196t21 -169 q11 -188 41 -311q6 -28 2 -63q-5 -82 8 -181q2 -21 2.5 -58.5t1.5 -49.5q0 -51 2 -78q3 -53 -23 -92q-79 -111 -206 -168q-79 -37 -175 8q-82 37 -131 100q-124 162 -170 385q-18 88 -18 236zM216 1752q11 40 44 48q65 -6 93 -43.5t38 -107.5q-19 -50 -26 -62q-3 -6 -14 -10 t-19 -4q-53 3 -78 41q-13 -11 -28 28q-23 58 -10 110zM456 1752q11 40 44 48q65 -6 93 -43.5t38 -107.5q-17 -45 -27 -62q-3 -6 -14 -10t-19 -4q-52 3 -77 41q-13 -11 -28 28q-23 58 -10 110z" />
<glyph unicode="&#xdd;" horiz-adv-x="768" d="M2 1239q-2 86 10 258q1 16 10 46.5t11 41.5q7 17 26 14q3 0 42 7t66 11t32 -1q-76 -77 -91 -246q-14 -167 38 -295q54 -130 152 -135q73 -3 161 70q29 29 26 69q-4 54 -4 84q1 57 2 172.5t2 173.5q0 28 9 125q3 0 15 2.5t13 -0.5q99 -33 135 -110q16 -34 13 -82 q-1 -26 -5 -109.5t-4.5 -109.5t1.5 -109q6 -106 14 -315q10 -195 10 -238q-1 -51 -7 -145.5t-7 -124.5q-1 -3 -2 -9.5t-2 -9.5q-49 -71 -64 -86q-42 -46 -94 -51q-18 -1 -38 -4t-44.5 -7.5t-38.5 -6.5q-87 -15 -162 41q-55 44 -116 102q-10 9 -25 43q-7 11 2 25q4 6 21 12 q10 0 14 -12q1 -3 2 -12t2 -13q3 -28 23 -45q14 -11 56 -43.5t66 -50.5q44 -30 97 -12q15 6 67 20q72 14 82 94q4 33 4 97q0 45 -4 135q-2 43 -7 129t-7 129q-2 29 -5 87t-5 87q0 3 -7 43q-55 -67 -121 -85t-149 -3q-89 20 -145 108q-67 101 -70 244zM225 1647q-8 30 35 86 q44 53 96 108q21 21 97 84q19 15 46 25.5t36 5.5q22 -22 0 -64q-5 -10 -11.5 -21t-12.5 -20t-16.5 -22.5t-16.5 -21t-18.5 -23t-18 -22t-20 -24t-18.5 -22.5q-22 -28 -96 -69q-75 -23 -82 0z" />
<glyph unicode="&#xe0;" horiz-adv-x="741" d="M16 651q17 61 50 146q37 91 116 149q45 30 90 27q80 -3 129 -35q5 -3 14.5 -7t14.5 -7q27 45 23 120q48 6 79 -22q59 -45 82 -96q34 -70 17 -144q-50 -203 -64 -309q-6 -69 -6 -70q-1 -19 -9.5 -54t-10.5 -44q-1 -7 -4 -19l-5 -20t-1 -19.5t6 -23.5q39 11 69 41 q4 0 30 37.5t66.5 136t63.5 221.5q25 44 37 29q-50 -354 -168 -485q-14 -21 -35 -33q-24 -12 -65 -7t-62 25q-41 41 -53 80q-7 27 -35 92q-5 -5 -34 -29t-44 -38q-23 -23 -69 -45q-58 -28 -105 8q-42 29 -61 63q-105 171 -56 332zM92 557q-19 -113 35 -205q30 -55 78 -33 q111 49 166 125q-8 70 -6 93q5 60 22 202q2 10 10 33t9 35q5 58 -20 85t-79 17q-6 -1 -16 -6l-12 -6q-66 -27 -111 -102q-53 -103 -76 -238zM231 1516q-4 15 8 25t27 5q53 -20 96 -63q54 -54 136 -176q20 -33 8 -70q-39 -22 -82 0q-56 33 -94 86q-37 52 -68 109 q-17 32 -31 84z" />
<glyph unicode="&#xe1;" horiz-adv-x="741" d="M16 651q17 61 50 146q37 91 116 149q45 30 90 27q80 -3 129 -35q5 -3 14.5 -7t14.5 -7q27 45 23 120q48 6 79 -22q59 -45 82 -96q34 -70 17 -144q-50 -203 -64 -309q-6 -69 -6 -70q-1 -19 -9.5 -54t-10.5 -44q-1 -7 -4 -19l-5 -20t-1 -19.5t6 -23.5q39 11 69 41 q4 0 30 37.5t66.5 136t63.5 221.5q25 44 37 29q-50 -354 -168 -485q-14 -21 -35 -33q-24 -12 -65 -7t-62 25q-41 41 -53 80q-7 27 -35 92q-5 -5 -34 -29t-44 -38q-23 -23 -69 -45q-58 -28 -105 8q-42 29 -61 63q-105 171 -56 332zM92 557q-19 -113 35 -205q30 -55 78 -33 q111 49 166 125q-8 70 -6 93q5 60 22 202q2 10 10 33t9 35q5 58 -20 85t-79 17q-6 -1 -16 -6l-12 -6q-66 -27 -111 -102q-53 -103 -76 -238zM211 1237q-8 30 35 86q50 61 96 109q26 26 96 84q19 15 46 25t36 5q22 -22 0 -63q-25 -49 -131 -176q-23 -29 -96 -70 q-75 -23 -82 0z" />
<glyph unicode="&#xe2;" horiz-adv-x="741" d="M16 651q17 61 50 146q37 91 116 149q45 30 90 27q80 -3 129 -35q5 -3 14.5 -7t14.5 -7q27 45 23 120q48 6 79 -22q59 -45 82 -96q34 -70 17 -144q-50 -203 -64 -309q-6 -69 -6 -70q-1 -19 -9.5 -54t-10.5 -44q-1 -7 -4 -19l-5 -20t-1 -19.5t6 -23.5q39 11 69 41 q4 0 30 37.5t66.5 136t63.5 221.5q25 44 37 29q-50 -354 -168 -485q-14 -21 -35 -33q-24 -12 -65 -7t-62 25q-41 41 -53 80q-7 27 -35 92q-5 -5 -34 -29t-44 -38q-23 -23 -69 -45q-58 -28 -105 8q-42 29 -61 63q-105 171 -56 332zM92 557q-19 -113 35 -205q30 -55 78 -33 q111 49 166 125q-8 70 -6 93q5 60 22 202q2 10 10 33t9 35q5 58 -20 85t-79 17q-6 -1 -16 -6l-12 -6q-66 -27 -111 -102q-53 -103 -76 -238zM133 1350q4 13 17 34q14 27 41.5 80t41.5 80q85 144 117 193q17 27 41 39q27 13 44.5 9t39.5 -28q16 -16 19 -18q21 -21 24 -58 q2 -34 17 -88q22 -93 34 -131q7 -27 23.5 -80t23.5 -79q2 -4 0.5 -12t-4.5 -9q-10 -7 -24 2q-33 24 -39 49q-7 29 -23.5 83.5t-19.5 64.5q-2 9 -10.5 40.5t-14.5 51.5q-12 -8 -22 -19t-14 -17t-12 -22.5t-9 -19.5q-18 -39 -54 -115.5t-55 -115.5q-14 -19 -24 -21 q-37 -14 -79 -5t-67 40q-28 35 -12 72z" />
<glyph unicode="&#xe3;" horiz-adv-x="741" d="M16 651q17 61 50 146q37 91 116 149q45 30 90 27q80 -3 129 -35q5 -3 14.5 -7t14.5 -7q27 45 23 120q48 6 79 -22q59 -45 82 -96q34 -70 17 -144q-50 -203 -64 -309q-6 -69 -6 -70q-1 -19 -9.5 -54t-10.5 -44q-1 -7 -4 -19l-5 -20t-1 -19.5t6 -23.5q39 11 69 41 q4 0 30 37.5t66.5 136t63.5 221.5q25 44 37 29q-50 -354 -168 -485q-14 -21 -35 -33q-24 -12 -65 -7t-62 25q-41 41 -53 80q-7 27 -35 92q-5 -5 -34 -29t-44 -38q-23 -23 -69 -45q-58 -28 -105 8q-42 29 -61 63q-105 171 -56 332zM92 557q-19 -113 35 -205q30 -55 78 -33 q111 49 166 125q-8 70 -6 93q5 60 22 202q2 10 10 33t9 35q5 58 -20 85t-79 17q-6 -1 -16 -6l-12 -6q-66 -27 -111 -102q-53 -103 -76 -238zM152 1407q12 43 14 47q23 37 57 59.5t68 22.5q54 3 90 -55q16 -24 50 -60.5t40 -44.5q2 -4 6 -8q25 -28 40.5 -25.5t37.5 39.5 q0 1 4 9q14 20 23 8q10 -13 4 -33q-5 -29 -25 -59q-25 -32 -55 -17q-32 18 -43 33q-75 79 -101 117q-4 10 -16 26q-29 39 -74 27q-49 -16 -90 -80q-3 -2 -8.5 -9.5t-7.5 -10.5q-3 -6 -10 -2q-6 12 -4 16z" />
<glyph unicode="&#xe4;" horiz-adv-x="741" d="M16 651q17 61 50 146q37 91 116 149q45 30 90 27q80 -3 129 -35q5 -3 14.5 -7t14.5 -7q27 45 23 120q48 6 79 -22q59 -45 82 -96q34 -70 17 -144q-50 -203 -64 -309q-6 -69 -6 -70q-1 -19 -9.5 -54t-10.5 -44q-1 -7 -4 -19l-5 -20t-1 -19.5t6 -23.5q39 11 69 41 q4 0 30 37.5t66.5 136t63.5 221.5q25 44 37 29q-50 -354 -168 -485q-14 -21 -35 -33q-24 -12 -65 -7t-62 25q-41 41 -53 80q-7 27 -35 92q-5 -5 -34 -29t-44 -38q-23 -23 -69 -45q-58 -28 -105 8q-42 29 -61 63q-105 171 -56 332zM92 557q-19 -113 35 -205q30 -55 78 -33 q111 49 166 125q-8 70 -6 93q5 60 22 202q2 10 10 33t9 35q5 58 -20 85t-79 17q-6 -1 -16 -6l-12 -6q-66 -27 -111 -102q-53 -103 -76 -238zM183 1342q11 41 44 49q65 -6 93 -44t38 -108q-18 -47 -26 -61q-3 -6 -14 -10.5t-19 -4.5q-53 3 -78 41q-13 -11 -28 27 q-23 58 -10 111zM423 1342q11 41 44 49q65 -6 93 -44t38 -108q-16 -43 -27 -61q-3 -6 -13.5 -10.5t-18.5 -4.5q-53 3 -78 41q-13 -11 -28 27q-23 58 -10 111z" />
<glyph unicode="&#xe7;" d="M-16 401q-19 148 67 301q99 173 266 230q30 11 51 12.5t48.5 -11t54.5 -44.5q37 -48 51 -74q6 -11 -6 -17.5t-38.5 -13.5t-60 -18.5t-72 -37.5t-73.5 -64t-65 -104.5t-45 -153.5q-11 -27 -13.5 -63.5t4 -76t30 -76.5t61.5 -59q73 -25 145 -16q133 74 176 127q4 8 8 12 q1 0 5 4q7 13 12 16q96 137 143 375q24 42 37 29q-54 -355 -166 -481v-2q-33 -48 -91 -93.5t-105 -58.5q0 -15 -15 -45q-7 -15 -38.5 -14.5t-59 1.5t-27.5 -14q0 -11 24 -18t52 -10t52 -15.5t24 -33.5q-9 -27 -66 -22.5t-118 37.5t-48 62q16 36 74 62q-49 8 -97.5 35 t-88.5 69.5t-65 103t-25 128.5q-2 10 -2 32z" />
<glyph unicode="&#xe8;" d="M-16 412q-19 148 67 301q99 171 266 229q30 11 51 12.5t48.5 -11t54.5 -44.5q37 -48 51 -74q49 -86 15 -172q-20 -63 -41 -108q-38 -79 -131 -117q-8 -3 -25 -7t-25 -7q-88 -32 -153 2q-11 -27 -13.5 -63.5t4 -76t30 -76.5t61.5 -59q73 -25 145 -16q133 74 176 127 q4 8 8 12q1 0 5 4q7 15 12 17q97 138 143 374q24 42 37 29q-54 -355 -166 -481v-2q-36 -52 -99.5 -99.5t-109.5 -54.5q-46 -9 -94 -12q-51 0 -106 24.5t-102 66.5t-77 108t-30 141q-2 10 -2 33zM184 481q19 -13 64 -4q27 7 49 15q103 30 139 112q23 53 41 94q14 43 4 76 q-22 -7 -26 -10q-11 -7 -36 -22t-39 -24t-33.5 -23t-35.5 -27q-104 -86 -127 -187zM215 1516q-4 15 8 25t27 5q53 -20 96 -63q51 -51 135 -176q20 -33 8 -70q-38 -22 -81 0q-58 34 -95 86q-33 47 -67 109q-17 32 -31 84z" />
<glyph unicode="&#xe9;" d="M-16 412q-19 148 67 301q99 171 266 229q30 11 51 12.5t48.5 -11t54.5 -44.5q37 -48 51 -74q49 -86 15 -172q-20 -63 -41 -108q-38 -79 -131 -117q-8 -3 -25 -7t-25 -7q-88 -32 -153 2q-11 -27 -13.5 -63.5t4 -76t30 -76.5t61.5 -59q73 -25 145 -16q133 74 176 127 q4 8 8 12q1 0 5 4q7 15 12 17q97 138 143 374q24 42 37 29q-54 -355 -166 -481v-2q-36 -52 -99.5 -99.5t-109.5 -54.5q-46 -9 -94 -12q-51 0 -106 24.5t-102 66.5t-77 108t-30 141q-2 10 -2 33zM184 481q19 -13 64 -4q27 7 49 15q103 30 139 112q23 53 41 94q14 43 4 76 q-22 -7 -26 -10q-11 -7 -36 -22t-39 -24t-33.5 -23t-35.5 -27q-104 -86 -127 -187zM195 1237q-8 31 34 86q43 52 97 109q26 26 96 84q19 15 46 25t36 5q22 -22 0 -63q-25 -49 -131 -176q-22 -29 -97 -70q-75 -23 -81 0z" />
<glyph unicode="&#xea;" d="M-16 412q-19 148 67 301q99 171 266 229q30 11 51 12.5t48.5 -11t54.5 -44.5q37 -48 51 -74q49 -86 15 -172q-20 -63 -41 -108q-38 -79 -131 -117q-8 -3 -25 -7t-25 -7q-88 -32 -153 2q-11 -27 -13.5 -63.5t4 -76t30 -76.5t61.5 -59q73 -25 145 -16q133 74 176 127 q4 8 8 12q1 0 5 4q7 15 12 17q97 138 143 374q24 42 37 29q-54 -355 -166 -481v-2q-36 -52 -99.5 -99.5t-109.5 -54.5q-46 -9 -94 -12q-51 0 -106 24.5t-102 66.5t-77 108t-30 141q-2 10 -2 33zM117 1350q5 16 16 34q15 26 42.5 79.5t41.5 80.5q85 144 117 193q17 27 41 39 q27 13 44.5 9t39.5 -28l18 -18q22 -22 25 -58q3 -39 16 -88q19 -82 35 -131q7 -27 23.5 -80t23.5 -79q2 -4 0.5 -12t-4.5 -9q-11 -7 -25 2q-33 24 -39 49q-7 29 -23.5 83.5t-19.5 64.5q-3 12 -11 42.5t-13 49.5q-12 -8 -22 -19t-14 -17t-12 -22.5t-9 -19.5 q-18 -39 -54.5 -115.5t-54.5 -115.5q-14 -19 -25 -21q-38 -14 -78.5 -5t-66.5 40q-28 35 -12 72zM184 481q19 -13 64 -4q27 7 49 15q103 30 139 112q23 53 41 94q14 43 4 76q-22 -7 -26 -10q-11 -7 -36 -22t-39 -24t-33.5 -23t-35.5 -27q-104 -86 -127 -187z" />
<glyph unicode="&#xeb;" d="M-16 412q-19 148 67 301q99 171 266 229q30 11 51 12.5t48.5 -11t54.5 -44.5q37 -48 51 -74q49 -86 15 -172q-20 -63 -41 -108q-38 -79 -131 -117q-8 -3 -25 -7t-25 -7q-88 -32 -153 2q-11 -27 -13.5 -63.5t4 -76t30 -76.5t61.5 -59q73 -25 145 -16q133 74 176 127 q4 8 8 12q1 0 5 4q7 15 12 17q97 138 143 374q24 42 37 29q-54 -355 -166 -481v-2q-36 -52 -99.5 -99.5t-109.5 -54.5q-46 -9 -94 -12q-51 0 -106 24.5t-102 66.5t-77 108t-30 141q-2 10 -2 33zM167 1342q11 41 44 49q65 -6 93 -44t38 -108q-16 -43 -27 -61 q-3 -6 -13.5 -10.5t-18.5 -4.5q-53 3 -78 41q-13 -11 -28 27q-23 58 -10 111zM184 481q19 -13 64 -4q27 7 49 15q103 30 139 112q23 53 41 94q14 43 4 76q-22 -7 -26 -10q-11 -7 -36 -22t-39 -24t-33.5 -23t-35.5 -27q-104 -86 -127 -187zM407 1342q11 41 44 49 q65 -6 93 -44t38 -108q-16 -43 -27 -61q-3 -6 -14 -10.5t-19 -4.5q-53 3 -78 41q-13 -11 -28 27q-22 58 -9 111z" />
<glyph unicode="&#xec;" horiz-adv-x="536" d="M12 559q5 31 12.5 96t12.5 97t41 233q3 15 16 100q31 6 72 -22q94 -76 106 -199q0 -8 -4 -24q-6 -35 -18.5 -104.5t-18.5 -104.5q-7 -39 -14 -103q-1 -17 -4 -48.5t-4 -47.5v-2q-10 -102 17 -184t63 -82q43 0 100 78q4 6 12 22q4 5 12 14.5t29.5 45t40.5 77t41.5 111.5 t36.5 147q25 44 37 29q-38 -285 -127 -430q-4 -8 -12 -18q-26 -37 -45 -56q-90 -86 -185 -86q-46 0 -82 18t-57.5 48t-33 59t-17.5 62q-47 157 -27 274zM117 1249q20 44 61 129q17 34 45 31q103 -7 146 -70q17 -31 -2 -47q-6 -5 -12.5 -10.5t-10.5 -10t-10 -12t-8.5 -11.5 t-8 -13.5t-7.5 -12.5t-8 -14.5t-7 -13.5q-19 -32 -41.5 -40t-60.5 3q-19 5 -41 31q-7 10 -19 32t-16 29zM129 1516q-4 15 8 25t27 5q53 -20 96 -63q51 -51 135 -176q20 -33 8 -70q-38 -22 -81 0q-58 34 -95 86q-33 47 -67 109q-17 32 -31 84z" />
<glyph unicode="&#xed;" horiz-adv-x="536" d="M12 559q5 31 12.5 96t12.5 97t41 233q3 15 16 100q31 6 72 -22q94 -76 106 -199q0 -8 -4 -24q-6 -35 -18.5 -104.5t-18.5 -104.5q-7 -39 -14 -103q-1 -17 -4 -48.5t-4 -47.5v-2q-10 -102 17 -184t63 -82q43 0 100 78q4 6 12 22q4 5 12 14.5t29.5 45t40.5 77t41.5 111.5 t36.5 147q25 44 37 29q-38 -285 -127 -430q-4 -8 -12 -18q-26 -37 -45 -56q-90 -86 -185 -86q-46 0 -82 18t-57.5 48t-33 59t-17.5 62q-47 157 -27 274zM109 1237q-8 31 34 86q43 52 97 109q26 26 96 84q19 15 46 25t36 5q22 -22 0 -63q-25 -49 -131 -176q-22 -29 -97 -70 q-75 -23 -81 0zM117 1249q20 44 61 129q17 34 45 31q103 -7 146 -70q17 -31 -2 -47q-6 -5 -12.5 -10.5t-10.5 -10t-10 -12t-8.5 -11.5t-8 -13.5t-7.5 -12.5t-8 -14.5t-7 -13.5q-19 -32 -41.5 -40t-60.5 3q-19 5 -41 31q-7 10 -19 32t-16 29z" />
<glyph unicode="&#xee;" horiz-adv-x="536" d="M12 559q5 31 12.5 96t12.5 97t41 233q3 15 16 100q31 6 72 -22q94 -76 106 -199q0 -8 -4 -24q-6 -35 -18.5 -104.5t-18.5 -104.5q-7 -39 -14 -103q-1 -17 -4 -48.5t-4 -47.5v-2q-10 -102 17 -184t63 -82q43 0 100 78q4 6 12 22q4 5 12 14.5t29.5 45t40.5 77t41.5 111.5 t36.5 147q25 44 37 29q-38 -285 -127 -430q-4 -8 -12 -18q-26 -37 -45 -56q-90 -86 -185 -86q-46 0 -82 18t-57.5 48t-33 59t-17.5 62q-47 157 -27 274zM33 1350q5 16 16 34q14 26 41.5 79.5t42.5 80.5q85 144 117 193q17 27 41 39q27 13 44.5 9t39.5 -28l18 -18 q22 -22 25 -58q3 -39 16 -88q19 -82 35 -131q7 -27 23.5 -80t23.5 -79q2 -4 0.5 -12t-4.5 -9q-11 -7 -25 2q-31 24 -38 49q-7 29 -23.5 83.5t-19.5 64.5q-2 9 -10.5 40.5t-14.5 51.5q-12 -8 -22 -19t-14 -17t-12 -22.5t-9 -19.5q-19 -39 -54.5 -115.5t-54.5 -115.5 q-14 -19 -25 -21q-38 -14 -78.5 -5t-66.5 40q-28 35 -12 72zM117 1249q20 44 61 129q17 34 45 31q103 -7 146 -70q17 -31 -2 -47q-6 -5 -12.5 -10.5t-10.5 -10t-10 -12t-8.5 -11.5t-8 -13.5t-7.5 -12.5t-8 -14.5t-7 -13.5q-19 -32 -41.5 -40t-60.5 3q-19 5 -41 31 q-7 10 -19 32t-16 29z" />
<glyph unicode="&#xef;" horiz-adv-x="536" d="M12 559q5 31 12.5 96t12.5 97t41 233q3 15 16 100q31 6 72 -22q94 -76 106 -199q0 -8 -4 -24q-6 -35 -18.5 -104.5t-18.5 -104.5q-7 -39 -14 -103q-1 -17 -4 -48.5t-4 -47.5v-2q-10 -102 17 -184t63 -82q43 0 100 78q4 6 12 22q4 5 12 14.5t29.5 45t40.5 77t41.5 111.5 t36.5 147q25 44 37 29q-38 -285 -127 -430q-4 -8 -12 -18q-26 -37 -45 -56q-90 -86 -185 -86q-46 0 -82 18t-57.5 48t-33 59t-17.5 62q-47 157 -27 274zM77 1299q3 -59 25 -89q9 -12 17 -6q25 -38 78 -41q8 0 18.5 4.5t13.5 10.5q11 18 27 61q-10 70 -38 108t-93 44 q-51 -12 -48 -92zM117 1249q20 44 61 129q17 34 45 31q103 -7 146 -70q17 -31 -2 -47q-6 -5 -12.5 -10.5t-10.5 -10t-10 -12t-8.5 -11.5t-8 -13.5t-7.5 -12.5t-8 -14.5t-7 -13.5q-19 -32 -41.5 -40t-60.5 3q-19 5 -41 31q-7 10 -19 32t-16 29zM317 1299q2 -59 24 -89 q9 -12 17 -6q25 -38 78 -41q8 0 19 4.5t14 10.5q11 18 27 61q-10 70 -38 108t-93 44q-51 -12 -48 -92z" />
<glyph unicode="&#xf1;" horiz-adv-x="858" d="M26.5 566q-0.5 47 1 80t4 89.5t3.5 83.5q0 8 12 139q2 13 6 38.5t6 39.5q3 15 16 21.5t27 -0.5q2 -1 6.5 -3t6.5 -3q7 -8 23 -26t25 -28.5t21.5 -26.5t21 -31.5t15.5 -31.5q18 -48 10 -94q-16 -91 -18 -133q0 -34 -6 -141.5t-3.5 -162.5t19.5 -73q10 34 67.5 193t113 305 t59.5 145q47 -7 67.5 -37t20.5 -69q2 -95 22 -358t33 -302q10 -56 93 51l24 33q4 5 11.5 14.5t29 45t40.5 77t41.5 111.5t37.5 147q24 42 37 29q-50 -331 -152 -463q-5 -9 -13.5 -24.5t-33.5 -54.5t-47 -69.5t-48 -55t-44 -25.5q-12 -12 -33 8q-4 3 -8 7t-7 9.5t-5.5 10 t-5 13.5t-4 14t-4 15.5t-3.5 15.5t-3 18t-3 18q-4 12 -4 16q-26 135 -29 250q0 29 -10 187q-1 17 -3 53t-3 53q-6 0 -8.5 1.5t-5.5 -2t-3.5 -4.5t-3 -5.5t-2.5 -5.5q-12 -36 -140 -346t-134 -330q-25 -23 -53.5 -19t-43.5 35q-30 62 -30 117q0 52 -1 157t-1 158v39 q-4 40 -4.5 87zM211 1407q12 43 14 47q23 37 57 59.5t68 22.5q54 3 90 -55q16 -24 50 -60.5t40 -44.5q1 -2 7 -8q25 -28 40 -25.5t37 39.5q0 1 4 9q14 20 23 8q10 -13 4 -33q-5 -31 -24 -59q-26 -32 -56 -17q-32 18 -43 33q-71 75 -100 117q-4 10 -16 26q-29 39 -74 27 q-49 -16 -90 -80q-3 -2 -9 -10t-8 -10q-3 -6 -10 -2q-6 12 -4 16z" />
<glyph unicode="&#xf2;" horiz-adv-x="716" d="M-18 266q-31 162 20 352q14 56 55 160q65 174 211 305q43 -5 72 -69q21 -51 8 -123q55 -39 107 -119q31 -54 45 -141q4 -37 8 -107q2 -8 2 -24h2q29 -1 63 7t69 25t62 48.5t37 72.5q5 20 13.5 23t14.5 -6t5 -17q-6 -34 -23 -66.5t-47 -63.5t-80.5 -49t-113.5 -17h-2 q-6 -159 -119 -305q-27 -32 -29 -37q-20 -52 -79 -62q-22 -4 -62.5 -13.5t-46.5 -10.5q-85 -22 -131 57q-45 80 -61 180zM105.5 197.5q0.5 -17.5 3.5 -33.5q96 -42 176 -12q33 11 47 38l55 107q29 66 33 166l-12 1q-11 2 -22.5 4t-28 6.5t-30 10.5t-26 16t-18.5 23 q-37 105 -47 131q-9 27 -13 41q-2 -1 -5 -3l-4.5 -3t-2.5 -2q-8 -16 -12 -26q-45 -103 -80 -306q-6 -26 -10 -73q0 -7 -1.5 -27t-2 -30.5t0 -28zM219 1516q-4 15 8 25t27 5q53 -20 96 -63q51 -51 135 -176q21 -34 9 -70q-39 -22 -82 0q-58 34 -95 86q-33 47 -67 109 q-17 32 -31 84zM256 731q11 -59 35 -121q32 -83 92 -86q9 0 33 -6q9 168 -68 291q-16 27 -51 41q-54 -54 -41 -119z" />
<glyph unicode="&#xf3;" horiz-adv-x="716" d="M-18 266q-31 162 20 352q14 56 55 160q65 174 211 305q43 -5 72 -69q21 -51 8 -123q55 -39 107 -119q31 -54 45 -141q4 -37 8 -107q2 -8 2 -24h2q29 -1 63 7t69 25t62 48.5t37 72.5q5 20 13.5 23t14.5 -6t5 -17q-6 -34 -23 -66.5t-47 -63.5t-80.5 -49t-113.5 -17h-2 q-6 -159 -119 -305q-27 -32 -29 -37q-20 -52 -79 -62q-22 -4 -62.5 -13.5t-46.5 -10.5q-85 -22 -131 57q-45 80 -61 180zM105.5 197.5q0.5 -17.5 3.5 -33.5q96 -42 176 -12q33 11 47 38l55 107q29 66 33 166l-12 1q-11 2 -22.5 4t-28 6.5t-30 10.5t-26 16t-18.5 23 q-37 105 -47 131q-9 27 -13 41q-2 -1 -5 -3l-4.5 -3t-2.5 -2q-8 -16 -12 -26q-45 -103 -80 -306q-6 -26 -10 -73q0 -7 -1.5 -27t-2 -30.5t0 -28zM199 1237q-8 31 34 86q43 52 97 109q26 26 96 84q19 15 46 25t36 5q22 -22 0 -63q-25 -49 -131 -176q-23 -29 -96 -70 q-75 -23 -82 0zM256 731q11 -59 35 -121q32 -83 92 -86q9 0 33 -6q9 168 -68 291q-16 27 -51 41q-54 -54 -41 -119z" />
<glyph unicode="&#xf4;" horiz-adv-x="716" d="M-18 266q-31 162 20 352q14 56 55 160q65 174 211 305q43 -5 72 -69q21 -51 8 -123q55 -39 107 -119q31 -54 45 -141q4 -37 8 -107q2 -8 2 -24h2q29 -1 63 7t69 25t62 48.5t37 72.5q5 20 13.5 23t14.5 -6t5 -17q-6 -34 -23 -66.5t-47 -63.5t-80.5 -49t-113.5 -17h-2 q-6 -159 -119 -305q-27 -32 -29 -37q-20 -52 -79 -62q-22 -4 -62.5 -13.5t-46.5 -10.5q-85 -22 -131 57q-45 80 -61 180zM105.5 197.5q0.5 -17.5 3.5 -33.5q96 -42 176 -12q33 11 47 38l55 107q29 66 33 166l-12 1q-11 2 -22.5 4t-28 6.5t-30 10.5t-26 16t-18.5 23 q-37 105 -47 131q-9 27 -13 41q-2 -1 -5 -3l-4.5 -3t-2.5 -2q-8 -16 -12 -26q-45 -103 -80 -306q-6 -26 -10 -73q0 -7 -1.5 -27t-2 -30.5t0 -28zM121 1350q5 16 16 34q14 26 42 79.5t42 80.5q85 144 117 193q17 27 41 39q27 13 44.5 9t39.5 -28q2 -2 5.5 -6t6.5 -7t6 -5 q22 -22 25 -58q3 -39 16 -88q19 -82 35 -131q7 -27 23.5 -80t23.5 -79q2 -4 0.5 -12t-4.5 -9q-11 -7 -25 2q-31 24 -38 49q-7 29 -23.5 83.5t-19.5 64.5q-2 9 -10.5 40.5t-14.5 51.5q-12 -8 -22 -19t-14 -17t-12 -22.5t-9 -19.5q-18 -39 -54 -115.5t-55 -115.5 q-14 -19 -24 -21q-37 -14 -79 -5t-67 40q-28 35 -12 72zM256 731q11 -59 35 -121q32 -83 92 -86q9 0 33 -6q9 168 -68 291q-16 27 -51 41q-54 -54 -41 -119z" />
<glyph unicode="&#xf5;" horiz-adv-x="716" d="M-18 266q-31 162 20 352q14 56 55 160q65 174 211 305q43 -5 72 -69q21 -51 8 -123q55 -39 107 -119q31 -54 45 -141q4 -37 8 -107q2 -8 2 -24h2q29 -1 63 7t69 25t62 48.5t37 72.5q5 20 13.5 23t14.5 -6t5 -17q-6 -34 -23 -66.5t-47 -63.5t-80.5 -49t-113.5 -17h-2 q-6 -159 -119 -305q-27 -32 -29 -37q-20 -52 -79 -62q-22 -4 -62.5 -13.5t-46.5 -10.5q-85 -22 -131 57q-45 80 -61 180zM105.5 197.5q0.5 -17.5 3.5 -33.5q96 -42 176 -12q33 11 47 38l55 107q29 66 33 166l-12 1q-11 2 -22.5 4t-28 6.5t-30 10.5t-26 16t-18.5 23 q-37 105 -47 131q-9 27 -13 41q-2 -1 -5 -3l-4.5 -3t-2.5 -2q-8 -16 -12 -26q-45 -103 -80 -306q-6 -26 -10 -73q0 -7 -1.5 -27t-2 -30.5t0 -28zM139 1407q10 36 15 47q23 37 57 59.5t68 22.5q54 3 90 -55q16 -24 50 -60.5t40 -44.5q2 -4 6 -8q25 -28 40.5 -25.5t37.5 39.5 q0 1 4 9q13 20 22 8q10 -13 4 -33q-5 -31 -24 -59q-25 -32 -55 -17q-32 18 -43 33q-75 79 -101 117q-4 10 -16 26q-29 39 -74 27q-49 -16 -90 -80q-3 -2 -8.5 -9.5t-7.5 -10.5q-3 -6 -11 -2q-6 12 -4 16zM256 731q11 -59 35 -121q32 -83 92 -86q9 0 33 -6q9 168 -68 291 q-16 27 -51 41q-54 -54 -41 -119z" />
<glyph unicode="&#xf6;" horiz-adv-x="716" d="M-18 266q-31 162 20 352q14 56 55 160q65 174 211 305q43 -5 72 -69q21 -51 8 -123q55 -39 107 -119q31 -54 45 -141q4 -37 8 -107q2 -8 2 -24h2q29 -1 63 7t69 25t62 48.5t37 72.5q5 20 13.5 23t14.5 -6t5 -17q-6 -34 -23 -66.5t-47 -63.5t-80.5 -49t-113.5 -17h-2 q-6 -159 -119 -305q-27 -32 -29 -37q-20 -52 -79 -62q-22 -4 -62.5 -13.5t-46.5 -10.5q-85 -22 -131 57q-45 80 -61 180zM105.5 197.5q0.5 -17.5 3.5 -33.5q96 -42 176 -12q33 11 47 38l55 107q29 66 33 166l-12 1q-11 2 -22.5 4t-28 6.5t-30 10.5t-26 16t-18.5 23 q-37 105 -47 131q-9 27 -13 41q-2 -1 -5 -3l-4.5 -3t-2.5 -2q-8 -16 -12 -26q-45 -103 -80 -306q-6 -26 -10 -73q0 -7 -1.5 -27t-2 -30.5t0 -28zM171 1342q11 41 44 49q65 -6 93 -44t38 -108q-16 -43 -27 -61q-3 -6 -13.5 -10.5t-18.5 -4.5q-53 3 -78 41q-13 -11 -28 27 q-23 58 -10 111zM256 731q11 -59 35 -121q32 -83 92 -86q9 0 33 -6q9 168 -68 291q-16 27 -51 41q-54 -54 -41 -119zM411 1342q11 41 44 49q65 -6 93 -44t38 -108q-16 -43 -27 -61q-3 -6 -14 -10.5t-19 -4.5q-52 3 -77 41q-13 -11 -28 27q-23 58 -10 111z" />
<glyph unicode="&#xf7;" horiz-adv-x="452" d="M-41 573q-5 7 4 25q6 17 37 14q52 -3 217 11q28 2 95.5 2.5t103.5 3.5q11 -23 18 -31q3 -3 15.5 -9.5t17.5 -10.5q6 -3 12 -9q33 -26 -28 -32q-12 -2 -37 -2q-47 0 -262 -15q-20 -2 -66 -2q-40 -2 -78.5 13.5t-48.5 41.5zM86 340q0 40 12 78q16 47 27 86q7 30 25 24 q35 -10 51 -52t6 -81q-3 -11 -10.5 -37t-10.5 -41q-4 -10 -7.5 -21t-7.5 -25t-7 -23q-11 -29 -27.5 -31.5t-30.5 25.5q-20 41 -20 98zM127 754v43q-3 41 16 80q6 12 17.5 38t17.5 39q10 10 27 -4q38 -37 46 -98t-15 -102q-27 -56 -35 -78q-9 -19 -22.5 -21t-22.5 13 q-26 41 -29 90z" />
<glyph unicode="&#xf9;" horiz-adv-x="911" d="M25 674q-4 101 28 301q2 14 15 35q7 10 18 6q9 0 14 -10q1 -9 26 -36.5t24 -35.5q-7 -58 -15 -107q-14 -59 -14 -153q1 -54 42 -148q51 -118 101 -121q24 -2 45 29q15 22 28 46.5t31.5 62.5t24.5 49q6 12 6 45q9 174 15 344q0 11 -1 35t-1 37q-1 10 6.5 17t17.5 7 q15 0 19 -4q73 -35 110 -80q46 -58 49 -133q6 -248 -2 -465q-1 -19 0 -41t3 -49.5t3 -42.5v-14q18 -76 68 -76q19 0 37.5 10.5t28.5 22t26 33t23 28.5q94 145 135 363q23 44 37 30q-60 -414 -203 -518q-43 -27 -100 -22.5t-115 37t-86 77.5q-38 51 -43 101q-3 27 -10 82.5 t-10 83.5q-5 0 -13 4q-5 -8 -15.5 -25.5t-15.5 -25.5q-4 -6 -13 -21t-15 -22q-34 -40 -77 -46.5t-85 25.5q-138 111 -147 285zM317 1516q-4 15 8 25t27 5q55 -21 97 -63q51 -51 135 -176q20 -33 8 -70q-39 -22 -82 0q-56 33 -94 86q-37 52 -68 109q-17 32 -31 84z" />
<glyph unicode="&#xfa;" horiz-adv-x="911" d="M25 674q-4 101 28 301q2 14 15 35q7 10 18 6q9 0 14 -10q1 -9 26 -36.5t24 -35.5q-7 -58 -15 -107q-14 -59 -14 -153q1 -54 42 -148q51 -118 101 -121q24 -2 45 29q15 22 28 46.5t31.5 62.5t24.5 49q6 12 6 45q9 174 15 344q0 11 -1 35t-1 37q-1 10 6.5 17t17.5 7 q15 0 19 -4q73 -35 110 -80q46 -58 49 -133q6 -248 -2 -465q-1 -19 0 -41t3 -49.5t3 -42.5v-14q18 -76 68 -76q19 0 37.5 10.5t28.5 22t26 33t23 28.5q94 145 135 363q23 44 37 30q-60 -414 -203 -518q-43 -27 -100 -22.5t-115 37t-86 77.5q-38 51 -43 101q-3 27 -10 82.5 t-10 83.5q-5 0 -13 4q-5 -8 -15.5 -25.5t-15.5 -25.5q-4 -6 -13 -21t-15 -22q-34 -40 -77 -46.5t-85 25.5q-138 111 -147 285zM297 1237q-8 30 35 86q50 61 96 109q26 26 96 84q19 15 46 25t36 5q22 -22 0 -63q-25 -49 -131 -176q-23 -29 -96 -70q-75 -23 -82 0z" />
<glyph unicode="&#xfb;" horiz-adv-x="911" d="M25 674q-4 101 28 301q2 14 15 35q7 10 18 6q9 0 14 -10q1 -9 26 -36.5t24 -35.5q-7 -58 -15 -107q-14 -59 -14 -153q1 -54 42 -148q51 -118 101 -121q24 -2 45 29q15 22 28 46.5t31.5 62.5t24.5 49q6 12 6 45q9 174 15 344q0 11 -1 35t-1 37q-1 10 6.5 17t17.5 7 q15 0 19 -4q73 -35 110 -80q46 -58 49 -133q6 -248 -2 -465q-1 -19 0 -41t3 -49.5t3 -42.5v-14q18 -76 68 -76q19 0 37.5 10.5t28.5 22t26 33t23 28.5q94 145 135 363q23 44 37 30q-60 -414 -203 -518q-43 -27 -100 -22.5t-115 37t-86 77.5q-38 51 -43 101q-3 27 -10 82.5 t-10 83.5q-5 0 -13 4q-5 -8 -15.5 -25.5t-15.5 -25.5q-4 -6 -13 -21t-15 -22q-34 -40 -77 -46.5t-85 25.5q-138 111 -147 285zM219 1350q4 13 17 34q14 27 41.5 80t41.5 80q85 144 117 193q17 27 41 39q27 13 44.5 9t39.5 -28q16 -16 19 -18q21 -21 24 -58q2 -34 17 -88 q22 -93 34 -131q7 -27 23.5 -80t23.5 -79q2 -4 0.5 -12t-4.5 -9q-11 -7 -24 2q-33 24 -39 49q-7 29 -23.5 83.5t-19.5 64.5q-2 9 -10.5 40.5t-14.5 51.5q-12 -8 -22 -19t-14 -17t-12 -22.5t-9 -19.5q-18 -39 -54 -115.5t-55 -115.5q-14 -19 -24 -21q-37 -14 -79 -5t-67 40 q-28 35 -12 72z" />
<glyph unicode="&#xfc;" horiz-adv-x="911" d="M25 674q-4 101 28 301q2 14 15 35q7 10 18 6q9 0 14 -10q1 -9 26 -36.5t24 -35.5q-7 -58 -15 -107q-14 -59 -14 -153q1 -54 42 -148q51 -118 101 -121q24 -2 45 29q15 22 28 46.5t31.5 62.5t24.5 49q6 12 6 45q9 174 15 344q0 11 -1 35t-1 37q-1 10 6.5 17t17.5 7 q15 0 19 -4q73 -35 110 -80q46 -58 49 -133q6 -248 -2 -465q-1 -19 0 -41t3 -49.5t3 -42.5v-14q18 -76 68 -76q19 0 37.5 10.5t28.5 22t26 33t23 28.5q94 145 135 363q23 44 37 30q-60 -414 -203 -518q-43 -27 -100 -22.5t-115 37t-86 77.5q-38 51 -43 101q-3 27 -10 82.5 t-10 83.5q-5 0 -13 4q-5 -8 -15.5 -25.5t-15.5 -25.5q-4 -6 -13 -21t-15 -22q-34 -40 -77 -46.5t-85 25.5q-138 111 -147 285zM269 1342q11 41 44 49q65 -6 93 -44t38 -108q-18 -47 -26 -61q-3 -6 -14 -10.5t-19 -4.5q-53 3 -78 41q-13 -11 -28 27q-23 58 -10 111zM509 1342 q11 41 44 49q65 -6 93 -44t38 -108q-16 -43 -27 -61q-3 -6 -13.5 -10.5t-18.5 -4.5q-53 3 -78 41q-13 -11 -28 27q-23 58 -10 111z" />
<glyph unicode="&#xfd;" horiz-adv-x="735" d="M-115 -547q-6 33 4 70q26 94 82 158q169 203 348 352q14 12 76 69q-3 120 -14 217q-8 1 -14.5 -1.5t-9.5 -5.5t-8 -9t-7 -8q-109 -95 -209 8q-31 31 -41 49q-22 46 -36 84.5t-24.5 83t-9.5 90t13 90.5q10 46 31 111q2 7 20 37q13 3 21 -3t6 -18q-1 -8 -14 -56.5 t-22 -113.5t-5 -141q22 -70 41 -115q20 -45 45 -77q25 -34 58 -37.5t65 22.5q11 8 22 23q10 12 28.5 35t28.5 34q21 30 21 68v256q0 17 -10 125q4 1 11.5 3t13.5 3t10 0q77 -24 127.5 -83t50.5 -130q-1 -58 8 -268q4 -78 4 -117q1 1 2 3t2 3q4 5 11.5 14.5t29 45t40.5 77 t41.5 111.5t37.5 147q24 42 37 29q-60 -404 -197 -510q10 -158 12 -188q13 -142 -30 -320q-14 -63 -50 -102q-9 -11 -22.5 -33.5t-15.5 -26.5q-6 -8 -18 -21.5t-15 -16.5q-4 -4 -12 -11.5t-14.5 -14t-10.5 -11.5q-26 -33 -57 -49q-13 -5 -39 -23q-136 -92 -316 -45 q-116 31 -127 137zM-76 -465q-25 -69 15 -125q30 -40 69 -35q134 22 199 80q134 116 164 254q32 149 26 320q0 2 -40 -38.5t-89.5 -91t-52.5 -53.5q-53 -59 -106 -112q-20 -23 -64 -53q-94 -72 -121 -146zM209 1237q-8 30 35 86q50 61 96 109q26 26 96 84q19 15 46 25t36 5 q22 -22 0 -63q-25 -49 -131 -176q-23 -29 -96 -70q-75 -23 -82 0z" />
<glyph unicode="&#xff;" horiz-adv-x="735" d="M-115 -547q-6 33 4 70q26 94 82 158q169 203 348 352q14 12 76 69q-3 120 -14 217q-8 1 -14.5 -1.5t-9.5 -5.5t-8 -9t-7 -8q-109 -95 -209 8q-31 31 -41 49q-22 46 -36 84.5t-24.5 83t-9.5 90t13 90.5q10 46 31 111q2 7 20 37q13 3 21 -3t6 -18q-1 -8 -14 -56.5 t-22 -113.5t-5 -141q22 -70 41 -115q20 -45 45 -77q25 -34 58 -37.5t65 22.5q11 8 22 23q10 12 28.5 35t28.5 34q21 30 21 68v256q0 17 -10 125q4 1 11.5 3t13.5 3t10 0q77 -24 127.5 -83t50.5 -130q-1 -58 8 -268q4 -78 4 -117q1 1 2 3t2 3q4 5 11.5 14.5t29 45t40.5 77 t41.5 111.5t37.5 147q24 42 37 29q-60 -404 -197 -510q10 -158 12 -188q13 -142 -30 -320q-14 -63 -50 -102q-9 -11 -22.5 -33.5t-15.5 -26.5q-6 -8 -18 -21.5t-15 -16.5q-4 -4 -12 -11.5t-14.5 -14t-10.5 -11.5q-26 -33 -57 -49q-13 -5 -39 -23q-136 -92 -316 -45 q-116 31 -127 137zM-76 -465q-25 -69 15 -125q30 -40 69 -35q134 22 199 80q134 116 164 254q32 149 26 320q0 2 -40 -38.5t-89.5 -91t-52.5 -53.5q-53 -59 -106 -112q-20 -23 -64 -53q-94 -72 -121 -146zM181 1342q11 41 44 49q65 -6 93 -44t38 -108q-18 -47 -26 -61 q-3 -6 -14 -10.5t-19 -4.5q-53 3 -78 41q-13 -11 -28 27q-23 58 -10 111zM421 1342q11 41 44 49q65 -6 93 -44t38 -108q-16 -43 -27 -61q-3 -6 -13.5 -10.5t-18.5 -4.5q-53 3 -78 41q-13 -11 -28 27q-23 58 -10 111z" />
<glyph unicode="&#x178;" horiz-adv-x="768" d="M37 1096q-2 86 10 258q1 16 10 46.5t11 41.5q7 17 26 14q3 0 41.5 7t65.5 11t32 -1q-76 -77 -91 -246q-14 -166 39 -295q53 -130 150 -136q74 -4 163 70q29 29 26 70q-4 54 -4 84q1 58 2 173.5t2 172.5q0 39 8 125q3 0 15.5 2.5t13.5 -0.5q98 -33 135 -111q16 -34 13 -82 q-1 -30 -5.5 -109t-5 -109t1.5 -109q9 -154 15 -316q10 -195 10 -237q-1 -51 -7 -145.5t-7 -124.5q-1 -3 -2.5 -9.5t-2.5 -9.5q-5 -7 -14.5 -21.5t-15.5 -23.5t-15 -20.5t-18 -20.5q-42 -46 -94 -51q-24 -1 -68.5 -9.5t-52.5 -9.5q-87 -15 -162 41q-54 44 -117 103 q-9 7 -24 43q-7 10 2 24q5 8 20 13q3 0 8.5 -4.5t6.5 -8.5q1 -3 2 -11.5t2 -12.5q3 -29 22 -45q12 -9 55 -42.5t68 -51.5q44 -31 96 -13q19 8 68 21q72 14 82 94q4 33 4 96q0 45 -4 135q-2 43 -7 129t-7 129q-2 30 -5.5 88.5t-5.5 85.5q0 8 -6 43q-55 -67 -121 -85t-149 -3 q-89 20 -146 109q-66 99 -69 244zM198 1752q11 40 44 48q65 -6 93 -43.5t38 -107.5q-17 -45 -27 -62q-3 -6 -14 -10t-19 -4q-52 3 -77 41q-13 -11 -28 28q-23 58 -10 110zM437 1752q11 40 44 48q65 -6 93 -43.5t38 -107.5q-19 -50 -26 -62q-3 -6 -14 -10t-19 -4 q-53 3 -78 41q-13 -11 -28 28q-23 58 -10 110z" />
<glyph unicode="&#x2c6;" horiz-adv-x="614" d="M41 1350q5 16 16 34q14 26 42 79.5t42 80.5q85 144 117 193q17 27 41 39q27 13 44.5 9t39.5 -28q2 -2 5.5 -6t6.5 -7t6 -5q22 -22 25 -58q3 -39 16 -88q19 -82 35 -131q7 -27 23.5 -80t23.5 -79q2 -4 0.5 -12t-4.5 -9q-11 -7 -24 2q-33 24 -39 49q-7 29 -23.5 83.5 t-19.5 64.5q-2 9 -10.5 40.5t-14.5 51.5q-12 -8 -22 -19t-14 -17t-12 -22.5t-9 -19.5q-19 -39 -55 -115.5t-54 -115.5q-14 -19 -24 -21q-37 -14 -79 -5t-67 40q-28 35 -12 72z" />
<glyph unicode="&#x2dc;" horiz-adv-x="575" d="M68 1407q12 43 14 47q23 37 57 59.5t68 22.5q54 3 90 -55q16 -24 50 -60.5t40 -44.5q2 -4 6 -8q25 -28 40.5 -25.5t37.5 39.5q0 1 4 9q14 20 23 8q10 -13 4 -33q-5 -29 -25 -59q-25 -32 -55 -17q-32 18 -43 33q-71 75 -100 117q-3 7 -17 26q-29 39 -74 27 q-49 -16 -90 -80q-3 -2 -8.5 -9.5t-7.5 -10.5q-3 -6 -10 -2q-6 12 -4 16z" />
<glyph unicode="&#x2000;" horiz-adv-x="1097" />
<glyph unicode="&#x2001;" horiz-adv-x="2194" />
<glyph unicode="&#x2002;" horiz-adv-x="1097" />
<glyph unicode="&#x2003;" horiz-adv-x="2194" />
<glyph unicode="&#x2004;" horiz-adv-x="731" />
<glyph unicode="&#x2005;" horiz-adv-x="548" />
<glyph unicode="&#x2006;" horiz-adv-x="365" />
<glyph unicode="&#x2007;" horiz-adv-x="365" />
<glyph unicode="&#x2008;" horiz-adv-x="274" />
<glyph unicode="&#x2009;" horiz-adv-x="438" />
<glyph unicode="&#x200a;" horiz-adv-x="121" />
<glyph unicode="&#x2010;" horiz-adv-x="595" d="M31 625q-4 15 4 49q6 29 37 26q18 -5 55 -2.5t54 4.5t54 8.5t54 8.5q30 4 96.5 5.5t101.5 6.5q10 -40 19 -57q5 -8 18.5 -23t14.5 -16q2 -2 12 -17q31 -51 -29 -63q-24 -4 -37 -4q-84 0 -262 -29q-10 -1 -32 -2t-33 -2q-40 -2 -78.5 27.5t-48.5 79.5z" />
<glyph unicode="&#x2011;" horiz-adv-x="595" d="M31 625q-4 15 4 49q6 29 37 26q18 -5 55 -2.5t54 4.5t54 8.5t54 8.5q30 4 96.5 5.5t101.5 6.5q10 -40 19 -57q5 -8 18.5 -23t14.5 -16q2 -2 12 -17q31 -51 -29 -63q-24 -4 -37 -4q-84 0 -262 -29q-10 -1 -32 -2t-33 -2q-40 -2 -78.5 27.5t-48.5 79.5z" />
<glyph unicode="&#x2012;" horiz-adv-x="595" d="M31 625q-4 15 4 49q6 29 37 26q18 -5 55 -2.5t54 4.5t54 8.5t54 8.5q30 4 96.5 5.5t101.5 6.5q10 -40 19 -57q5 -8 18.5 -23t14.5 -16q2 -2 12 -17q31 -51 -29 -63q-24 -4 -37 -4q-84 0 -262 -29q-10 -1 -32 -2t-33 -2q-40 -2 -78.5 27.5t-48.5 79.5z" />
<glyph unicode="&#x2013;" horiz-adv-x="1028" d="M49 612q-5 16 4 50q6 29 37 26q18 -5 55 -2.5t54 4.5t54 8.5t54 8.5q31 4 265.5 5.5t269.5 6.5q11 -44 18 -57q5 -8 18.5 -23t14.5 -16q2 -2 12 -17q31 -51 -28 -63q-24 -4 -37 -4q-85 0 -312.5 -10t-285.5 -19q-10 -1 -32.5 -2t-33.5 -2q-40 -2 -78.5 27.5t-48.5 78.5z " />
<glyph unicode="&#x2014;" horiz-adv-x="1421" d="M51 612q-7 16 6 50q9 29 54 26q24 -5 79 -2.5t79 4.5t78 8.5t77 8.5q45 4 385 5.5t389 6.5q22 -50 27 -57q7 -8 26 -22.5t21 -16.5q3 -2 18 -17q48 -51 -41 -63q-36 -4 -53 -4q-124 0 -453 -10t-413 -19q-15 -1 -46.5 -2t-47.5 -2q-37 -1 -75 10.5t-69 37t-41 58.5z" />
<glyph unicode="&#x2018;" horiz-adv-x="311" d="M45 1251q0 13 2 15q14 28 42 98.5t46 103.5q31 56 39 95q3 15 10.5 18t14.5 -8q3 -3 14 -25q19 -42 31 -133q6 -53 -21 -69q-27 -17 -65 -76q-3 -5 -10 -17t-11 -18q-19 -34 -37 -18q-8 5 -23.5 11t-21.5 9q-2 1 -5 6.5t-5 7.5z" />
<glyph unicode="&#x2019;" horiz-adv-x="346" d="M45 1251q0 13 2 15q14 28 42 98.5t46 103.5q31 56 39 95q3 15 10.5 18t14.5 -8q3 -3 14 -25q19 -42 31 -133q6 -53 -21 -69q-27 -17 -65 -76q-3 -5 -10 -17t-11 -18q-19 -34 -37 -18q-8 5 -23.5 11t-21.5 9q-2 1 -5 6.5t-5 7.5z" />
<glyph unicode="&#x201a;" horiz-adv-x="313" d="M18 -27q0 13 2 15q13 27 42 98t47 104q29 53 38 95q3 15 10.5 18t14.5 -8q3 -3 14 -25q19 -42 31 -133q6 -54 -20 -69q-29 -18 -66 -76q-3 -5 -9.5 -17.5t-10.5 -17.5q-19 -34 -37 -18q-8 5 -23.5 11t-21.5 9q-2 1 -5.5 6.5t-5.5 7.5z" />
<glyph unicode="&#x201c;" horiz-adv-x="505" d="M45 1251q0 13 2 15q14 28 42 98.5t46 103.5q31 56 39 95q3 15 10.5 18t14.5 -8q3 -3 14 -25q19 -42 31 -133q6 -53 -21 -69q-27 -17 -65 -76q-3 -5 -10 -17t-11 -18q-19 -34 -37 -18q-8 5 -23.5 11t-21.5 9q-2 1 -5 6.5t-5 7.5zM242 1251q0 13 2 15q14 28 42 98.5 t46 103.5q31 56 39 95q3 15 10 18t14 -8q5 -5 15 -25q18 -39 30 -133q6 -54 -20 -69q-29 -18 -66 -76q-4 -5 -10 -17.5t-10 -17.5q-19 -34 -37 -18q-8 5 -23.5 11t-21.5 9q-2 1 -5 6.5t-5 7.5z" />
<glyph unicode="&#x201d;" horiz-adv-x="507" d="M47 1374q-6 54 21 70q27 17 65 76q3 5 10 16.5t11 17.5q19 34 36 19q8 -6 24 -12t22 -9q2 -1 5 -6.5t5 -7.5q0 -12 -2 -14q-14 -28 -42 -99t-46 -104q-31 -57 -39 -94q-3 -15 -10.5 -18t-14.5 8q-4 4 -14 24q-19 42 -31 133zM244 1374q-6 54 20 70q29 18 66 76 q3 5 9.5 17t10.5 17q19 34 37 19q8 -6 23.5 -12t21.5 -9q2 -1 5 -6.5t5 -7.5q0 -12 -2 -14q-14 -28 -42 -99t-46 -104q-31 -57 -39 -94q-3 -15 -10 -18t-14 8q-6 6 -15 24q-18 39 -30 133z" />
<glyph unicode="&#x201e;" horiz-adv-x="550" d="M18 23q0 12 2 14q14 28 42.5 99t46.5 104q30 54 38 94q3 15 10.5 18t14.5 -8q3 -3 14 -25q19 -42 31 -133q6 -54 -20 -69q-29 -18 -66 -76q-3 -5 -9.5 -17.5t-10.5 -17.5q-19 -34 -37 -18q-8 5 -23.5 11t-21.5 9q-2 1 -5.5 7t-5.5 8zM238 23q0 12 2 14q14 28 42 99 t46 104q31 57 39 94q3 15 10 18t14 -8q5 -5 15 -25q18 -39 30 -133q6 -54 -20 -69q-29 -18 -66 -76q-4 -5 -10 -17.5t-10 -17.5q-19 -34 -37 -18q-8 5 -23.5 11t-21.5 9q-2 1 -5 7t-5 8z" />
<glyph unicode="&#x2022;" horiz-adv-x="608" d="M113 659q2 133 83 164l15 4q58 -5 101.5 -23t72 -44.5t48.5 -67t31 -81.5t19 -97q-31 -91 -55 -129q-6 -11 -28.5 -20t-39.5 -9q-106 7 -161 84q-23 -18 -51 40q-37 79 -35 179z" />
<glyph unicode="&#x2026;" horiz-adv-x="1124" d="M138 308q11 40 44 48q65 -6 93 -43.5t38 -107.5q-19 -50 -26 -62q-3 -6 -14 -10t-19 -4q-53 3 -78 41q-13 -11 -28 28q-23 58 -10 110zM513 308q12 40 44 48q65 -6 93 -43.5t38 -107.5q-19 -50 -26 -62q-3 -6 -14 -10t-19 -4q-53 3 -78 41q-13 -11 -28 28q-23 58 -10 110 zM888 308q12 40 44 48q65 -6 93 -43.5t38 -107.5q-17 -45 -27 -62q-7 -14 -32 -14q-53 3 -78 41q-13 -11 -28 28q-23 58 -10 110z" />
<glyph unicode="&#x202f;" horiz-adv-x="438" />
<glyph unicode="&#x2039;" horiz-adv-x="796" d="M78 610q23 73 61 103q180 143 217 170q85 58 150 88q23 10 78 41q9 -3 16.5 -7t14 -10t10.5 -10t9 -13.5t7 -13t7.5 -15t6.5 -13.5q18 -38 9 -82q-13 -58 -60 -78q-34 -17 -59 -27q-97 -37 -191 -106q-12 -11 -67 -49q-4 -3 -12 -12.5t-13 -14.5q11 -5 32.5 -12.5 t31.5 -11.5q41 -17 121.5 -50.5t121.5 -50.5q23 -9 13 -47q-125 43 -371 125q-5 -2 -21.5 -12t-25.5 -13q-43 -18 -62 25q-9 15 -22 53q-8 26 -2 43z" />
<glyph unicode="&#x203a;" horiz-adv-x="616" d="M86 342q-3 20 16 39q13 12 50.5 51.5t58.5 59.5q20 19 57.5 50.5t48.5 41.5q4 4 16 17t21 22q-8 4 -20.5 9t-16.5 7q-79 25 -135 47q-70 28 -95.5 85.5t1.5 127.5q6 17 22 20.5t23 -10.5q3 -5 6 -9t5.5 -7t7.5 -6t7 -5t8.5 -5t8 -3.5t9 -4t8.5 -3.5q162 -63 235 -104 q58 -35 92 -111q8 -16 4 -43q-1 -29 -18 -38.5t-43 1.5q-9 3 -25.5 11.5t-23.5 11.5q-39 -13 -70 -53q-56 -68 -129 -125q-14 -12 -74 -72q-3 -2 -10.5 -10t-11.5 -10q-16 -8 -25 -5q-8 5 -8 23z" />
<glyph unicode="&#x205f;" horiz-adv-x="548" />
<glyph unicode="&#x20ac;" horiz-adv-x="819" d="M0 719q-1 11 6.5 16.5t18.5 7.5q24 5 57 9q6 1 59 6q6 15 16.5 39t14.5 34q72 164 178 265q113 105 277 141q49 12 80 -25q43 -51 27 -114t-79 -86q-3 -1 -9 -2t-9 -2q-57 -8 -106 -34.5t-111 -72.5q-30 -24 -43 -35t-33.5 -34t-32.5 -46q2 -5 6 -7t7 -2t7.5 0.5t6.5 0.5 q4 0 13 1t14 1q45 4 127 8q19 0 24.5 -11.5t-4.5 -26.5q-13 -26 -45 -33q-21 -3 -60.5 -10.5t-60.5 -10.5q-46 -6 -96 -12q-52 -87 -64 -197q18 0 37 2.5t43 7.5t35 7q19 4 57 10t56 10q38 8 114 4q3 -43 -1.5 -53.5t-34.5 -17.5q-45 -13 -168 -39q-72 -14 -125 -27 q-12 -41 16 -94q11 -21 64 -88q44 -53 108 -29q92 31 154 68q5 3 19 9.5t26 12.5q-5 -10 -25 -43q-45 -67 -137 -141q-50 -43 -109 -20q-69 26 -106 79q-71 97 -90 177q-2 12 -10.5 32t-10.5 25q-10 8 -33.5 15t-38 19t-18.5 36l72 16q4 31 15 100.5t16 108.5q-7 1 -20 2 t-19 2q-36 4 -49 12q-7 3 -14 12t-9 17z" />
<glyph unicode="&#x25fc;" horiz-adv-x="1177" d="M0 0v1178h1178v-1178h-1178z" />
</font>
</defs>
</svg>
